<svg width="417" height="131" viewBox="0 0 417 131" fill="none" xmlns="http://www.w3.org/2000/svg">
<g clip-path="url(#clip0_2390_137)">
<path d="M53.2 1.5H1.5V53.2H53.2V1.5Z" stroke="#1D1D1B" stroke-width="3" stroke-miterlimit="10"/>
<path d="M104.9 1.5H53.2V53.2H104.9V1.5Z" stroke="#1D1D1B" stroke-width="3" stroke-miterlimit="10"/>
<path d="M156.6 1.5H104.9V53.2H156.6V1.5Z" stroke="#1D1D1B" stroke-width="3" stroke-miterlimit="10"/>
<path d="M208.3 1.5H156.6V53.2H208.3V1.5Z" stroke="#1D1D1B" stroke-width="3" stroke-miterlimit="10"/>
<path d="M260 1.5H208.3V53.2H260V1.5Z" stroke="#1D1D1B" stroke-width="3" stroke-miterlimit="10"/>
<path d="M311.7 1.5H260V53.2H311.7V1.5Z" stroke="#1D1D1B" stroke-width="3" stroke-miterlimit="10"/>
<path d="M363.4 1.5H311.7V53.2H363.4V1.5Z" stroke="#1D1D1B" stroke-width="3" stroke-miterlimit="10"/>
<path d="M415.1 1.5H363.4V53.2H415.1V1.5Z" stroke="#1D1D1B" stroke-width="3" stroke-miterlimit="10"/>
<path d="M53.2 53.1992H1.5V104.899H53.2V53.1992Z" stroke="#1D1D1B" stroke-width="3" stroke-miterlimit="10"/>
<path d="M104.9 53.1992H53.2V104.899H104.9V53.1992Z" stroke="#1D1D1B" stroke-width="3" stroke-miterlimit="10"/>
<path d="M156.6 53.1992H104.9V104.899H156.6V53.1992Z" stroke="#1D1D1B" stroke-width="3" stroke-miterlimit="10"/>
<path d="M208.3 53.1992H156.6V104.899H208.3V53.1992Z" stroke="#1D1D1B" stroke-width="3" stroke-miterlimit="10"/>
<path d="M260 53.1992H208.3V104.899H260V53.1992Z" stroke="#1D1D1B" stroke-width="3" stroke-miterlimit="10"/>
<path d="M311.7 53.1992H260V104.899H311.7V53.1992Z" stroke="#1D1D1B" stroke-width="3" stroke-miterlimit="10"/>
<path d="M363.4 53.1992H311.7V104.899H363.4V53.1992Z" stroke="#1D1D1B" stroke-width="3" stroke-miterlimit="10"/>
<path d="M415.1 53.1992H363.4V104.899H415.1V53.1992Z" stroke="#1D1D1B" stroke-width="3" stroke-miterlimit="10"/>
<path d="M53.2 104.9H1.5V156.6H53.2V104.9Z" stroke="#1D1D1B" stroke-width="3" stroke-miterlimit="10"/>
<path d="M104.9 104.9H53.2V156.6H104.9V104.9Z" stroke="#1D1D1B" stroke-width="3" stroke-miterlimit="10"/>
<path d="M156.6 104.9H104.9V156.6H156.6V104.9Z" stroke="#1D1D1B" stroke-width="3" stroke-miterlimit="10"/>
<path d="M208.3 104.9H156.6V156.6H208.3V104.9Z" stroke="#1D1D1B" stroke-width="3" stroke-miterlimit="10"/>
<path d="M260 104.9H208.3V156.6H260V104.9Z" stroke="#1D1D1B" stroke-width="3" stroke-miterlimit="10"/>
<path d="M311.7 104.9H260V156.6H311.7V104.9Z" stroke="#1D1D1B" stroke-width="3" stroke-miterlimit="10"/>
<path d="M363.4 104.9H311.7V156.6H363.4V104.9Z" stroke="#1D1D1B" stroke-width="3" stroke-miterlimit="10"/>
<path d="M415.1 104.9H363.4V156.6H415.1V104.9Z" stroke="#1D1D1B" stroke-width="3" stroke-miterlimit="10"/>
</g>
<defs>
<clipPath id="clip0_2390_137">
<rect width="417" height="131" fill="white"/>
</clipPath>
</defs>
</svg>
