<?xml version="1.0" encoding="UTF-8"?><svg id="b" xmlns="http://www.w3.org/2000/svg" viewBox="0 0 127.8 127.41"><g id="c"><g><g><path d="M59.3,125.16c2.63-15.1,4.72-111.76,43.67-96.16,39.72,15.91-25.97,85.01-40.04,96.47" fill="#3b7165"/><path d="M58.88,125.89c-14.22-19.19-31.5-38.19-39.02-61.28-3.75-10.09-5.89-32.11,6.4-37.61C62.63,10.73,61.1,112.54,61.53,125.39" fill="#3b7165"/><path d="M60.37,125.97c-10.17-27.51-19.67-57.62-19.21-87.31,.22-14.23,7.6-45.4,28.44-37.36,47.15,18.2-4.29,103.32-7.72,124.49" fill="#68bca2"/><path d="M61.12,126.01c2.05-16.8,39.54-99.04,64.7-59.59,8.51,13.34-12.67,28.79-21.71,36.91-5.36,4.81-11.15,9.32-17.39,12.93-5.81,2.75-20.17,10.58-26.32,9.34" fill="#4e9686"/><path d="M61.11,126.09c6.22-13.56,16.87-32.31,28.2-42.33,11.38-10.07,28.02,1.43,27.61,15.11-.65,21.5-39.65,28.53-55.81,27.22" fill="#68bca2"/><path d="M61.51,125.76c-16.3-5.08-42.02-18.89-53.77-31.62-8.58-9.3-12.69-30.18,2.03-36.52,30.52-13.14,50.48,48.94,52.13,67.79" fill="#4e9686"/><path d="M61.1,126.38c-4.11-11.49-14.31-30.28-26.53-34.82-11.65-4.33-26.11,3.86-22.63,17.32,4.66,17.99,35.01,16.69,49.16,17.5" fill="#68bca2"/></g><g><path d="M62.09,126.08c2.81-12.73,1.16-25.8,.38-38.65-.42-6.99-.74-13.98-.83-20.98-.08-6.57,.21-13.13,.3-19.7s.02-13.47,2.37-19.71c.45-1.21-1.48-1.73-1.93-.53-2.06,5.5-2.28,11.56-2.39,17.37-.12,6.31-.37,12.63-.37,18.94,0,7.01,.26,14.02,.64,21.02,.36,6.57,.97,13.12,1.26,19.68,.32,7.35,.23,14.8-1.36,22.02-.28,1.26,1.65,1.79,1.93,.53h0Z" fill="#1e3933"/><path d="M61.28,125.66c-4.61-4.4-10.74-6.64-16.43-9.27s-11.41-5.73-14.02-11.67c-.52-1.18-2.24-.16-1.73,1.01,5.48,12.45,21.74,12.75,30.76,21.35,.93,.89,2.35-.52,1.42-1.42h0Z" fill="#1e3933"/><path d="M61.11,127.34c6.18-2.42,12.48-4.93,18.02-8.65s9.03-9.52,12.75-15.12c2.25-3.38,4.79-6.53,8.14-8.88,1.05-.74,.05-2.47-1.01-1.73-5.7,4-8.89,9.93-12.73,15.54-1.89,2.77-4.03,5.42-6.72,7.45s-5.69,3.63-8.72,5.08c-3.35,1.62-6.8,3.02-10.26,4.38-1.19,.46-.67,2.4,.53,1.93h0Z" fill="#1e3933"/><path d="M29.52,35.12c.02,4.61,.61,9.17,1.95,13.59s3.23,8.43,5.14,12.52c.55,1.17,2.27,.15,1.73-1.01-1.84-3.93-3.68-7.88-4.94-12.04s-1.86-8.61-1.88-13.05c0-1.29-2.01-1.29-2,0h0Z" fill="#1e3933"/><path d="M99.9,36.51c-.35,10.21-5.53,19.52-10.99,27.87-.71,1.08,1.03,2.09,1.73,1.01,5.66-8.66,10.9-18.31,11.26-28.88,.04-1.29-1.96-1.29-2,0h0Z" fill="#1e3933"/><path d="M11.75,66.83c2.54,6.63,7.31,11.72,13.67,14.85,5.17,2.55,13.02,3.79,15.26,9.91,.44,1.2,2.38,.68,1.93-.53-2.28-6.21-8.96-7.99-14.47-10.32-6.63-2.81-11.87-7.65-14.47-14.44-.46-1.19-2.39-.67-1.93,.53h0Z" fill="#1e3933"/><path d="M117.17,67.8c-4.55,4.17-11.94,3.6-15.74,8.83-.76,1.04,.98,2.05,1.73,1.01,1.7-2.34,4.67-3.31,7.27-4.24,2.9-1.03,5.85-2.07,8.15-4.18,.95-.87-.47-2.29-1.42-1.42h0Z" fill="#1e3933"/><path d="M52.89,32.34c.02,2.35,.6,4.74,1.38,6.94s1.91,4.7,3.8,6.25c4.28,3.51,9.81-.7,12.52-4.13,1.69-2.14,3.09-4.55,4.02-7.12,.44-1.22-1.5-1.74-1.93-.53-1.37,3.81-4.03,7.92-7.57,10.01-1.56,.92-3.89,1.57-5.51,.43s-2.59-3.27-3.27-5.08c-.8-2.14-1.42-4.47-1.44-6.76-.01-1.29-2.01-1.29-2,0h0Z" fill="#1e3933"/><path d="M48.85,52.04c3.05,4.95,5.41,12.09,12.24,12.56s10.35-6.39,13.7-10.89c.77-1.03-.97-2.03-1.73-1.01-2.87,3.85-6.31,10.34-11.97,9.89s-7.93-7.39-10.51-11.56c-.68-1.1-2.41-.09-1.73,1.01h0Z" fill="#1e3933"/><path d="M50.7,73.78c1.32,3.89,3.65,8.3,7.05,10.74,1.6,1.14,3.47,1.47,5.27,.59,1.95-.96,3.42-2.83,4.71-4.51,1.47-1.91,2.7-4.09,4.39-5.81,.9-.92-.51-2.34-1.42-1.42-1.69,1.73-2.94,3.88-4.39,5.81-1.2,1.59-3.01,4.24-5.2,4.47s-4.16-2.47-5.23-4.03c-1.34-1.95-2.5-4.12-3.26-6.37-.41-1.21-2.35-.69-1.93,.53h0Z" fill="#1e3933"/><path d="M88.78,93.27c-.06,.57-.28,1.52-.45,2.23-.23,.97-.47,1.93-.69,2.9-.41,1.85-.85,3.83-.6,5.74,.56,4.26,5.53,4.15,8.78,3.67,1.98-.29,3.95-.85,5.93-1.02,1.28-.11,1.29-2.11,0-2-3.34,.28-6.7,1.68-10.08,1.22-1.35-.18-2.49-.81-2.66-2.15-.21-1.62,.23-3.42,.59-5.02,.42-1.85,.98-3.69,1.19-5.58,.06-.54-.5-1-1-1-.59,0-.94,.46-1,1h0Z" fill="#1e3933"/><path d="M78.21,104.4c-.21,1.93-.9,3.8-1.22,5.72s-.49,3.94,.64,5.54c2.15,3.02,6.59,2.98,9.88,2.57,1.89-.24,3.77-.62,5.6-1.18,1.23-.38,.71-2.31-.53-1.93-2.97,.91-6.19,1.52-9.31,1.23-1.33-.13-2.81-.5-3.75-1.52-1.06-1.15-.81-2.96-.57-4.38,.35-2.03,1.03-4,1.26-6.05,.06-.54-.5-1-1-1-.59,0-.94,.47-1,1h0Z" fill="#1e3933"/><path d="M27.47,115.38c2.8,.47,6.32,1.24,8.87-.47s2.56-5.26,2.29-8.1c-.15-1.55-.37-3.11-.75-4.63-.31-1.25-2.24-.72-1.93,.53,.59,2.39,.93,4.95,.76,7.41-.08,1.11-.28,2.05-1.1,2.82s-2.09,.97-3.2,.98c-1.48,.02-2.95-.24-4.41-.48-.53-.09-1.08,.14-1.23,.7-.13,.48,.16,1.14,.7,1.23h0Z" fill="#1e3933"/><path d="M37.21,121.5c3.16,.63,6.57,1.07,9.76,.47,1.44-.27,3.06-.93,3.77-2.3,.84-1.63,.49-3.62-.05-5.28-.6-1.83-1.49-3.63-2.6-5.2-.74-1.04-2.48-.04-1.73,1.01,.83,1.18,1.54,2.48,2.07,3.82s1.1,2.98,.69,4.37c-.15,.5-.41,.77-.83,1.03-.52,.32-1.08,.48-1.71,.61-1.48,.3-3.03,.25-4.53,.15s-2.88-.31-4.3-.59c-1.26-.25-1.8,1.68-.53,1.93h0Z" fill="#1e3933"/><path d="M9.99,76.33c1.25,.89,2.67,1.55,4.08,2.14,1.6,.66,3.31,1.24,5.05,1.31,1.63,.06,2.98-.62,3.83-2.04s1.04-3.19,1.05-4.82c0-1.76-.24-3.52-.58-5.24-.25-1.26-2.18-.73-1.93,.53s.43,2.53,.49,3.82c.06,1.39,.04,2.89-.5,4.19-.2,.48-.5,.95-.89,1.24-.35,.26-.8,.31-1.33,.3-1.47-.03-2.94-.55-4.28-1.09s-2.75-1.23-3.97-2.09c-1.06-.74-2.06,.99-1.01,1.73h0Z" fill="#1e3933"/><path d="M19.39,88.43c3.73,.02,7.77,1.12,11.38-.32s4.55-5.25,4.57-8.72c0-1.88-.28-3.86-1.17-5.54-.6-1.14-2.33-.13-1.73,1.01,1.31,2.48,1.16,6.01,.22,8.58-.46,1.25-1.26,2.24-2.5,2.77-1.55,.65-3.34,.65-4.99,.58-1.92-.08-3.84-.35-5.77-.36-1.29,0-1.29,2,0,2h0Z" fill="#1e3933"/><path d="M110.61,65.22c-.6,1-1.18,2.02-1.7,3.06-.61,1.22-1.25,2.53-1.48,3.89-.11,.63-.17,1.34,.16,1.92,.29,.52,.77,.94,1.29,1.23,1.22,.68,2.68,.85,4.05,.98,.79,.08,1.59,.12,2.38,.18,.35,.03,.7,.06,1.05,.1,.03,0,.2,.03,.02,0,.07,.01,.15,.02,.22,.03,.15,.03,.3,.05,.44,.09,1.25,.3,1.79-1.63,.53-1.93-2.37-.57-4.84-.18-7.11-.93-.28-.09-.26-.08-.54-.23-.11-.06-.21-.12-.31-.19-.09-.06,.01,.01,.03,.02-.07-.05-.13-.11-.19-.17-.04-.04-.08-.08-.11-.12,.02,.03,.13,.14,.01,0-.09-.11-.04,0,0,.03-.02-.01,0-.08-.02-.1-.07-.07,0,.17,0,.06,0-.05,0-.1,0-.15,0-.06,.03-.41,0-.2,.15-1.19,.7-2.29,1.21-3.34,.54-1.1,1.15-2.17,1.78-3.23,.66-1.11-1.07-2.12-1.73-1.01h0Z" fill="#1e3933"/><path d="M92.39,40.13c.33,3.46-.05,7.18,1.18,10.51,.28,.75,.64,1.55,1.27,2.06,.71,.57,1.53,.88,2.44,.95,1.82,.13,3.64-.79,5.08-1.82,1.72-1.22,3.27-2.74,4.41-4.52,.7-1.09-1.03-2.09-1.73-1.01-.84,1.3-1.96,2.45-3.17,3.41-1.12,.89-2.53,1.82-4,1.94-.6,.05-1.22-.04-1.71-.44-.32-.26-.57-.82-.73-1.29-.52-1.51-.67-3.13-.77-4.72-.12-1.69-.11-3.38-.27-5.07-.05-.54-.42-1-1-1-.5,0-1.05,.46-1,1h0Z" fill="#1e3933"/><path d="M22.98,43.7c1.91,2.88,3.91,6.34,7.29,7.65,1.45,.56,3.17,.51,4.45-.45s1.88-2.44,2.28-3.9c.46-1.7,.62-3.47,.89-5.21,.08-.54-.14-1.07-.7-1.23-.47-.14-1.15,.17-1.23,.7-.21,1.37-.35,2.74-.63,4.1-.24,1.17-.54,2.5-1.3,3.46-1.88,2.37-5.01-.37-6.41-2.01-1.09-1.28-1.98-2.72-2.91-4.12-.71-1.07-2.45-.07-1.73,1.01h0Z" fill="#1e3933"/></g></g></g></svg>