<svg width="564" height="242" viewBox="0 0 564 242" fill="none" xmlns="http://www.w3.org/2000/svg">
<g clip-path="url(#clip0_3414_486)">
<rect y="-58" width="1400" height="300" rx="38" fill="#FDE7DC"/>
<g clip-path="url(#clip1_3414_486)">
<path d="M74.5865 285.688C104.131 282.955 141.788 252.408 126.046 204.159C110.306 155.914 46.9811 105.375 56.6559 74.4327C66.3307 43.4906 153.305 39.5824 191.069 -7.58346C228.836 -54.7444 176.431 -122.614 148.227 -129.487C120.023 -136.36 8.33548 -152.359 -89.6083 30.9838C-187.547 214.323 42.7535 288.635 74.5865 285.688Z" fill="#0028FF"/>
</g>
<g clip-path="url(#clip2_3414_486)">
<path d="M-251.43 94.5606C-228.521 75.2927 -208.171 73.8963 -183.134 90.207C-172.581 96.7499 -162.758 104.695 -151.239 109.524C-128.18 118.892 -101.525 118.319 -78.3627 109.648C-58.0982 102.064 -39.1777 85.6253 -41.6405 62.1025C-42.6881 46.4999 -49.1541 32.1056 -54.0094 17.3412C-57.9879 5.48797 -60.9046 -6.94164 -60.4913 -19.528C-59.4722 -44.695 -47.1787 -68.7769 -29.5898 -86.4968C0.987728 -116.214 42.7199 -104.152 75.3379 -84.7187C97.0433 -71.724 113.123 -50.2497 120.772 -26.2422C140.746 36.2237 107.6 100.428 60.5224 140.996C-8.21338 201.129 -94.7654 225.922 -183.052 196.915C-211.88 186.889 -241.771 171.235 -258.602 144.82C-269.513 127.141 -267.943 108.035 -251.417 94.5675L-251.43 94.5606ZM-251.43 94.5606C-274.847 114.07 -265.973 140.393 -246.909 159.337C-192.808 210.271 -104.728 218.909 -36.2998 196.08C10.039 180.083 53.4398 150.257 84.9147 112.688C124.881 65.1033 140.845 -5.27213 101.333 -58.0596C86.4536 -77.9965 63.6448 -90.3341 40.4381 -97.992C16.202 -105.848 -9.33376 -103.183 -28.1525 -84.9905C-45.4269 -67.8659 -57.7747 -44.0587 -58.9056 -19.4854C-59.398 -7.07603 -56.5943 5.1762 -52.7397 16.9231C-48.0124 31.6386 -41.5531 46.3272 -40.6183 62.0334C-38.3026 86.008 -57.4447 102.596 -78.1525 110.199C-101.499 118.715 -128.214 119.241 -151.357 109.786C-162.899 104.921 -172.695 96.955 -183.241 90.3648C-208.209 73.9872 -228.542 75.4007 -251.434 94.5504L-251.43 94.5606Z" fill="#FF54F6"/>
<g clip-path="url(#clip3_3414_486)">
<path d="M37.8155 27.2349C37.3283 26.7212 36.5891 26.6549 35.9171 26.5224C35.0603 26.3732 34.2035 26.2572 33.3299 26.1744C32.5067 26.0915 31.6667 26.0584 30.8267 26.0584C30.6587 24.9647 30.4907 23.8544 30.2891 22.7607C30.1043 21.7499 29.9363 20.6728 29.5835 19.6951C29.1971 18.5848 28.5083 17.6237 28.0043 16.5632C27.5003 15.486 25.8707 16.0826 25.8539 17.1431C25.8371 18.3363 25.5851 19.4962 25.6355 20.6894C25.6859 21.7333 25.8539 22.7773 25.9715 23.8047C26.0723 24.6498 26.1395 25.5115 26.2067 26.3732C25.2491 26.4561 24.2915 26.5389 23.3339 26.6218C21.8555 26.7544 19.7555 26.6218 18.4619 27.5166C18.3443 27.5498 18.2267 27.5829 18.1091 27.6161C16.2779 28.1298 16.8491 30.4829 18.5291 30.6817C18.5795 30.6817 18.6299 30.6817 18.6803 30.6983C20.0243 31.4274 22.2587 30.9468 23.6867 30.8474C24.6107 30.7811 25.5347 30.7314 26.4587 30.6817C26.5427 32.7365 26.6099 34.7913 26.6099 36.8461C26.6099 38.6192 26.6939 42.5134 29.5331 41.95C32.0699 41.4363 31.7339 37.8238 31.7003 35.9513C31.6667 34.0291 31.5323 32.14 31.3307 30.2343C32.1707 30.1183 33.0107 29.9526 33.7835 29.7206C34.5899 29.4886 35.4299 29.2732 36.2195 28.9915C36.8579 28.7595 37.4963 28.544 37.8827 27.9806C38.0339 27.7486 37.9667 27.4504 37.7819 27.2515L37.8155 27.2349Z" fill="#FDE7DC"/>
</g>
<path d="M92.0001 40.3333L109.333 21.1395L108.031 46.969L133.861 45.6667L114.667 63L133.861 80.3333L108.031 79.031L109.333 104.86L92.0001 85.6667L74.6668 104.86L75.9691 79.031L50.1396 80.3333L69.3334 63L50.1396 45.6667L75.9691 46.969L74.6668 21.1395L92.0001 40.3333Z" stroke="#0028FF" stroke-width="0.5" stroke-miterlimit="10"/>
</g>
<g clip-path="url(#clip4_3414_486)">
<path d="M353.54 286.514C358.809 215.086 415.371 226.204 452.307 210.901C507.618 188.003 546.434 111.307 510.837 75.5549C475.24 39.8032 412.313 48.1359 389.97 -34.5403C367.637 -117.207 432.506 -153.699 472.891 -156.442C513.267 -159.175 704.637 -81.8101 650.62 127.458C596.612 336.755 345.782 391.66 353.54 286.514Z" fill="#FF54F6"/>
</g>
<g clip-path="url(#clip5_3414_486)">
<path d="M544.612 -120.063C531.177 -113.538 520.652 -101.411 515.508 -87.4442C512.383 -79.0568 511.457 -69.8545 512.863 -61.0152C518.652 -25.7838 558.184 -4.43308 585.36 14.1077C598.718 23.296 622.471 37.718 626.339 54.1497C628.891 64.9367 621.354 74.6219 614.552 82.151C588.085 109.806 552.349 131.027 537.448 167.828C523.658 200.969 545.131 232.553 572.821 250.141C583.413 256.792 597.268 263.45 609.982 262.981C620.312 261.976 630.486 259.425 640.209 255.829C668.207 245.541 692.109 225.93 710.05 202.326C740.825 161.764 756.058 111.672 764.703 62.0626C765.837 55.2008 767.249 46.8097 767.954 39.9324C768.103 37.9496 768.502 34.1095 768.655 32.1407C768.772 29.1481 769.093 25.0778 769.088 22.0948C769.712 -3.86958 764.675 -30.5163 751.239 -53.0024C723.502 -99.7879 667.386 -119.433 615.699 -124.326C597.868 -125.971 579.827 -126.21 562.031 -124.044C556.135 -123.234 550.135 -122.378 544.614 -120.068L544.612 -120.063ZM544.612 -120.063C550.128 -122.387 556.135 -123.246 562.027 -124.069C579.825 -126.263 597.868 -126.052 615.708 -124.437C671.318 -119.32 731.69 -96.8605 757.034 -43.4038C768.35 -19.6477 771.372 7.28681 769.47 33.3188C769.176 36.7981 768.844 41.0429 768.365 44.483C767.816 49.538 766.519 57.1378 765.721 62.2258C764.85 68.1145 763.146 76.192 762.043 82.0695C761.242 86.064 759.458 93.3343 758.569 97.3778C746.097 147.774 723.969 198.487 683.366 232.476C670.605 242.939 656.278 251.595 640.739 257.254C630.876 260.885 620.55 263.46 610.076 264.451C602.457 264.81 594.997 262.535 588.014 259.719C555.989 246.314 524.306 213.097 533.531 175.973C543.422 140.48 575.018 117.601 601.16 94.0838C609.816 86.0996 619.179 78.0141 624.272 67.2005C626.808 61.7506 626.917 55.547 624.386 50.0815C619.417 39.3365 609.13 31.5942 599.892 24.606C585.399 14.0518 570.013 4.79075 555.5 -5.74482C541.165 -16.2784 526.703 -27.9682 518.386 -44.0445C512.511 -55.316 510.476 -68.6287 513.5 -81.0345C517.455 -97.7188 529.156 -112.562 544.607 -120.066L544.612 -120.063Z" fill="#0028FF"/>
</g>
<g clip-path="url(#clip6_3414_486)">
<path d="M523.071 102.468C553.971 112.766 580.573 116.456 582.488 110.709C584.404 104.962 560.907 91.9542 530.007 81.6558C499.107 71.3573 472.504 67.6677 470.589 73.4147C468.674 79.1617 492.171 92.1691 523.071 102.468Z" stroke="#FF29D2" stroke-width="0.5" stroke-miterlimit="10"/>
<path d="M521.134 113.533C552.034 123.832 578.637 127.522 580.552 121.775C582.467 116.028 558.97 103.02 528.07 92.7217C497.17 82.4233 470.568 78.7336 468.653 84.4806C466.737 90.2276 490.234 103.235 521.134 113.533Z" stroke="#FF29D2" stroke-width="0.5" stroke-miterlimit="10"/>
<path d="M522.936 122.765C553.837 133.063 580.439 136.753 582.354 131.006C584.27 125.259 560.773 112.252 529.873 101.953C498.972 91.6548 472.37 87.9651 470.455 93.7121C468.539 99.4591 492.036 112.467 522.936 122.765Z" stroke="#FF29D2" stroke-width="0.5" stroke-miterlimit="10"/>
<path d="M527.746 130.554C558.647 140.853 585.249 144.542 587.164 138.795C589.08 133.048 565.583 120.041 534.683 109.742C503.782 99.4441 477.18 95.7544 475.265 101.501C473.349 107.248 496.846 120.256 527.746 130.554Z" stroke="#FF29D2" stroke-width="0.5" stroke-miterlimit="10"/>
<path d="M534.848 137.286C565.748 147.585 592.35 151.274 594.266 145.527C596.181 139.78 572.684 126.773 541.784 116.475C510.884 106.176 484.282 102.487 482.366 108.234C480.451 113.981 503.948 126.988 534.848 137.286Z" stroke="#FF29D2" stroke-width="0.5" stroke-miterlimit="10"/>
<path d="M543.525 143.346C574.425 153.645 601.027 157.334 602.943 151.587C604.858 145.84 581.361 132.833 550.461 122.534C519.561 112.236 492.959 108.546 491.043 114.293C489.128 120.04 512.625 133.048 543.525 143.346Z" stroke="#FF29D2" stroke-width="0.5" stroke-miterlimit="10"/>
<path d="M553.057 149.13C583.957 159.428 610.559 163.118 612.475 157.371C614.39 151.624 590.893 138.616 559.993 128.318C529.093 118.019 502.491 114.33 500.575 120.077C498.66 125.824 522.157 138.831 553.057 149.13Z" stroke="#FF29D2" stroke-width="0.5" stroke-miterlimit="10"/>
<path d="M562.724 154.996C593.624 165.294 620.226 168.984 622.142 163.237C624.057 157.49 600.56 144.482 569.66 134.184C538.76 123.885 512.158 120.196 510.242 125.943C508.327 131.69 531.824 144.697 562.724 154.996Z" stroke="#FF29D2" stroke-width="0.5" stroke-miterlimit="10"/>
<path d="M571.799 161.363C602.699 171.661 629.302 175.351 631.217 169.604C633.132 163.857 609.636 150.849 578.735 140.551C547.835 130.252 521.233 126.563 519.318 132.31C517.402 138.057 540.899 151.064 571.799 161.363Z" stroke="#FF29D2" stroke-width="0.5" stroke-miterlimit="10"/>
<path d="M579.573 168.593C610.473 178.892 637.075 182.581 638.99 176.834C640.906 171.087 617.409 158.08 586.509 147.781C555.609 137.483 529.006 133.793 527.091 139.54C525.176 145.287 548.672 158.295 579.573 168.593Z" stroke="#FF29D2" stroke-width="0.5" stroke-miterlimit="10"/>
<path d="M585.322 177.094C616.222 187.393 642.824 191.082 644.739 185.335C646.655 179.588 623.158 166.581 592.258 156.283C561.358 145.984 534.755 142.295 532.84 148.042C530.925 153.789 554.421 166.796 585.322 177.094Z" stroke="#FF29D2" stroke-width="0.5" stroke-miterlimit="10"/>
<path d="M588.326 187.225C619.226 197.524 645.828 201.213 647.743 195.466C649.659 189.719 626.162 176.712 595.262 166.413C564.362 156.115 537.759 152.425 535.844 158.172C533.929 163.919 557.425 176.927 588.326 187.225Z" stroke="#FF29D2" stroke-width="0.5" stroke-miterlimit="10"/>
<path d="M588.006 197.907C618.906 208.205 645.508 211.895 647.424 206.148C649.339 200.401 625.842 187.394 594.942 177.095C564.042 166.797 537.439 163.107 535.524 168.854C533.609 174.601 557.106 187.609 588.006 197.907Z" stroke="#FF29D2" stroke-width="0.5" stroke-miterlimit="10"/>
<path d="M584.636 204.941C615.536 215.239 642.138 218.929 644.053 213.182C645.969 207.435 622.472 194.427 591.572 184.129C560.672 173.831 534.069 170.141 532.154 175.888C530.239 181.635 553.735 194.642 584.636 204.941Z" stroke="#FF29D2" stroke-width="0.5" stroke-miterlimit="10"/>
<path d="M578.663 209.311C609.563 219.609 636.165 223.299 638.081 217.552C639.996 211.805 616.499 198.798 585.599 188.499C554.699 178.201 528.097 174.511 526.181 180.258C524.266 186.005 547.763 199.012 578.663 209.311Z" stroke="#FF29D2" stroke-width="0.5" stroke-miterlimit="10"/>
<path d="M570.531 211.527C601.431 221.825 628.033 225.515 629.948 219.768C631.864 214.021 608.367 201.014 577.467 190.715C546.567 180.417 519.964 176.727 518.049 182.474C516.134 188.221 539.63 201.229 570.531 211.527Z" stroke="#FF29D2" stroke-width="0.5" stroke-miterlimit="10"/>
<path d="M560.72 212.136C591.62 222.435 618.222 226.124 620.137 220.377C622.053 214.63 598.556 201.623 567.656 191.324C536.756 181.026 510.153 177.336 508.238 183.083C506.323 188.83 529.819 201.838 560.72 212.136Z" stroke="#FF29D2" stroke-width="0.5" stroke-miterlimit="10"/>
<path d="M549.662 211.681C580.562 221.98 607.164 225.669 609.08 219.922C610.995 214.175 587.498 201.168 556.598 190.869C525.698 180.571 499.096 176.881 497.18 182.628C495.265 188.375 518.762 201.383 549.662 211.681Z" stroke="#FF29D2" stroke-width="0.5" stroke-miterlimit="10"/>
<path d="M537.808 210.686C568.708 220.985 595.31 224.674 597.226 218.927C599.141 213.18 575.644 200.173 544.744 189.875C513.844 179.576 487.242 175.887 485.326 181.634C483.411 187.381 506.908 200.388 537.808 210.686Z" stroke="#FF29D2" stroke-width="0.5" stroke-miterlimit="10"/>
<path d="M525.632 209.684C556.532 219.982 583.134 223.672 585.049 217.925C586.965 212.178 563.468 199.171 532.568 188.872C501.668 178.574 475.065 174.884 473.15 180.631C471.235 186.378 494.732 199.386 525.632 209.684Z" stroke="#FF29D2" stroke-width="0.5" stroke-miterlimit="10"/>
<path d="M513.58 209.209C544.48 219.508 571.082 223.197 572.998 217.45C574.913 211.703 551.416 198.696 520.516 188.398C489.616 178.099 463.014 174.41 461.098 180.157C459.183 185.904 482.68 198.911 513.58 209.209Z" stroke="#FF29D2" stroke-width="0.5" stroke-miterlimit="10"/>
<path d="M502.11 209.802C533.01 220.1 559.613 223.79 561.528 218.043C563.443 212.296 539.947 199.289 509.046 188.99C478.146 178.692 451.544 175.002 449.629 180.749C447.713 186.496 471.21 199.504 502.11 209.802Z" stroke="#FF29D2" stroke-width="0.5" stroke-miterlimit="10"/>
<path d="M491.674 211.986C522.574 222.285 549.177 225.974 551.092 220.227C553.007 214.48 529.511 201.473 498.61 191.174C467.71 180.876 441.108 177.186 439.193 182.933C437.277 188.68 460.774 201.688 491.674 211.986Z" stroke="#FF29D2" stroke-width="0.5" stroke-miterlimit="10"/>
<path d="M482.726 216.313C513.626 226.611 540.228 230.301 542.144 224.554C544.059 218.807 520.562 205.799 489.662 195.501C458.762 185.202 432.16 181.513 430.244 187.26C428.329 193.007 451.826 206.014 482.726 216.313Z" stroke="#FF29D2" stroke-width="0.5" stroke-miterlimit="10"/>
<path d="M475.721 223.294C506.621 233.593 533.223 237.283 535.138 231.536C537.054 225.789 513.557 212.781 482.657 202.483C451.757 192.184 425.154 188.495 423.239 194.242C421.324 199.989 444.82 212.996 475.721 223.294Z" stroke="#FF29D2" stroke-width="0.5" stroke-miterlimit="10"/>
<path d="M471.115 233.471C502.015 243.769 528.618 247.459 530.533 241.712C532.448 235.965 508.951 222.958 478.051 212.659C447.151 202.361 420.549 198.671 418.633 204.418C416.718 210.165 440.215 223.173 471.115 233.471Z" stroke="#FF29D2" stroke-width="0.5" stroke-miterlimit="10"/>
<path d="M469.365 247.393C500.265 257.691 526.868 261.381 528.783 255.634C530.698 249.887 507.201 236.88 476.301 226.581C445.401 216.283 418.799 212.593 416.883 218.34C414.968 224.087 438.465 237.095 469.365 247.393Z" stroke="#FF29D2" stroke-width="0.5" stroke-miterlimit="10"/>
<path d="M470.589 73.4147C470.518 74.5637 461.822 91.122 478.876 107.968C495.934 124.804 532.314 140.159 535.691 155.665C539.584 173.6 529.446 181.459 510.549 179.863C488.418 177.987 454.602 171.569 430.487 186.044C415.397 195.096 416.894 218.344 416.894 218.344" stroke="#FF29D2" stroke-width="0.5" stroke-miterlimit="10"/>
<path d="M438.023 234.865C438.023 234.865 437.816 202.68 453.637 193.534C454.042 193.295 454.466 193.075 454.889 192.854C479.761 180.09 517.675 188.249 538.068 184.906C553.79 182.326 561.659 175.232 556.319 159.197C550.927 143.019 515.43 128.395 500.884 114.006C485.884 99.1414 491.252 89.7178 491.252 89.7178" stroke="#FF29D2" stroke-width="0.5" stroke-miterlimit="10"/>
<path d="M461.202 244.672C461.202 244.672 460.117 209.039 477.942 200.3C478.377 200.084 478.834 199.874 479.299 199.68C504.863 188.556 545.98 199.341 565.594 189.964C577.708 184.173 583.363 176.928 576.952 162.756C569.308 145.865 534.922 131.998 522.896 120.07C509.939 107.183 512.921 98.9104 512.921 98.9104" stroke="#FF29D2" stroke-width="0.5" stroke-miterlimit="10"/>
<path d="M483.357 251.694C483.357 251.694 482.395 215.354 502.239 207.051C502.719 206.849 503.195 206.659 503.69 206.487C529.919 196.932 574.489 211.849 593.102 195.003C601.844 187.091 604.781 178.691 597.569 166.284C587.388 148.785 554.406 135.585 544.893 126.104C533.994 115.188 535.861 106.244 535.861 106.244" stroke="#FF29D2" stroke-width="0.5" stroke-miterlimit="10"/>
<path d="M506.482 256.932C506.482 256.932 504.662 221.628 526.543 213.817C527.053 213.638 527.571 213.473 528.1 213.313C554.972 205.244 604.721 225.491 620.62 200.046C626.659 190.373 626.03 180.584 618.197 169.817C605.171 151.918 573.706 139.349 566.893 132.127C553.698 118.151 558.179 111.724 558.179 111.724" stroke="#FF29D2" stroke-width="0.5" stroke-miterlimit="10"/>
<path d="M528.783 255.634C528.783 255.634 526.928 227.864 550.848 220.583C577.652 212.417 636.593 239.768 648.146 205.104C659.617 170.688 595.717 145.151 588.904 138.19C582.103 131.234 577.684 120.769 582.484 110.72" stroke="#FF29D2" stroke-width="0.5" stroke-miterlimit="10"/>
<path d="M494.357 72.2938C494.357 72.2938 491.388 79.2118 493.887 90.9703" stroke="#FF29D2" stroke-width="0.5" stroke-miterlimit="10"/>
<path d="M523.611 79.5991C523.611 79.5991 517.588 90.6129 518.521 101.101" stroke="#FF29D2" stroke-width="0.5" stroke-miterlimit="10"/>
<path d="M549.16 88.7502C549.16 88.7502 543.609 98.7612 544.381 108.722" stroke="#FF29D2" stroke-width="0.5" stroke-miterlimit="10"/>
</g>
</g>
<defs>
<clipPath id="clip0_3414_486">
<rect width="564" height="242" fill="white"/>
</clipPath>
<clipPath id="clip1_3414_486">
<rect width="368.251" height="384.534" fill="white" transform="translate(0.125 338.182) rotate(-120)"/>
</clipPath>
<clipPath id="clip2_3414_486">
<rect width="275" height="415" fill="white" transform="translate(-30 -122)"/>
</clipPath>
<clipPath id="clip3_3414_486">
<rect width="21" height="26" fill="white" transform="translate(17 16)"/>
</clipPath>
<clipPath id="clip4_3414_486">
<rect width="391.748" height="458.102" fill="white" transform="translate(422.408 396.832) rotate(-134.876)"/>
</clipPath>
<clipPath id="clip5_3414_486">
<rect width="309" height="373" fill="white" transform="translate(557.094 -172) rotate(26.4421)"/>
</clipPath>
<clipPath id="clip6_3414_486">
<rect width="219" height="177" fill="white" transform="translate(465.964 60) rotate(18.4322)"/>
</clipPath>
</defs>
</svg>
