<?xml version="1.0" encoding="UTF-8"?><svg id="b" xmlns="http://www.w3.org/2000/svg" viewBox="0 0 94.06 154.63"><g id="c"><g><g><path d="M43.85,43.97c-6.66-1.52-20.3-.91-21.51,7.88,6.36-.3,17.87,0,20.6-6.97" fill="#4eaf68"/><path d="M55.07,37.61c3.94-6.67,16.06-13.63,23.63-8.79-4.54,8.48-14.54,11.51-23.33,10" fill="#4eaf68"/><path d="M62.03,69.12c7.88,.91,15.45,3.03,18.18,11.51-7.57,2.43-16.97-2.42-18.48-10.3" fill="#4eaf68"/><path d="M47.93,77.6c0-7.27-7.57-14.24-14.54-13.94,2.12,6.97,4.85,15.75,13.33,16.66" fill="#4eaf68"/><path d="M34.77,98.51c-7.27-3.33-19.09,1.21-22.12,8.48,6.36,1.52,19.69,1.21,22.42-6.36" fill="#4eaf68"/><path d="M46.58,107.29c2.12-8.79,8.48-11.21,16.36-11.81-4.54,6.36-9.69,15.15-17.87,16.36" fill="#4eaf68"/><path d="M55.07,124.56c6.06-5.45,20.3-.91,24.24,5.76-9.69,1.82-17.87,1.82-24.84-5.76" fill="#4eaf68"/><path d="M47.63,129.54c-6.06-8.18-14.24-8.79-23.33-6.67,4.85,5.76,14.24,8.79,21.51,8.79" fill="#4eaf68"/></g><g><path d="M53.63,17c2.25,17.5-1.86,34.95-5.13,52.05-1.63,8.52-3.19,17.15-3.61,25.83-.45,9.27,.08,18.62,.7,27.87,.69,10.31,1.62,20.6,1.98,30.92,.05,1.29,2.05,1.29,2,0-.65-18.39-3.06-36.71-2.78-55.14,.27-17.79,5.36-35.05,7.94-52.56,1.41-9.59,2.13-19.32,.9-28.97-.16-1.26-2.17-1.28-2,0h0Z" fill="#1e3933"/><path d="M53.12,50.47c-10.85-6.87-16.7-19.69-28.28-25.58-1.15-.58-2.16,1.14-1.01,1.73,5.68,2.89,10,7.73,14.19,12.41s8.6,9.7,14.09,13.17c1.09,.69,2.1-1.04,1.01-1.73h0Z" fill="#1e3933"/><path d="M48.1,86.85c3.82-6.45,8.89-12.17,14.4-17.22s11.89-9.73,18.9-12.72c1.18-.5,.16-2.23-1.01-1.73-7.16,3.05-13.59,7.8-19.3,13.03s-10.81,11.03-14.72,17.62c-.66,1.11,1.07,2.12,1.73,1.01h0Z" fill="#1e3933"/><path d="M45.92,109.87c-10.42-11.74-20.24-24.03-33.19-33.15-1.06-.74-2.06,.99-1.01,1.73,12.8,9,22.49,21.24,32.79,32.83,.86,.97,2.27-.45,1.42-1.42h0Z" fill="#1e3933"/><path d="M48.1,133.3c8.29-11.44,18.56-21.2,30.61-28.59,1.1-.67,.09-2.41-1.01-1.73-12.36,7.58-22.83,17.59-31.33,29.31-.76,1.05,.98,2.05,1.73,1.01h0Z" fill="#1e3933"/><path d="M55.73,38.83c4.04-2.77,8.86-4.82,13.67-5.74,1.26-.24,.73-2.17-.53-1.93-2.55,.49-5.01,1.34-7.4,2.35s-4.64,2.15-6.75,3.59c-1.06,.72-.06,2.46,1.01,1.73h0Z" fill="#1e3933"/><path d="M60.84,70.83c3.82,2.21,6.77,5.73,10.85,7.51,.5,.22,1.07,.15,1.37-.36,.25-.42,.14-1.15-.36-1.37-4.07-1.78-7.03-5.31-10.85-7.51-1.12-.65-2.13,1.08-1.01,1.73h0Z" fill="#1e3933"/><path d="M42.99,43.4c-4.28,1.08-8.4,2.63-12.52,4.17-.51,.19-.85,.68-.7,1.23,.13,.49,.72,.89,1.23,.7,4.12-1.55,8.24-3.1,12.52-4.17,1.25-.31,.72-2.25-.53-1.93h0Z" fill="#1e3933"/><path d="M48.02,78.08c-1.97-3.33-5.92-5.02-7.41-8.66-.2-.5-.67-.86-1.23-.7-.47,.13-.91,.73-.7,1.23,.83,2.02,2.17,3.63,3.78,5.09,1.39,1.27,2.89,2.47,3.84,4.06,.66,1.11,2.39,.1,1.73-1.01h0Z" fill="#1e3933"/><path d="M47.03,111.57c3.39-2.85,5.66-6.74,8.9-9.74,.95-.88-.47-2.29-1.42-1.42-3.24,2.99-5.52,6.89-8.9,9.74-.41,.35-.36,1.06,0,1.42,.41,.41,1,.35,1.42,0h0Z" fill="#1e3933"/><path d="M55.5,125.21c4.35,.53,8.52,1.93,12.81,2.75,1.26,.24,1.8-1.69,.53-1.93-4.47-.85-8.81-2.27-13.34-2.82-.54-.07-1,.51-1,1,0,.6,.46,.94,1,1h0Z" fill="#1e3933"/><path d="M46.58,129.37c-3.89-1.37-7.5-3.41-11.41-4.73-1.22-.41-1.75,1.52-.53,1.93,3.91,1.32,7.52,3.36,11.41,4.73,1.22,.43,1.74-1.51,.53-1.93h0Z" fill="#1e3933"/><path d="M34.09,98.49c-2.11,.33-4.22,.74-6.28,1.31s-4.11,1.27-5.92,2.41c-1.09,.68-.09,2.42,1.01,1.73,1.72-1.08,3.68-1.72,5.62-2.25s4.05-.94,6.1-1.26c.53-.08,.83-.75,.7-1.23-.16-.57-.7-.78-1.23-.7h0Z" fill="#1e3933"/></g><g><g><g><path d="M31.02,18.7c-4.36,.27-12,1.91-14.45,6-2.45,3.27-1.91,10.63,2.18,12.54,12,6,26.99-16.9,12.27-18.54" fill="#fe80c8"/><g><path d="M31.02,18.7c-.89,.06-1.92,.17-3.01,.35" fill="none" stroke="#fe80c8" stroke-linecap="round" stroke-linejoin="round" stroke-width="6.73"/><path d="M21.67,20.81c-2.19,.93-4.09,2.2-5.1,3.89-2.45,3.27-1.91,10.63,2.18,12.54,9.73,4.86,21.43-9.27,17.66-15.67" fill="none" stroke="#fe80c8" stroke-dasharray="0 0 6.59 6.59" stroke-linecap="round" stroke-linejoin="round" stroke-width="6.73"/><path d="M33.95,19.46c-.8-.37-1.78-.62-2.93-.75" fill="none" stroke="#fe80c8" stroke-linecap="round" stroke-linejoin="round" stroke-width="6.73"/></g></g><path d="M29.55,21.63c-3.05,.19-8.4,1.34-10.12,4.2-1.72,2.29-1.34,7.44,1.53,8.78,8.4,4.2,18.9-11.83,8.59-12.98" fill="#c0329a"/><g><path d="M28.24,28.33c3.11,0,3.12-4.84,0-4.84s-3.12,4.84,0,4.84h0Z" fill="#f8b016"/><path d="M22.67,29.12c2.34,0,2.34-3.63,0-3.63s-2.34,3.63,0,3.63h0Z" fill="#f8b016"/><path d="M25.73,32.98c2.65,0,2.65-4.11,0-4.11s-2.65,4.11,0,4.11h0Z" fill="#f8b016"/></g></g><g><g><path d="M81.73,48.32c-12.27-5.45-9.81,13.63-2.45,17.45,13.63,7.63,15.34-12.41,2.45-17.45" fill="#fe80c8"/><g><path d="M81.73,48.32c-1.07-.48-2.04-.77-2.89-.89" fill="none" stroke="#fe80c8" stroke-linecap="round" stroke-linejoin="round" stroke-width="6.73"/><path d="M73.92,49.75c-2.19,4.4,.53,13.51,5.37,16.02,11.52,6.45,14.53-6.87,7.4-14.19" fill="none" stroke="#fe80c8" stroke-dasharray="0 0 5.88 5.88" stroke-linecap="round" stroke-linejoin="round" stroke-width="6.73"/><path d="M84.42,49.71c-.81-.54-1.71-1.01-2.69-1.39" fill="none" stroke="#fe80c8" stroke-linecap="round" stroke-linejoin="round" stroke-width="6.73"/></g></g><path d="M81.76,51.05c-8.59-3.82-6.87,9.54-1.72,12.22,9.54,5.34,10.74-8.69,1.72-12.22" fill="#c0329a"/><g><path d="M80.81,57.26c3.11,0,3.12-4.84,0-4.84s-3.12,4.84,0,4.84h0Z" fill="#f8b016"/><path d="M84.71,60.83c2.34,0,2.34-3.63,0-3.63s-2.34,3.63,0,3.63h0Z" fill="#f8b016"/><path d="M80.26,62.19c2.65,0,2.65-4.11,0-4.11s-2.65,4.11,0,4.11h0Z" fill="#f8b016"/></g></g><g><g><path d="M52.57,3.37c-4.91,.27-11.45,1.09-12,7.09-.55,6.55,7.09,8.73,12.27,9,6,.27,15-.27,15.81-7.64,.82-7.64-8.86-8.45-16.09-8.45" fill="#fe80c8"/><g><path d="M52.57,3.37c-.96,.05-1.99,.13-3.02,.26" fill="none" stroke="#fe80c8" stroke-linecap="round" stroke-linejoin="round" stroke-width="6.73"/><path d="M43.79,5.34c-1.74,1.04-2.99,2.63-3.22,5.11-.55,6.55,7.09,8.73,12.27,9,6,.27,15-.27,15.81-7.64,.6-5.6-4.45-7.53-10.04-8.17" fill="none" stroke="#fe80c8" stroke-dasharray="0 0 6.05 6.05" stroke-linecap="round" stroke-linejoin="round" stroke-width="6.73"/><path d="M55.6,3.43c-1.03-.04-2.05-.06-3.03-.06" fill="none" stroke="#fe80c8" stroke-linecap="round" stroke-linejoin="round" stroke-width="6.73"/></g></g><path d="M53.18,5.79c-3.44,.19-8.02,.76-8.4,4.96-.38,4.58,4.96,6.11,8.59,6.3,4.2,.19,10.5-.19,11.07-5.34,.57-5.34-6.21-5.92-11.26-5.92" fill="#c0329a"/><g><path d="M50.49,13.58c3.11,0,3.12-4.84,0-4.84s-3.12,4.84,0,4.84h0Z" fill="#f8b016"/><path d="M56.61,10.48c2.34,0,2.34-3.63,0-3.63s-2.34,3.63,0,3.63h0Z" fill="#f8b016"/><path d="M60.51,14.61c2.65,0,2.65-4.11,0-4.11s-2.65,4.11,0,4.11h0Z" fill="#f8b016"/><path d="M54.94,15.4c1.87,0,1.87-2.9,0-2.9s-1.87,2.9,0,2.9h0Z" fill="#f8b016"/></g></g><g><g><path d="M18.26,68.17c-9.47-3.01-22.9,19.09-8.73,21.27,12.27,1.91,22.9-21.81,8.73-21.27" fill="#fe80c8"/><g><path d="M18.26,68.17c-.97-.31-1.98-.35-2.99-.18" fill="none" stroke="#fe80c8" stroke-linecap="round" stroke-linejoin="round" stroke-width="6.73"/><path d="M10.27,70.4c-6.75,5.33-11.05,17.45-.73,19.04,10.06,1.57,19.02-14.11,14.1-19.5" fill="none" stroke="#fe80c8" stroke-dasharray="0 0 5.6 5.6" stroke-linecap="round" stroke-linejoin="round" stroke-width="6.73"/><path d="M21.26,68.5c-.84-.25-1.84-.37-3-.33" fill="none" stroke="#fe80c8" stroke-linecap="round" stroke-linejoin="round" stroke-width="6.73"/></g></g><path d="M17.04,71.34c-6.63-2.11-16.03,13.36-6.11,14.89,8.59,1.34,16.03-15.27,6.11-14.89" fill="#c0329a"/><g><path d="M17.66,77.85c3.11,0,3.12-4.84,0-4.84s-3.12,4.84,0,4.84h0Z" fill="#f8b016"/><path d="M9.87,82.53c2.34,0,2.34-3.63,0-3.63s-2.34,3.63,0,3.63h0Z" fill="#f8b016"/><path d="M14.88,83.61c2.65,0,2.65-4.11,0-4.11s-2.65,4.11,0,4.11h0Z" fill="#f8b016"/><path d="M12.66,77.16c1.87,0,1.87-2.9,0-2.9s-1.87,2.9,0,2.9h0Z" fill="#f8b016"/></g></g><g><g><path d="M77.92,96.62c-4.91-1.36-9.54-.55-10.36,5.18-.82,6.54,5.72,12.54,11.45,14.72,6,2.18,13.09,1.91,11.45-6.27-1.09-5.72-7.63-11.18-12.54-13.63" fill="#fe80c8"/><g><path d="M77.92,96.62c-1.01-.28-2.02-.47-2.98-.54" fill="none" stroke="#fe80c8" stroke-linecap="round" stroke-linejoin="round" stroke-width="6.73"/><path d="M69.52,97.6c-.99,.92-1.69,2.28-1.97,4.2-.82,6.54,5.72,12.54,11.45,14.72,6,2.18,13.09,1.91,11.45-6.27-.74-3.89-4.01-7.66-7.56-10.45" fill="none" stroke="#fe80c8" stroke-dasharray="0 0 5.79 5.79" stroke-linecap="round" stroke-linejoin="round" stroke-width="6.73"/><path d="M80.54,98.13c-.9-.58-1.79-1.09-2.63-1.51" fill="none" stroke="#fe80c8" stroke-linecap="round" stroke-linejoin="round" stroke-width="6.73"/></g></g><path d="M78.27,99.69c-3.44-.95-6.68-.38-7.25,3.63-.57,4.58,4.01,8.78,8.02,10.31,4.2,1.53,9.16,1.34,8.02-4.39-.76-4.01-5.34-7.83-8.78-9.54" fill="#c0329a"/><g><path d="M82.21,110.12c3.11,0,3.12-4.84,0-4.84s-3.12,4.84,0,4.84h0Z" fill="#f8b016"/><path d="M78.87,105.07c2.34,0,2.34-3.63,0-3.63s-2.34,3.63,0,3.63h0Z" fill="#f8b016"/><path d="M75.53,108.92c2.65,0,2.65-4.11,0-4.11s-2.65,4.11,0,4.11h0Z" fill="#f8b016"/><path d="M78.59,111.94c1.87,0,1.87-2.9,0-2.9s-1.87,2.9,0,2.9h0Z" fill="#f8b016"/></g></g></g></g></g></svg>