<?xml version="1.0" encoding="UTF-8"?><svg id="b" xmlns="http://www.w3.org/2000/svg" viewBox="0 0 125.53 108.74"><g id="c"><g><g><path d="M38.03,75.47c-3.64-7.01-28.75-36.08-36.72-23.37-8.45,13.47,26.34,23.37,36.72,23.37" fill="#4eaf68"/><path d="M40.26,82.14c1.49-11.74,12.46-37.17,23.37-30.04,13.06,8.53-18.92,27.82-23.37,31.16" fill="#4eaf68"/><path d="M45.82,97.72c-6.93-7.97-29.71-25.95-35.61-13.35-6.31,13.46,30.05,13.35,35.61,13.35" fill="#4eaf68"/><path d="M88.11,96.61c0-7.79-13.64-30.29-21.14-21.14-7.98,9.72,14.47,19.85,20.03,21.14" fill="#4eaf68"/><path d="M95.2,82.14c7.79-7.79,23.7-22.07,28.93-14.47,7.79,11.32-18.92,15.58-28.93,15.58" fill="#4eaf68"/></g><g><path d="M35.92,26.5c1.55,12.61,.14,25.45,.49,38.12,.33,11.85,1.58,25.37,9.72,34.71,4.71,5.39,11.37,8.31,18.34,9.38,1.26,.19,1.8-1.74,.53-1.93-6.1-.93-11.96-3.23-16.36-7.68-3.95-3.99-6.33-9.2-7.77-14.56-3.34-12.36-2.58-25.57-2.37-38.24,.11-6.59,.23-13.23-.57-19.78-.16-1.26-2.16-1.28-2,0h0Z" fill="#1e3933"/><path d="M93.78,43.19c1.25,10.86,2.47,21.93,1.29,32.85-1.01,9.36-4.28,18.96-12.24,24.63-5.28,3.77-11.71,5.44-18.09,6.06-1.27,.12-1.28,2.13,0,2,5.95-.58,11.91-1.97,17.09-5.03,4.21-2.49,7.7-6.04,10.14-10.29,5.24-9.12,5.83-20.29,5.48-30.56-.22-6.58-.91-13.13-1.67-19.66-.15-1.27-2.15-1.28-2,0h0Z" fill="#1e3933"/><path d="M37.93,74.13c-5.27-1.49-9.42-5.21-13.42-8.77s-8.04-7.11-13.1-9.03c-1.21-.46-1.73,1.48-.53,1.93,10.17,3.86,15.87,14.79,26.52,17.8,1.24,.35,1.77-1.58,.53-1.93h0Z" fill="#1e3933"/><path d="M40.75,83.76c2.51-3.43,4.49-7.24,6.87-10.76,2.85-4.21,6.17-8.3,10.58-10.96,1.1-.66,.1-2.4-1.01-1.73-4.53,2.73-7.99,6.86-10.95,11.17-2.52,3.67-4.58,7.67-7.21,11.26-.76,1.04,.97,2.04,1.73,1.01h0Z" fill="#1e3933"/><path d="M45.45,95.43c-8.77-1.17-16.21-6.57-24.77-8.5-1.26-.28-1.79,1.65-.53,1.93,8.76,1.97,16.32,7.37,25.3,8.57,1.27,.17,1.26-1.84,0-2h0Z" fill="#1e3933"/><path d="M88.82,95.72c-4.68-5.58-10.82-9.72-15.39-15.39-.81-1-2.22,.42-1.42,1.42,4.57,5.67,10.71,9.82,15.39,15.39,.83,.99,2.24-.43,1.42-1.42h0Z" fill="#1e3933"/><path d="M95.66,84.12c3.37-1.53,6.44-3.64,9.81-5.16,4.32-1.95,8.45-4.5,13.14-5.5,1.26-.27,.73-2.2-.53-1.93-4.73,1-8.91,3.56-13.27,5.54-3.48,1.58-6.66,3.73-10.15,5.32-1.17,.53-.16,2.26,1.01,1.73h0Z" fill="#1e3933"/></g><g><path d="M29.43,21.3c-3.46-4.37-13.44-16.83-3.5-20.77,8.95-3.65,10.4,12.78,10.55,18.36,.54-6.53,4.22-21.66,12.97-16.95,7.38,3.97-.49,13.61-6.81,18.79,5.63-2.11,21.38-3.58,18.8,5.84-1.84,6.5-14.85,3.79-18.68,.71,6.69,5.15,14.79,14.58,6.61,18.89-6.35,3.34-11.32-8.54-12.56-16.78,1.09,9.77-1.2,20.08-9.08,18.39-8.33-1.78-2.63-14.27,2.9-19.24-5.67,2.46-19.2,6.93-18.88-3.22,.26-8.19,11.63-6.28,17.69-4.01" fill="#c0329a"/><g><g><path d="M39.96,20.49c.07-.28,.16-.56,.26-.83,.02-.04,.09-.22,.03-.09,.03-.06,.06-.13,.08-.19,.06-.14,.13-.28,.2-.42,.28-.54,.6-1.07,.92-1.58,.67-1.08,1.34-2.15,1.79-3.35,.19-.49-.21-1.12-.7-1.23-.57-.13-1.03,.17-1.23,.7-.02,.06-.05,.13-.07,.19,.05-.13-.03,.07-.04,.09-.06,.13-.12,.25-.18,.37-.14,.28-.29,.55-.45,.82-.31,.53-.64,1.05-.96,1.57-.66,1.07-1.28,2.19-1.59,3.42-.13,.51,.16,1.11,.7,1.23s1.09-.16,1.23-.7h0Z" fill="#1e3933"/><path d="M33.36,28.36c-.8,2.48-1.85,4.88-2.28,7.46-.09,.53,.14,1.08,.7,1.23,.48,.13,1.14-.16,1.23-.7,.43-2.58,1.48-4.99,2.28-7.46,.17-.51-.19-1.09-.7-1.23-.54-.15-1.07,.18-1.23,.7h0Z" fill="#1e3933"/><path d="M38.45,28.85c1.34,1.99,2.41,4.15,3.7,6.17,.28,.44,.9,.66,1.37,.36,.44-.28,.66-.9,.36-1.37-1.29-2.02-2.36-4.18-3.7-6.17-.29-.43-.9-.67-1.37-.36-.43,.28-.67,.91-.36,1.37h0Z" fill="#1e3933"/><path d="M41.4,25.18c2.32-.06,4.74-.42,7.02,0,.53,.1,1.08-.15,1.23-.7,.13-.49-.17-1.13-.7-1.23-2.51-.47-5.03-.15-7.55-.08-.54,.02-1,.45-1,1s.46,1.02,1,1h0Z" fill="#1e3933"/><path d="M32.2,23.88c-2.65,.34-5.34,.09-7.98,.55-.53,.09-.83,.75-.7,1.23,.15,.56,.7,.79,1.23,.7,2.46-.43,4.97-.16,7.44-.48,.54-.07,1-.41,1-1,0-.49-.46-1.07-1-1h0Z" fill="#1e3933"/><path d="M35.26,20.07c-1.41-2.1-2.76-4.25-3.87-6.53-.24-.49-.93-.62-1.37-.36-.5,.29-.6,.88-.36,1.37,1.11,2.27,2.46,4.43,3.87,6.53,.3,.45,.88,.64,1.37,.36,.44-.26,.66-.92,.36-1.37h0Z" fill="#1e3933"/></g><path d="M39.02,17.92c4.37,.62,5.64,6.96,3.92,10.11-2.46,4.49-7.82,4.25-10.92,2.08-3.72-2.61-2.57-9.12,.3-11.27,2.2-1.64,4.93-1.32,6.7-.93" fill="#1e3933"/><path d="M37.79,21.42c2.08,.29,2.69,3.32,1.87,4.82-1.17,2.14-3.73,2.03-5.21,.99-1.77-1.24-1.23-4.35,.15-5.37,1.05-.78,2.35-.63,3.19-.44" fill="#f8b016"/></g></g><g><path d="M102.17,36.24c2.86-4.79,11.12-18.44,.75-21.05-9.35-2.44-8.63,14.03-8.05,19.58-1.39-6.41-7.02-20.92-15.08-15.11-6.79,4.9,2.26,13.43,9.21,17.74-5.86-1.36-21.67-.75-17.87,8.25,2.68,6.2,15.21,1.81,18.61-1.74-5.96,5.98-12.75,16.39-4.08,19.59,6.73,2.48,10.11-9.95,10.26-18.29,.2,9.83,3.82,19.75,11.41,17.04,8.02-2.86,.74-14.49-5.39-18.7,5.94,1.69,19.94,4.35,18.3-5.67-1.33-8.08-12.35-4.7-18.07-1.66" fill="#c0329a"/><g><g><path d="M93.51,36.16c-.5-1.26-1.27-2.32-2.13-3.37-.19-.23-.38-.46-.57-.69-.1-.12-.2-.24-.3-.37-.05-.06-.1-.12-.15-.18-.02-.02-.15-.19-.05-.06-.38-.49-.73-1-1.02-1.55-.25-.46-.93-.65-1.37-.36-.47,.3-.62,.88-.36,1.37,.59,1.11,1.42,2.07,2.21,3.04,.19,.23,.38,.46,.56,.7-.06-.08-.03-.03,.02,.02,.05,.06,.09,.12,.14,.19,.09,.13,.18,.25,.27,.38,.17,.24,.32,.49,.47,.74,.08,.13,.15,.27,.21,.41,.03,.06,.05,.11,.08,.17,.13,.27-.07-.18,.04,.1,.19,.49,.68,.88,1.23,.7,.47-.15,.91-.71,.7-1.23h0Z" fill="#1e3933"/><path d="M97.4,44.65c1.08,2.28,2.4,4.45,3.13,6.86,.16,.52,.7,.85,1.23,.7s.86-.71,.7-1.23c-.79-2.59-2.18-4.91-3.34-7.34-.23-.49-.93-.62-1.37-.36-.5,.29-.59,.88-.36,1.37h0Z" fill="#1e3933"/><path d="M92.43,44.02c-1.07,2.16-1.85,4.45-2.86,6.6-.23,.49-.14,1.08,.36,1.37,.43,.25,1.14,.13,1.37-.36,1.02-2.18,1.79-4.45,2.86-6.6,.24-.48,.13-1.08-.36-1.37-.44-.26-1.13-.13-1.37,.36h0Z" fill="#1e3933"/><path d="M90.68,39.66c-2.5,.26-5.07,.25-7.48,1.03-.51,.17-.85,.69-.7,1.23,.14,.5,.72,.87,1.23,.7,2.25-.74,4.6-.72,6.95-.96,.54-.06,1-.42,1-1,0-.5-.46-1.06-1-1h0Z" fill="#1e3933"/><path d="M99.89,41.16c2.58-.01,5.13-.61,7.71-.5,.54,.02,1-.48,1-1,0-.56-.46-.98-1-1-2.59-.11-5.13,.49-7.71,.5-1.29,0-1.29,2.01,0,2h0Z" fill="#1e3933"/><path d="M98.01,36.68c1.17-2.34,2.26-4.73,3.09-7.22,.17-.51-.2-1.09-.7-1.23-.55-.15-1.06,.18-1.23,.7-.78,2.32-1.79,4.55-2.88,6.74-.24,.48-.13,1.08,.36,1.37,.44,.26,1.13,.13,1.37-.36h0Z" fill="#1e3933"/></g><path d="M92.22,34.15c-4.25,1.18-4.68,7.64-2.56,10.53,3.02,4.13,8.31,3.19,11.1,.64,3.35-3.07,1.35-9.38-1.78-11.13-2.4-1.34-5.06-.67-6.76-.04" fill="#1e3933"/><path d="M93.9,37.46c-2.03,.57-2.23,3.64-1.22,5.02,1.44,1.97,3.96,1.52,5.29,.3,1.6-1.46,.65-4.47-.85-5.31-1.14-.64-2.41-.32-3.23-.02" fill="#f8b016"/></g></g></g></g></svg>