<svg width="360" height="147" viewBox="0 0 360 147" fill="none" xmlns="http://www.w3.org/2000/svg">
<g clip-path="url(#clip0_3436_221)">
<path d="M0 0H360V147H0V0Z" fill="#FF29D2"/>
<g clip-path="url(#clip1_3436_221)">
<path d="M333.336 88.4119L350.866 69L349.549 95.123L375.672 93.8059L356.26 111.336L375.672 128.866L349.549 127.549L350.866 153.672L333.336 134.26L315.806 153.672L317.123 127.549L291 128.866L310.412 111.336L291 93.8059L317.123 95.123L315.806 69L333.336 88.4119Z" stroke="#F9F9F9" stroke-width="0.5" stroke-miterlimit="10"/>
</g>
<g clip-path="url(#clip2_3436_221)">
<path d="M4.38213 138.004C4.38213 138.512 3.96706 138.928 3.45974 138.928C2.95243 138.928 2.53735 138.512 2.53735 138.004C2.53735 137.496 2.95243 137.08 3.45974 137.08C3.96706 137.08 4.38213 137.496 4.38213 138.004Z" fill="white"/>
<path d="M19.0328 138.004C19.0328 138.512 18.6177 138.928 18.1104 138.928C17.6031 138.928 17.188 138.512 17.188 138.004C17.188 137.496 17.6031 137.08 18.1104 137.08C18.6177 137.08 19.0328 137.496 19.0328 138.004Z" fill="white"/>
<path d="M33.691 138.004C33.691 138.512 33.2759 138.928 32.7686 138.928C32.2613 138.928 31.8462 138.512 31.8462 138.004C31.8462 137.496 32.2613 137.08 32.7686 137.08C33.2759 137.08 33.691 137.496 33.691 138.004Z" fill="white"/>
<path d="M48.3416 138.004C48.3416 138.512 47.9265 138.928 47.4192 138.928C46.9119 138.928 46.4968 138.512 46.4968 138.004C46.4968 137.496 46.9119 137.08 47.4192 137.08C47.9265 137.08 48.3416 137.496 48.3416 138.004Z" fill="white"/>
<path d="M63.0001 138.004C63.0001 138.512 62.585 138.928 62.0777 138.928C61.5704 138.928 61.1553 138.512 61.1553 138.004C61.1553 137.496 61.5704 137.08 62.0777 137.08C62.585 137.08 63.0001 137.496 63.0001 138.004Z" fill="white"/>
<path d="M4.38213 123.32C4.38213 123.828 3.96706 124.244 3.45974 124.244C2.95243 124.244 2.53735 123.828 2.53735 123.32C2.53735 122.812 2.95243 122.396 3.45974 122.396C3.96706 122.396 4.38213 122.812 4.38213 123.32Z" fill="white"/>
<path d="M19.0328 123.32C19.0328 123.828 18.6177 124.244 18.1104 124.244C17.6031 124.244 17.188 123.828 17.188 123.32C17.188 122.812 17.6031 122.396 18.1104 122.396C18.6177 122.396 19.0328 122.812 19.0328 123.32Z" fill="white"/>
<path d="M33.691 123.32C33.691 123.828 33.2759 124.244 32.7686 124.244C32.2613 124.244 31.8462 123.828 31.8462 123.32C31.8462 122.812 32.2613 122.396 32.7686 122.396C33.2759 122.396 33.691 122.812 33.691 123.32Z" fill="white"/>
<path d="M48.3416 123.32C48.3416 123.828 47.9265 124.244 47.4192 124.244C46.9119 124.244 46.4968 123.828 46.4968 123.32C46.4968 122.812 46.9119 122.396 47.4192 122.396C47.9265 122.396 48.3416 122.812 48.3416 123.32Z" fill="white"/>
<path d="M63.0001 123.32C63.0001 123.828 62.585 124.244 62.0777 124.244C61.5704 124.244 61.1553 123.828 61.1553 123.32C61.1553 122.812 61.5704 122.396 62.0777 122.396C62.585 122.396 63.0001 122.812 63.0001 123.32Z" fill="white"/>
<path d="M4.38213 108.644C4.38213 109.152 3.96706 109.568 3.45974 109.568C2.95243 109.568 2.53735 109.152 2.53735 108.644C2.53735 108.136 2.95243 107.72 3.45974 107.72C3.96706 107.72 4.38213 108.136 4.38213 108.644Z" fill="white"/>
<path d="M19.0328 108.644C19.0328 109.152 18.6177 109.568 18.1104 109.568C17.6031 109.568 17.188 109.152 17.188 108.644C17.188 108.136 17.6031 107.72 18.1104 107.72C18.6177 107.72 19.0328 108.136 19.0328 108.644Z" fill="white"/>
<path d="M33.691 108.644C33.691 109.152 33.2759 109.568 32.7686 109.568C32.2613 109.568 31.8462 109.152 31.8462 108.644C31.8462 108.136 32.2613 107.72 32.7686 107.72C33.2759 107.72 33.691 108.136 33.691 108.644Z" fill="white"/>
<path d="M48.3416 108.644C48.3416 109.152 47.9265 109.568 47.4192 109.568C46.9119 109.568 46.4968 109.152 46.4968 108.644C46.4968 108.136 46.9119 107.72 47.4192 107.72C47.9265 107.72 48.3416 108.136 48.3416 108.644Z" fill="white"/>
<path d="M63.0001 108.644C63.0001 109.152 62.585 109.568 62.0777 109.568C61.5704 109.568 61.1553 109.152 61.1553 108.644C61.1553 108.136 61.5704 107.72 62.0777 107.72C62.585 107.72 63.0001 108.136 63.0001 108.644Z" fill="white"/>
<path d="M4.38213 93.96C4.38213 94.4682 3.96706 94.884 3.45974 94.884C2.95243 94.884 2.53735 94.4682 2.53735 93.96C2.53735 93.4518 2.95243 93.036 3.45974 93.036C3.96706 93.036 4.38213 93.4518 4.38213 93.96Z" fill="white"/>
<path d="M19.0328 93.96C19.0328 94.4682 18.6177 94.884 18.1104 94.884C17.6031 94.884 17.188 94.4682 17.188 93.96C17.188 93.4518 17.6031 93.036 18.1104 93.036C18.6177 93.036 19.0328 93.4518 19.0328 93.96Z" fill="white"/>
<path d="M33.691 93.96C33.691 94.4682 33.2759 94.884 32.7686 94.884C32.2613 94.884 31.8462 94.4682 31.8462 93.96C31.8462 93.4518 32.2613 93.036 32.7686 93.036C33.2759 93.036 33.691 93.4518 33.691 93.96Z" fill="white"/>
<path d="M48.3416 93.96C48.3416 94.4682 47.9265 94.884 47.4192 94.884C46.9119 94.884 46.4968 94.4682 46.4968 93.96C46.4968 93.4518 46.9119 93.036 47.4192 93.036C47.9265 93.036 48.3416 93.4518 48.3416 93.96Z" fill="white"/>
<path d="M63.0001 93.96C63.0001 94.4682 62.585 94.884 62.0777 94.884C61.5704 94.884 61.1553 94.4682 61.1553 93.96C61.1553 93.4518 61.5704 93.036 62.0777 93.036C62.585 93.036 63.0001 93.4518 63.0001 93.96Z" fill="white"/>
<path d="M4.38213 79.284C4.38213 79.7922 3.96706 80.208 3.45974 80.208C2.95243 80.208 2.53735 79.7922 2.53735 79.284C2.53735 78.7758 2.95243 78.36 3.45974 78.36C3.96706 78.36 4.38213 78.7758 4.38213 79.284Z" fill="white"/>
<path d="M19.0328 79.284C19.0328 79.7922 18.6177 80.208 18.1104 80.208C17.6031 80.208 17.188 79.7922 17.188 79.284C17.188 78.7758 17.6031 78.36 18.1104 78.36C18.6177 78.36 19.0328 78.7758 19.0328 79.284Z" fill="white"/>
<path d="M33.691 79.284C33.691 79.7922 33.2759 80.208 32.7686 80.208C32.2613 80.208 31.8462 79.7922 31.8462 79.284C31.8462 78.7758 32.2613 78.36 32.7686 78.36C33.2759 78.36 33.691 78.7758 33.691 79.284Z" fill="white"/>
<path d="M48.3416 79.284C48.3416 79.7922 47.9265 80.208 47.4192 80.208C46.9119 80.208 46.4968 79.7922 46.4968 79.284C46.4968 78.7758 46.9119 78.36 47.4192 78.36C47.9265 78.36 48.3416 78.7758 48.3416 79.284Z" fill="white"/>
<path d="M63.0001 79.284C63.0001 79.7922 62.585 80.208 62.0777 80.208C61.5704 80.208 61.1553 79.7922 61.1553 79.284C61.1553 78.7758 61.5704 78.36 62.0777 78.36C62.585 78.36 63.0001 78.7758 63.0001 79.284Z" fill="white"/>
<path d="M4.38213 64.6077C4.38213 65.1159 3.96706 65.5317 3.45974 65.5317C2.95243 65.5317 2.53735 65.1159 2.53735 64.6077C2.53735 64.0995 2.95243 63.6837 3.45974 63.6837C3.96706 63.6837 4.38213 64.0995 4.38213 64.6077Z" fill="white"/>
<path d="M19.0328 64.6077C19.0328 65.1159 18.6177 65.5317 18.1104 65.5317C17.6031 65.5317 17.188 65.1159 17.188 64.6077C17.188 64.0995 17.6031 63.6837 18.1104 63.6837C18.6177 63.6837 19.0328 64.0995 19.0328 64.6077Z" fill="white"/>
<path d="M33.691 64.6077C33.691 65.1159 33.2759 65.5317 32.7686 65.5317C32.2613 65.5317 31.8462 65.1159 31.8462 64.6077C31.8462 64.0995 32.2613 63.6837 32.7686 63.6837C33.2759 63.6837 33.691 64.0995 33.691 64.6077Z" fill="white"/>
<path d="M48.3416 64.6077C48.3416 65.1159 47.9265 65.5317 47.4192 65.5317C46.9119 65.5317 46.4968 65.1159 46.4968 64.6077C46.4968 64.0995 46.9119 63.6837 47.4192 63.6837C47.9265 63.6837 48.3416 64.0995 48.3416 64.6077Z" fill="white"/>
<path d="M63.0001 64.6077C63.0001 65.1159 62.585 65.5317 62.0777 65.5317C61.5704 65.5317 61.1553 65.1159 61.1553 64.6077C61.1553 64.0995 61.5704 63.6837 62.0777 63.6837C62.585 63.6837 63.0001 64.0995 63.0001 64.6077Z" fill="white"/>
<path d="M4.38213 49.9239C4.38213 50.4321 3.96706 50.8479 3.45974 50.8479C2.95243 50.8479 2.53735 50.4321 2.53735 49.9239C2.53735 49.4157 2.95243 48.9999 3.45974 48.9999C3.96706 48.9999 4.38213 49.4157 4.38213 49.9239Z" fill="white"/>
<path d="M19.0328 49.9239C19.0328 50.4321 18.6177 50.8479 18.1104 50.8479C17.6031 50.8479 17.188 50.4321 17.188 49.9239C17.188 49.4157 17.6031 48.9999 18.1104 48.9999C18.6177 48.9999 19.0328 49.4157 19.0328 49.9239Z" fill="white"/>
<path d="M33.691 49.9239C33.691 50.4321 33.2759 50.8479 32.7686 50.8479C32.2613 50.8479 31.8462 50.4321 31.8462 49.9239C31.8462 49.4157 32.2613 48.9999 32.7686 48.9999C33.2759 48.9999 33.691 49.4157 33.691 49.9239Z" fill="white"/>
<path d="M48.3416 49.9239C48.3416 50.4321 47.9265 50.8479 47.4192 50.8479C46.9119 50.8479 46.4968 50.4321 46.4968 49.9239C46.4968 49.4157 46.9119 48.9999 47.4192 48.9999C47.9265 48.9999 48.3416 49.4157 48.3416 49.9239Z" fill="white"/>
<path d="M63.0001 49.9239C63.0001 50.4321 62.585 50.8479 62.0777 50.8479C61.5704 50.8479 61.1553 50.4321 61.1553 49.9239C61.1553 49.4157 61.5704 48.9999 62.0777 48.9999C62.585 48.9999 63.0001 49.4157 63.0001 49.9239Z" fill="white"/>
</g>
<path d="M202 -66C202 -122.291 248.711 -168 306.259 -168L597 -168L597 36L306.259 36C248.711 36 202 -9.69931 202 -66Z" stroke="#0D2CFF" stroke-miterlimit="10"/>
</g>
<defs>
<clipPath id="clip0_3436_221">
<rect width="360" height="147" fill="white"/>
</clipPath>
<clipPath id="clip1_3436_221">
<rect width="82" height="85" fill="white" transform="translate(278 62)"/>
</clipPath>
<clipPath id="clip2_3436_221">
<rect width="110" height="207" fill="white" transform="translate(-144 159) rotate(-90)"/>
</clipPath>
</defs>
</svg>
