<svg width="217" height="150" viewBox="0 0 217 150" fill="none" xmlns="http://www.w3.org/2000/svg">
<g clip-path="url(#clip0_3392_2)">
<path d="M215.235 83.8852C193.678 77.0674 171.191 71.6691 149.936 63.9903C163.758 46.0267 175.907 27.0858 185.965 6.70224C187.034 4.53823 184.293 2.04845 182.481 4.00304C166.638 20.9428 150.586 37.6732 134.279 54.1941C128.565 46.9807 121.967 40.2095 116.485 33.159C108.215 22.5251 100.573 11.4724 92.2798 0.908275C90.3285 -1.55823 86.7744 1.58307 88.0985 4.14265C94.6493 16.7079 102.362 28.6914 109.772 40.7214C114.487 48.4001 118.855 56.8933 124.128 64.479C114.743 67.4807 105.939 72.6696 97.1116 76.9511C85.5897 82.5822 73.9051 87.8177 62.8245 94.2864C61.5701 95.0311 62.3832 97.102 63.8234 96.6599C76.1352 93.0067 88.1914 88.5623 100.573 85.1883C109.818 82.6753 119.319 81.0697 128.356 77.9982C131.933 100.127 130.446 122.977 133.815 145.152C134.14 147.223 137.694 147.223 137.996 145.152C141.039 125.141 140.087 104.571 142.502 84.5135C142.874 84.5368 143.199 84.6298 143.618 84.6298C167.126 84.5135 191.053 87.6315 214.561 88.795C217.465 88.9346 217.836 84.6996 215.235 83.8852Z" fill="#0D2CFF"/>
<path d="M183.712 107.923C172.538 95.6367 160.273 83.9324 149.611 71.2276C164.989 64.9217 179.647 57.3826 193.515 48.1681C194.978 47.1908 194.165 44.608 192.284 45.1664C175.999 50.0762 159.669 54.7765 143.269 59.2208C142.293 52.5427 140.597 45.8179 139.715 39.3026C138.367 29.5297 137.601 19.687 136.207 9.91401C135.882 7.63366 132.467 8.30845 132.374 10.4259C131.909 20.8039 132.397 31.2516 132.676 41.6295C132.862 48.2379 132.49 55.2419 133.048 62.0131C125.986 60.4541 118.506 60.5006 111.328 59.9655C101.943 59.2674 92.628 58.3134 83.1967 58.3134C82.1282 58.3134 81.8959 59.9422 82.9644 60.1981C92.117 62.432 101.409 64.0375 110.492 66.4807C117.275 68.2957 123.895 70.7855 130.748 72.1584C124.894 87.5158 115.533 101.454 109.516 116.765C108.959 118.208 111.212 119.511 112.164 118.301C121.456 106.736 128.402 93.3331 137.299 81.4892C137.531 81.6521 137.717 81.815 137.972 81.9778C152.909 90.5873 166.963 101.384 181.435 110.785C183.224 111.948 185.013 109.389 183.665 107.923H183.712Z" fill="#0D2CFF"/>
</g>
<path d="M202.852 39.0066C204.609 43.8911 203.71 49.5595 200.41 55.6986C197.111 61.8374 191.446 68.3698 183.827 74.9015C168.591 87.9613 145.66 100.914 118.642 110.631C91.6241 120.349 65.6965 124.969 45.6329 124.606C35.5984 124.424 27.0709 122.995 20.617 120.365C14.1628 117.734 9.85993 113.936 8.10312 109.052C6.3463 104.167 7.24452 98.4988 10.5445 92.3597C13.8443 86.221 19.5085 79.6885 27.1284 73.1568C42.3639 60.097 65.2949 47.1448 92.3129 37.4272C119.331 27.7097 145.258 23.089 165.322 23.4528C175.357 23.6347 183.884 25.0629 190.338 27.6936C196.792 30.3244 201.095 34.1221 202.852 39.0066Z" stroke="black" stroke-width="1.46711"/>
<path d="M25.3831 60.9153C33.1135 64.478 36.1385 68.2424 36.1385 74.4268C36.1385 76.5107 35.8024 80.4767 33.5841 83.7706C30.8952 87.6022 26.3914 89.6188 20.0726 89.6188C14.8293 89.6188 10.7288 88.2072 7.8383 85.5856C6.62832 84.3756 4.74612 82.0228 3.87224 78.2584C3.80502 77.9223 4.00668 77.6534 4.27557 77.5862L15.031 75.3679C15.2999 75.3007 15.636 75.4351 15.7032 75.7712C16.6443 79.0651 19.3332 79.2667 19.9381 79.2667C22.5598 79.2667 24.2403 77.0484 24.2403 74.9646C24.2403 72.6791 22.4253 71.9396 15.9049 69.1163L15.3671 68.8474C12.2749 67.5702 4.0739 64.2092 4.0739 55.3359C4.0739 45.8577 12.4094 40.7489 20.2743 40.7489C21.7531 40.7489 24.5092 40.9506 27.3325 42.0933C29.2819 42.9672 33.5169 45.3872 34.3907 50.3616C34.458 50.6304 34.2563 50.9665 33.9874 51.0338L23.9714 53.521C23.7025 53.5882 23.4337 53.4537 23.3664 53.1849C22.8287 52.0421 21.8876 51.101 19.8709 51.101C17.9887 51.101 16.0393 52.3782 16.0393 54.5965C16.0393 56.6131 17.2493 57.1509 25.3831 60.9153ZM76.4198 41.6228C76.6887 41.6228 76.9576 41.8917 76.9576 42.2278V88.14C76.9576 88.4761 76.6887 88.6777 76.4198 88.6777H66.8744C66.6727 88.6777 66.5383 88.6105 66.4039 88.4761L50.4052 66.0914C50.1363 65.6208 49.3969 65.8897 49.3969 66.4275L49.5985 88.14C49.5985 88.4761 49.3969 88.6777 49.0607 88.6777H38.7087C38.3726 88.6777 38.1709 88.4761 38.1709 88.14V42.2278C38.1709 41.8917 38.3726 41.6228 38.7087 41.6228H48.1196C48.3213 41.6228 48.523 41.7572 48.5902 41.8917L64.6561 65.9569C64.9922 66.4275 65.7316 66.2258 65.6644 65.688L65.4628 42.2278C65.4628 41.8917 65.7316 41.6228 66.0678 41.6228H76.4198ZM124.008 88.14C124.142 88.4761 123.873 88.8794 123.47 88.8794H111.841C111.505 88.8794 111.236 88.6777 111.169 88.4088L108.681 80.9473C108.614 80.7456 108.412 80.5439 108.144 80.5439H93.7582C93.4893 80.5439 93.2877 80.7456 93.2205 80.9473L90.7333 88.4761C90.666 88.745 90.3972 88.8794 90.1955 88.8794H78.4318C78.0284 88.8794 77.7595 88.4761 77.894 88.0727L95.1699 42.2278C95.3043 41.8917 95.5732 41.69 95.9093 41.69H106.06C106.329 41.69 106.598 41.8917 106.732 42.1606L124.008 88.14ZM104.581 70.9313C104.984 70.9313 105.253 70.528 105.119 70.1246L101.556 59.1676C101.354 58.6298 100.548 58.6298 100.413 59.1676L96.7832 70.1919C96.6487 70.528 96.9176 70.9313 97.321 70.9313H104.581ZM163.215 79.6029C163.484 79.8045 163.551 80.2078 163.35 80.4767C158.779 86.4594 151.72 90.0222 144.259 90.0222C130.949 90.0222 120.126 78.9306 120.126 65.2847C120.126 51.6388 130.949 40.5472 144.259 40.5472C148.225 40.5472 151.922 41.4211 155.418 43.3033C158.375 44.8494 160.997 47.0677 163.148 49.7566C163.35 50.0254 163.282 50.3616 163.014 50.5632L155.014 56.4115C154.745 56.6131 154.409 56.6131 154.208 56.3443C151.72 53.3865 148.158 51.7732 144.259 51.7732C136.999 51.7732 131.016 57.8231 131.016 65.2847C131.016 72.7463 136.999 78.7962 144.259 78.7962C148.225 78.7962 151.989 76.9812 154.476 73.889C154.678 73.6201 155.014 73.6201 155.283 73.7546L163.215 79.6029ZM203.249 87.9383C203.518 88.2744 203.249 88.8122 202.779 88.8122H189.536C189.334 88.8122 189.133 88.6777 189.066 88.5433L177.974 70.1919C177.638 69.6541 176.898 69.8558 176.898 70.4607V88.2072C176.898 88.5433 176.63 88.8122 176.293 88.8122H165.471C165.135 88.8122 164.933 88.5433 164.933 88.2072V42.295C164.933 42.0261 165.135 41.7572 165.471 41.7572H176.293C176.63 41.7572 176.898 42.0261 176.898 42.295V59.7053C176.898 60.3103 177.638 60.512 177.974 60.0414L189.469 42.0261C189.603 41.8244 189.805 41.7572 190.007 41.7572H201.165C201.636 41.7572 201.905 42.2278 201.636 42.6311L187.318 64.2092C187.183 64.4108 187.183 64.6797 187.318 64.8814L203.249 87.9383Z" fill="white"/>
<path d="M31.0969 103.18L31.9708 112.792C31.9708 113.129 31.7019 113.465 31.3658 113.465H17.7871C17.451 113.465 17.1821 113.734 17.1821 114.07V119.918C17.1821 120.187 17.451 120.456 17.7871 120.456H27.803C28.0719 120.456 28.3408 120.725 28.3408 121.061L28.2736 130.741C28.2736 131.009 28.0047 131.278 27.6686 131.278H17.7871C17.451 131.278 17.1821 131.547 17.1821 131.883V149.092C17.1821 149.428 16.9132 149.697 16.5771 149.697H5.75444C5.41833 149.697 5.21667 149.428 5.21667 149.092V103.18C5.21667 102.911 5.41833 102.642 5.75444 102.642H30.4919C30.828 102.642 31.0969 102.844 31.0969 103.18ZM60.6002 133.295L67.3896 148.89C67.5913 149.226 67.3224 149.697 66.919 149.697H55.0881C54.8864 149.697 54.6848 149.562 54.6175 149.294L48.4332 135.244C48.366 135.043 48.1643 134.908 47.8954 134.908H46.0132C45.7443 134.908 45.4754 135.11 45.4754 135.446V148.958C45.4754 149.294 45.2065 149.495 44.8704 149.495H34.0478C33.7117 149.495 33.51 149.294 33.51 148.958V103.045C33.51 102.709 33.7117 102.44 34.0478 102.44H48.5676C56.9703 102.44 60.1969 103.785 62.7513 105.869C66.1796 108.826 68.1963 113.397 68.1963 118.439C68.1963 123.279 66.1796 128.253 63.2891 130.808C62.4152 131.547 61.6758 132.152 60.8691 132.623C60.6002 132.757 60.533 133.026 60.6002 133.295ZM54.0125 123.346C56.2309 122.338 56.7014 120.254 56.7014 118.573C56.7014 116.288 55.7603 114.809 53.8781 114.002C52.332 113.263 50.3826 113.263 49.1054 113.263H46.0132C45.7443 113.263 45.4754 113.532 45.4754 113.868V123.481C45.4754 123.817 45.7443 124.018 46.0132 124.018H49.5759C50.6515 124.018 52.4665 124.018 54.0125 123.346ZM81.6321 102.575C81.9682 102.575 82.2371 102.844 82.2371 103.113V149.025C82.2371 149.361 81.9682 149.63 81.6321 149.63H70.8095C70.4734 149.63 70.2717 149.361 70.2717 149.025V103.113C70.2717 102.844 70.4734 102.575 70.8095 102.575H81.6321ZM111.11 104.457C119.647 108.221 125.092 116.758 125.092 126.169C125.092 130.673 123.815 135.11 121.462 138.874C119.109 142.571 115.815 145.529 111.984 147.411C109.496 148.689 107.278 149.697 100.22 149.697H86.1706C85.8345 149.697 85.6328 149.428 85.6328 149.159V103.18C85.6328 102.844 85.8345 102.575 86.1706 102.575H99.8838C106.001 102.575 108.891 103.516 111.11 104.457ZM109.967 135.11C112.118 132.892 113.261 129.799 113.261 126.102C113.194 113.868 100.556 113.397 97.6655 113.465C97.3294 113.465 97.0605 113.734 97.0605 114.07V138.135C97.0605 138.471 97.3294 138.74 97.6655 138.74H98.3377C103.312 138.74 107.816 137.328 109.967 135.11ZM167.203 149.025C167.337 149.361 167.068 149.764 166.665 149.764H155.036C154.7 149.764 154.431 149.562 154.364 149.294L151.876 141.832C151.809 141.63 151.607 141.429 151.339 141.429H136.953C136.684 141.429 136.483 141.63 136.415 141.832L133.928 149.361C133.861 149.63 133.592 149.764 133.39 149.764H121.627C121.223 149.764 120.955 149.361 121.089 148.958L138.365 103.113C138.499 102.776 138.768 102.575 139.104 102.575H149.255C149.524 102.575 149.792 102.776 149.927 103.045L167.203 149.025ZM147.776 131.816C148.179 131.816 148.448 131.413 148.314 131.009L144.751 120.052C144.549 119.515 143.743 119.515 143.608 120.052L139.978 131.077C139.844 131.413 140.113 131.816 140.516 131.816H147.776ZM199.307 102.508C199.777 102.508 200.046 102.978 199.845 103.314L186.736 130.606C186.669 130.673 186.669 130.741 186.669 130.875V149.025C186.669 149.361 186.4 149.562 186.064 149.562H175.242C174.905 149.562 174.637 149.361 174.637 149.025V130.875C174.637 130.741 174.637 130.673 174.637 130.606L161.327 103.314C161.192 102.978 161.461 102.508 161.864 102.508H173.561C173.83 102.508 174.032 102.642 174.099 102.844L180.081 117.095C180.283 117.565 180.955 117.565 181.157 117.095L187.207 102.844C187.274 102.642 187.476 102.508 187.745 102.508H199.307Z" fill="white"/>
<path d="M28.1628 98.045L29.0367 107.658C29.0367 107.994 28.7678 108.33 28.4317 108.33H14.853C14.5169 108.33 14.248 108.599 14.248 108.935V114.783C14.248 115.052 14.5169 115.321 14.853 115.321H24.869C25.1378 115.321 25.4067 115.59 25.4067 115.926L25.3395 125.606C25.3395 125.875 25.0706 126.144 24.7345 126.144H14.853C14.5169 126.144 14.248 126.412 14.248 126.749V143.957C14.248 144.293 13.9791 144.562 13.643 144.562H2.82036C2.48425 144.562 2.28258 144.293 2.28258 143.957V98.045C2.28258 97.7761 2.48425 97.5072 2.82036 97.5072H27.5578C27.8939 97.5072 28.1628 97.7089 28.1628 98.045ZM57.6662 128.16L64.4555 143.756C64.6572 144.092 64.3883 144.562 63.985 144.562H52.154C51.9523 144.562 51.7507 144.428 51.6835 144.159L45.4991 130.11C45.4319 129.908 45.2302 129.773 44.9613 129.773H43.0791C42.8102 129.773 42.5414 129.975 42.5414 130.311V143.823C42.5414 144.159 42.2725 144.361 41.9364 144.361H31.1137C30.7776 144.361 30.576 144.159 30.576 143.823V97.9106C30.576 97.5744 30.7776 97.3056 31.1137 97.3056H45.6335C54.0362 97.3056 57.2628 98.65 59.8172 100.734C63.2455 103.692 65.2622 108.263 65.2622 113.304C65.2622 118.144 63.2455 123.119 60.355 125.673C59.4811 126.412 58.7417 127.017 57.935 127.488C57.6662 127.622 57.5989 127.891 57.6662 128.16ZM51.0785 118.211C53.2968 117.203 53.7673 115.119 53.7673 113.439C53.7673 111.153 52.8262 109.674 50.944 108.868C49.3979 108.128 47.4485 108.128 46.1713 108.128H43.0791C42.8102 108.128 42.5414 108.397 42.5414 108.733V118.346C42.5414 118.682 42.8102 118.884 43.0791 118.884H46.6419C47.7174 118.884 49.5324 118.884 51.0785 118.211ZM78.698 97.44C79.0341 97.44 79.303 97.7089 79.303 97.9778V143.89C79.303 144.226 79.0341 144.495 78.698 144.495H67.8754C67.5393 144.495 67.3376 144.226 67.3376 143.89V97.9778C67.3376 97.7089 67.5393 97.44 67.8754 97.44H78.698ZM108.176 99.3222C116.713 103.087 122.158 111.624 122.158 121.035C122.158 125.539 120.88 129.975 118.528 133.74C116.175 137.437 112.881 140.394 109.05 142.277C106.562 143.554 104.344 144.562 97.2858 144.562H83.2365C82.9004 144.562 82.6988 144.293 82.6988 144.024V98.045C82.6988 97.7089 82.9004 97.44 83.2365 97.44H96.9497C103.067 97.44 105.957 98.3811 108.176 99.3222ZM107.033 129.975C109.184 127.757 110.327 124.665 110.327 120.967C110.26 108.733 97.6219 108.263 94.7314 108.33C94.3953 108.33 94.1264 108.599 94.1264 108.935V133C94.1264 133.336 94.3953 133.605 94.7314 133.605H95.4036C100.378 133.605 104.882 132.193 107.033 129.975ZM164.269 143.89C164.403 144.226 164.134 144.629 163.731 144.629H152.102C151.766 144.629 151.497 144.428 151.429 144.159L148.942 136.697C148.875 136.496 148.673 136.294 148.404 136.294H134.019C133.75 136.294 133.549 136.496 133.481 136.697L130.994 144.226C130.927 144.495 130.658 144.629 130.456 144.629H118.693C118.289 144.629 118.02 144.226 118.155 143.823L135.431 97.9778C135.565 97.6417 135.834 97.44 136.17 97.44H146.321C146.59 97.44 146.858 97.6417 146.993 97.9106L164.269 143.89ZM144.842 126.681C145.245 126.681 145.514 126.278 145.38 125.875L141.817 114.918C141.615 114.38 140.808 114.38 140.674 114.918L137.044 125.942C136.91 126.278 137.179 126.681 137.582 126.681H144.842ZM196.373 97.3728C196.843 97.3728 197.112 97.8433 196.91 98.1794L183.802 125.471C183.735 125.539 183.735 125.606 183.735 125.74V143.89C183.735 144.226 183.466 144.428 183.13 144.428H172.307C171.971 144.428 171.702 144.226 171.702 143.89V125.74C171.702 125.606 171.702 125.539 171.702 125.471L158.393 98.1794C158.258 97.8433 158.527 97.3728 158.93 97.3728H170.627C170.896 97.3728 171.097 97.5072 171.165 97.7089L177.147 111.96C177.349 112.43 178.021 112.43 178.223 111.96L184.273 97.7089C184.34 97.5072 184.542 97.3728 184.811 97.3728H196.373Z" fill="#FF29D2"/>
<path d="M22.449 58.7141C30.1795 62.2769 33.2044 66.0413 33.2044 72.2256C33.2044 74.3095 32.8683 78.2756 30.65 81.5694C27.9611 85.401 23.4573 87.4177 17.1385 87.4177C11.8952 87.4177 7.79474 86.006 4.90422 83.3844C3.69423 82.1744 1.81204 79.8216 0.938158 76.0573C0.870936 75.7211 1.0726 75.4523 1.34149 75.385L12.0969 73.1667C12.3658 73.0995 12.7019 73.234 12.7691 73.5701C13.7102 76.8639 16.3991 77.0656 17.0041 77.0656C19.6257 77.0656 21.3062 74.8473 21.3062 72.7634C21.3062 70.4779 19.4913 69.7384 12.9708 66.9151L12.433 66.6463C9.34083 65.3691 1.13982 62.008 1.13982 53.1348C1.13982 43.6566 9.47527 38.5477 17.3402 38.5477C18.819 38.5477 21.5751 38.7494 24.3984 39.8922C26.3478 40.766 30.5828 43.186 31.4567 48.1604C31.5239 48.4293 31.3222 48.7654 31.0533 48.8326L21.0373 51.3198C20.7685 51.387 20.4996 51.2526 20.4324 50.9837C19.8946 49.8409 18.9535 48.8998 16.9368 48.8998C15.0546 48.8998 13.1052 50.177 13.1052 52.3953C13.1052 54.412 14.3152 54.9497 22.449 58.7141ZM73.4858 39.4216C73.7546 39.4216 74.0235 39.6905 74.0235 40.0266V85.9388C74.0235 86.2749 73.7546 86.4766 73.4858 86.4766H63.9403C63.7387 86.4766 63.6042 86.4093 63.4698 86.2749L47.4711 63.8902C47.2022 63.4196 46.4628 63.6885 46.4628 64.2263L46.6644 85.9388C46.6644 86.2749 46.4628 86.4766 46.1267 86.4766H35.7746C35.4385 86.4766 35.2368 86.2749 35.2368 85.9388V40.0266C35.2368 39.6905 35.4385 39.4216 35.7746 39.4216H45.1856C45.3872 39.4216 45.5889 39.5561 45.6561 39.6905L61.722 63.7557C62.0581 64.2263 62.7976 64.0246 62.7303 63.4869L62.5287 40.0266C62.5287 39.6905 62.7976 39.4216 63.1337 39.4216H73.4858ZM121.074 85.9388C121.208 86.2749 120.939 86.6782 120.536 86.6782H108.907C108.571 86.6782 108.302 86.4766 108.234 86.2077L105.747 78.7461C105.68 78.5444 105.478 78.3428 105.21 78.3428H90.8241C90.5553 78.3428 90.3536 78.5444 90.2864 78.7461L87.7992 86.2749C87.732 86.5438 87.4631 86.6782 87.2614 86.6782H75.4977C75.0943 86.6782 74.8255 86.2749 74.9599 85.8716L92.2358 40.0266C92.3702 39.6905 92.6391 39.4888 92.9752 39.4888H103.126C103.395 39.4888 103.663 39.6905 103.798 39.9594L121.074 85.9388ZM101.647 68.7301C102.05 68.7301 102.319 68.3268 102.185 67.9235L98.6218 56.9664C98.4202 56.4286 97.6135 56.4286 97.4791 56.9664L93.8491 67.9907C93.7147 68.3268 93.9835 68.7301 94.3869 68.7301H101.647ZM160.281 77.4017C160.55 77.6033 160.617 78.0067 160.416 78.2756C155.845 84.2583 148.786 87.821 141.325 87.821C128.015 87.821 117.192 76.7295 117.192 63.0835C117.192 49.4376 128.015 38.3461 141.325 38.3461C145.291 38.3461 148.988 39.2199 152.483 41.1021C155.441 42.6482 158.063 44.8665 160.214 47.5554C160.416 47.8243 160.348 48.1604 160.079 48.362L152.08 54.2103C151.811 54.412 151.475 54.412 151.273 54.1431C148.786 51.1853 145.224 49.572 141.325 49.572C134.065 49.572 128.082 55.622 128.082 63.0835C128.082 70.5451 134.065 76.595 141.325 76.595C145.291 76.595 149.055 74.78 151.542 71.6879C151.744 71.419 152.08 71.419 152.349 71.5534L160.281 77.4017ZM200.315 85.7371C200.584 86.0732 200.315 86.611 199.845 86.611H186.602C186.4 86.611 186.199 86.4766 186.131 86.3421L175.04 67.9907C174.704 67.4529 173.964 67.6546 173.964 68.2596V86.006C173.964 86.3421 173.695 86.611 173.359 86.611H162.537C162.201 86.611 161.999 86.3421 161.999 86.006V40.0938C161.999 39.8249 162.201 39.5561 162.537 39.5561H173.359C173.695 39.5561 173.964 39.8249 173.964 40.0938V57.5042C173.964 58.1091 174.704 58.3108 175.04 57.8403L186.535 39.8249C186.669 39.6233 186.871 39.5561 187.073 39.5561H198.231C198.702 39.5561 198.971 40.0266 198.702 40.4299L184.384 62.008C184.249 62.2096 184.249 62.4785 184.384 62.6802L200.315 85.7371Z" fill="#FF29D2"/>
<defs>
<clipPath id="clip0_3392_2">
<rect width="154.78" height="146.711" fill="white" transform="translate(62.2205)"/>
</clipPath>
</defs>
</svg>
