<svg width="304" height="222" viewBox="0 0 304 222" fill="none" xmlns="http://www.w3.org/2000/svg">
<g clip-path="url(#clip0_3130_2)">
<path d="M301.594 114.354C272.206 105.06 241.552 97.7006 212.576 87.2327C231.419 62.7442 247.981 36.9234 261.693 9.13597C263.149 6.18593 259.413 2.7918 256.942 5.45636C235.345 28.5491 213.463 51.3564 191.233 73.8783C183.442 64.0448 174.449 54.814 166.975 45.2026C155.702 30.7062 145.283 15.6388 133.978 1.23748C131.318 -2.12493 126.473 2.15739 128.278 5.64668C137.208 22.7759 147.722 39.1122 157.823 55.5119C164.252 65.9798 170.205 77.5579 177.394 87.8989C164.6 91.9909 152.598 99.0646 140.565 104.901C124.858 112.578 108.929 119.715 93.8236 128.533C92.1136 129.548 93.2219 132.372 95.1853 131.769C111.969 126.789 128.404 120.73 145.283 116.13C157.887 112.705 170.839 110.516 183.157 106.329C188.034 136.495 186.007 167.645 190.599 197.875C191.043 200.698 195.888 200.698 196.299 197.875C200.448 170.595 199.149 142.554 202.443 115.211C202.95 115.242 203.393 115.369 203.963 115.369C236.01 115.211 268.628 119.461 300.675 121.047C304.634 121.237 305.14 115.464 301.594 114.354Z" fill="#0D2CFF"/>
<path d="M258.621 147.122C243.389 130.373 226.668 114.418 212.133 97.0983C233.097 88.5019 253.079 78.2244 271.984 65.6629C273.979 64.3306 272.871 60.8096 270.306 61.5709C248.107 68.264 225.845 74.6716 203.488 80.7303C202.158 71.6264 199.846 62.4591 198.643 53.5773C196.806 40.2545 195.761 26.8366 193.861 13.5138C193.417 10.4052 188.762 11.3251 188.636 14.2117C188.002 28.3592 188.667 42.6018 189.047 56.7493C189.301 65.7581 188.794 75.306 189.554 84.5368C179.927 82.4115 169.73 82.475 159.945 81.7454C147.151 80.7938 134.453 79.4932 121.596 79.4932C120.139 79.4932 119.822 81.7137 121.279 82.0626C133.756 85.1078 146.423 87.2965 158.805 90.6272C168.052 93.1014 177.077 96.4956 186.419 98.3671C178.439 119.303 165.677 138.304 157.475 159.176C156.715 161.143 159.787 162.919 161.085 161.27C173.752 145.504 183.221 127.233 195.349 111.087C195.666 111.309 195.919 111.531 196.267 111.753C216.63 123.49 235.788 138.209 255.517 151.024C257.956 152.61 260.394 149.12 258.557 147.122H258.621Z" fill="#0D2CFF"/>
</g>
<path d="M284.713 53.1758C287.108 59.8346 285.883 67.5619 281.385 75.9308C276.886 84.2994 269.165 93.2047 258.777 102.109C238.007 119.912 206.747 137.569 169.916 150.816C133.084 164.064 97.7388 170.363 70.3875 169.867C56.7081 169.619 45.0833 167.672 36.2851 164.086C27.4865 160.499 21.6207 155.322 19.2258 148.663C16.8308 142.005 18.0553 134.277 22.5539 125.908C27.0523 117.54 34.774 108.635 45.1616 99.7304C65.9311 81.9269 97.1912 64.2701 134.023 51.0228C170.855 37.7756 206.2 31.4765 233.551 31.9725C247.23 32.2205 258.855 34.1674 267.653 37.7536C276.452 41.34 282.318 46.5171 284.713 53.1758Z" stroke="black" stroke-width="2"/>
<path d="M42.7824 83.1535C53.3208 88.0103 57.4445 93.142 57.4445 101.573C57.4445 104.414 56.9863 109.82 53.9622 114.31C50.2967 119.534 44.157 122.283 35.543 122.283C28.3952 122.283 22.8053 120.359 18.8648 116.785C17.2154 115.135 14.6495 111.928 13.4582 106.796C13.3666 106.338 13.6415 105.971 14.008 105.88L28.6701 102.856C29.0367 102.764 29.4949 102.947 29.5865 103.405C30.8694 107.896 34.535 108.171 35.3597 108.171C38.9336 108.171 41.2245 105.147 41.2245 102.306C41.2245 99.1901 38.7503 98.1821 29.8614 94.3333L29.1283 93.9668C24.913 92.2256 13.7331 87.6437 13.7331 75.5475C13.7331 62.6265 25.0962 55.662 35.8179 55.662C37.8339 55.662 41.5911 55.937 45.4399 57.4948C48.0974 58.6861 53.8706 61.9851 55.0619 68.7663C55.1535 69.1328 54.8786 69.591 54.5121 69.6827L40.858 73.0733C40.4914 73.1649 40.1249 72.9816 40.0332 72.6151C39.3001 71.0572 38.0172 69.7743 35.2681 69.7743C32.7022 69.7743 30.0447 71.5154 30.0447 74.5395C30.0447 77.2886 31.6942 78.0217 42.7824 83.1535ZM112.357 56.8533C112.724 56.8533 113.09 57.2199 113.09 57.6781V120.267C113.09 120.725 112.724 121 112.357 121H99.3446C99.0696 121 98.8864 120.908 98.7031 120.725L76.8932 90.2096C76.5267 89.5681 75.5187 89.9347 75.5187 90.6678L75.7936 120.267C75.7936 120.725 75.5187 121 75.0605 121H60.9482C60.49 121 60.2151 120.725 60.2151 120.267V57.6781C60.2151 57.2199 60.49 56.8533 60.9482 56.8533H73.7775C74.0524 56.8533 74.3274 57.0366 74.419 57.2199L96.3205 90.0263C96.7787 90.6678 97.7867 90.3929 97.6951 89.6598L97.4202 57.6781C97.4202 57.2199 97.7867 56.8533 98.2449 56.8533H112.357ZM177.23 120.267C177.414 120.725 177.047 121.275 176.497 121.275H160.644C160.186 121.275 159.819 121 159.728 120.633L156.337 110.462C156.245 110.187 155.97 109.912 155.604 109.912H135.993C135.627 109.912 135.352 110.187 135.26 110.462L131.87 120.725C131.778 121.092 131.411 121.275 131.137 121.275H115.1C114.55 121.275 114.183 120.725 114.367 120.175L137.918 57.6781C138.101 57.2199 138.468 56.945 138.926 56.945H152.763C153.13 56.945 153.496 57.2199 153.68 57.5864L177.23 120.267ZM150.747 96.8075C151.297 96.8075 151.663 96.2577 151.48 95.7079L146.623 80.7709C146.348 80.0378 145.249 80.0378 145.066 80.7709L140.117 95.7995C139.934 96.2577 140.3 96.8075 140.85 96.8075H150.747ZM230.679 108.629C231.046 108.904 231.137 109.454 230.862 109.82C224.631 117.976 215.009 122.833 204.837 122.833C186.693 122.833 171.939 107.712 171.939 89.1099C171.939 70.5074 186.693 55.3871 204.837 55.3871C210.244 55.3871 215.284 56.5784 220.049 59.1443C224.081 61.252 227.655 64.276 230.587 67.9415C230.862 68.3081 230.771 68.7663 230.404 69.0412L219.499 77.0137C219.133 77.2886 218.675 77.2886 218.4 76.9221C215.009 72.89 210.152 70.6907 204.837 70.6907C194.94 70.6907 186.784 78.9381 186.784 89.1099C186.784 99.2818 194.94 107.529 204.837 107.529C210.244 107.529 215.376 105.055 218.766 100.84C219.041 100.473 219.499 100.473 219.866 100.656L230.679 108.629ZM285.255 119.992C285.621 120.45 285.255 121.183 284.613 121.183H266.56C266.286 121.183 266.011 121 265.919 120.817L250.799 95.7995C250.341 95.0664 249.332 95.3413 249.332 96.1661V120.359C249.332 120.817 248.966 121.183 248.508 121.183H233.754C233.296 121.183 233.021 120.817 233.021 120.359V57.7697C233.021 57.4032 233.296 57.0366 233.754 57.0366H248.508C248.966 57.0366 249.332 57.4032 249.332 57.7697V81.504C249.332 82.3287 250.341 82.6036 250.799 81.9622L266.469 57.4032C266.652 57.1282 266.927 57.0366 267.202 57.0366H282.414C283.055 57.0366 283.422 57.6781 283.055 58.2279L263.536 87.6437C263.353 87.9186 263.353 88.2852 263.536 88.5601L285.255 119.992Z" fill="white"/>
<path d="M50.5716 140.77L51.7629 153.874C51.7629 154.332 51.3964 154.79 50.9382 154.79H32.4273C31.9691 154.79 31.6025 155.157 31.6025 155.615V163.588C31.6025 163.954 31.9691 164.321 32.4273 164.321H46.0814C46.4479 164.321 46.8145 164.687 46.8145 165.145L46.7228 178.341C46.7228 178.708 46.3563 179.074 45.8981 179.074H32.4273C31.9691 179.074 31.6025 179.441 31.6025 179.899V203.359C31.6025 203.817 31.236 204.183 30.7778 204.183H16.0241C15.5659 204.183 15.291 203.817 15.291 203.359V140.77C15.291 140.403 15.5659 140.037 16.0241 140.037H49.7469C50.2051 140.037 50.5716 140.312 50.5716 140.77ZM90.7914 181.824L100.047 203.084C100.322 203.542 99.9552 204.183 99.4054 204.183H83.2771C83.0022 204.183 82.7273 204 82.6356 203.633L74.2049 184.481C74.1133 184.206 73.8384 184.023 73.4718 184.023H70.906C70.5394 184.023 70.1729 184.298 70.1729 184.756V203.175C70.1729 203.633 69.8063 203.908 69.3481 203.908H54.5944C54.1362 203.908 53.8613 203.633 53.8613 203.175V140.586C53.8613 140.128 54.1362 139.762 54.5944 139.762H74.3882C85.843 139.762 90.2416 141.594 93.7239 144.435C98.3974 148.467 101.147 154.699 101.147 161.572C101.147 168.17 98.3974 174.951 94.457 178.433C93.2657 179.441 92.2576 180.266 91.158 180.907C90.7914 181.09 90.6998 181.457 90.7914 181.824ZM81.8109 168.261C84.835 166.887 85.4764 164.046 85.4764 161.755C85.4764 158.639 84.1935 156.623 81.6276 155.523C79.52 154.515 76.8624 154.515 75.1213 154.515H70.906C70.5394 154.515 70.1729 154.882 70.1729 155.34V168.444C70.1729 168.903 70.5394 169.178 70.906 169.178H75.7628C77.229 169.178 79.7032 169.178 81.8109 168.261ZM119.463 139.945C119.921 139.945 120.287 140.312 120.287 140.678V203.267C120.287 203.725 119.921 204.092 119.463 204.092H104.709C104.251 204.092 103.976 203.725 103.976 203.267V140.678C103.976 140.312 104.251 139.945 104.709 139.945H119.463ZM159.647 142.511C171.285 147.643 178.708 159.281 178.708 172.11C178.708 178.25 176.967 184.298 173.76 189.43C170.552 194.47 166.062 198.502 160.839 201.068C157.448 202.809 154.424 204.183 144.802 204.183H125.65C125.192 204.183 124.917 203.817 124.917 203.45V140.77C124.917 140.312 125.192 139.945 125.65 139.945H144.344C152.683 139.945 156.623 141.228 159.647 142.511ZM158.09 184.298C161.022 181.274 162.58 177.058 162.58 172.018C162.488 155.34 145.26 154.699 141.32 154.79C140.862 154.79 140.495 155.157 140.495 155.615V188.422C140.495 188.88 140.862 189.246 141.32 189.246H142.236C149.017 189.246 155.157 187.322 158.09 184.298ZM236.115 203.267C236.298 203.725 235.932 204.275 235.382 204.275H219.529C219.07 204.275 218.704 204 218.612 203.633L215.222 193.462C215.13 193.187 214.855 192.912 214.489 192.912H194.878C194.511 192.912 194.237 193.187 194.145 193.462L190.754 203.725C190.663 204.092 190.296 204.275 190.021 204.275H173.985C173.435 204.275 173.068 203.725 173.251 203.175L196.802 140.678C196.986 140.22 197.352 139.945 197.81 139.945H211.648C212.014 139.945 212.381 140.22 212.564 140.586L236.115 203.267ZM209.632 179.808C210.182 179.808 210.548 179.258 210.365 178.708L205.508 163.771C205.233 163.038 204.133 163.038 203.95 163.771L199.002 178.8C198.818 179.258 199.185 179.808 199.735 179.808H209.632ZM279.88 139.853C280.522 139.853 280.888 140.495 280.613 140.953L262.744 178.158C262.652 178.25 262.652 178.341 262.652 178.525V203.267C262.652 203.725 262.286 204 261.827 204H247.074C246.616 204 246.249 203.725 246.249 203.267V178.525C246.249 178.341 246.249 178.25 246.249 178.158L228.105 140.953C227.921 140.495 228.288 139.853 228.838 139.853H244.783C245.149 139.853 245.424 140.037 245.516 140.312L253.672 159.739C253.947 160.38 254.863 160.38 255.138 159.739L263.385 140.312C263.477 140.037 263.752 139.853 264.118 139.853H279.88Z" fill="white"/>
<path d="M46.5716 133.77L47.7629 146.874C47.7629 147.332 47.3964 147.79 46.9382 147.79H28.4273C27.9691 147.79 27.6025 148.157 27.6025 148.615V156.588C27.6025 156.954 27.9691 157.321 28.4273 157.321H42.0814C42.4479 157.321 42.8145 157.687 42.8145 158.145L42.7228 171.341C42.7228 171.708 42.3563 172.074 41.8981 172.074H28.4273C27.9691 172.074 27.6025 172.441 27.6025 172.899V196.359C27.6025 196.817 27.236 197.183 26.7778 197.183H12.0241C11.5659 197.183 11.291 196.817 11.291 196.359V133.77C11.291 133.403 11.5659 133.037 12.0241 133.037H45.7469C46.2051 133.037 46.5716 133.312 46.5716 133.77ZM86.7914 174.824L96.0469 196.084C96.3218 196.542 95.9552 197.183 95.4054 197.183H79.2771C79.0022 197.183 78.7273 197 78.6356 196.633L70.2049 177.481C70.1133 177.206 69.8384 177.023 69.4718 177.023H66.906C66.5394 177.023 66.1729 177.298 66.1729 177.756V196.175C66.1729 196.633 65.8063 196.908 65.3481 196.908H50.5944C50.1362 196.908 49.8613 196.633 49.8613 196.175V133.586C49.8613 133.128 50.1362 132.762 50.5944 132.762H70.3882C81.843 132.762 86.2416 134.594 89.7239 137.435C94.3974 141.467 97.1465 147.699 97.1465 154.572C97.1465 161.17 94.3974 167.951 90.457 171.433C89.2657 172.441 88.2576 173.266 87.158 173.907C86.7914 174.09 86.6998 174.457 86.7914 174.824ZM77.8109 161.261C80.835 159.887 81.4764 157.046 81.4764 154.755C81.4764 151.639 80.1935 149.623 77.6276 148.523C75.52 147.515 72.8624 147.515 71.1213 147.515H66.906C66.5394 147.515 66.1729 147.882 66.1729 148.34V161.444C66.1729 161.903 66.5394 162.178 66.906 162.178H71.7628C73.229 162.178 75.7032 162.178 77.8109 161.261ZM115.463 132.945C115.921 132.945 116.287 133.312 116.287 133.678V196.267C116.287 196.725 115.921 197.092 115.463 197.092H100.709C100.251 197.092 99.9759 196.725 99.9759 196.267V133.678C99.9759 133.312 100.251 132.945 100.709 132.945H115.463ZM155.647 135.511C167.285 140.643 174.708 152.281 174.708 165.11C174.708 171.25 172.967 177.298 169.76 182.43C166.552 187.47 162.062 191.502 156.839 194.068C153.448 195.809 150.424 197.183 140.802 197.183H121.65C121.192 197.183 120.917 196.817 120.917 196.45V133.77C120.917 133.312 121.192 132.945 121.65 132.945H140.344C148.683 132.945 152.623 134.228 155.647 135.511ZM154.09 177.298C157.022 174.274 158.58 170.058 158.58 165.018C158.488 148.34 141.26 147.699 137.32 147.79C136.862 147.79 136.495 148.157 136.495 148.615V181.422C136.495 181.88 136.862 182.246 137.32 182.246H138.236C145.017 182.246 151.157 180.322 154.09 177.298ZM232.115 196.267C232.298 196.725 231.932 197.275 231.382 197.275H215.529C215.07 197.275 214.704 197 214.612 196.633L211.222 186.462C211.13 186.187 210.855 185.912 210.489 185.912H190.878C190.511 185.912 190.237 186.187 190.145 186.462L186.754 196.725C186.663 197.092 186.296 197.275 186.021 197.275H169.985C169.435 197.275 169.068 196.725 169.251 196.175L192.802 133.678C192.986 133.22 193.352 132.945 193.81 132.945H207.648C208.014 132.945 208.381 133.22 208.564 133.586L232.115 196.267ZM205.632 172.808C206.182 172.808 206.548 172.258 206.365 171.708L201.508 156.771C201.233 156.038 200.133 156.038 199.95 156.771L195.002 171.8C194.818 172.258 195.185 172.808 195.735 172.808H205.632ZM275.88 132.853C276.522 132.853 276.888 133.495 276.613 133.953L258.744 171.158C258.652 171.25 258.652 171.341 258.652 171.525V196.267C258.652 196.725 258.286 197 257.827 197H243.074C242.616 197 242.249 196.725 242.249 196.267V171.525C242.249 171.341 242.249 171.25 242.249 171.158L224.105 133.953C223.921 133.495 224.288 132.853 224.838 132.853H240.783C241.149 132.853 241.424 133.037 241.516 133.312L249.672 152.739C249.947 153.38 250.863 153.38 251.138 152.739L259.385 133.312C259.477 133.037 259.752 132.853 260.118 132.853H275.88Z" fill="#FF54F6"/>
<path d="M38.7824 80.1535C49.3208 85.0103 53.4445 90.142 53.4445 98.5727C53.4445 101.414 52.9863 106.82 49.9622 111.31C46.2967 116.534 40.157 119.283 31.543 119.283C24.3952 119.283 18.8053 117.359 14.8648 113.785C13.2154 112.135 10.6495 108.928 9.45819 103.796C9.36655 103.338 9.64147 102.971 10.008 102.88L24.6701 99.8557C25.0367 99.764 25.4949 99.9473 25.5865 100.405C26.8694 104.896 30.535 105.171 31.3597 105.171C34.9336 105.171 37.2245 102.147 37.2245 99.3058C37.2245 96.1901 34.7503 95.1821 25.8614 91.3333L25.1283 90.9668C20.913 89.2256 9.7331 84.6437 9.7331 72.5475C9.7331 59.6265 21.0962 52.662 31.8179 52.662C33.8339 52.662 37.5911 52.937 41.4399 54.4948C44.0974 55.6861 49.8706 58.9851 51.0619 65.7663C51.1535 66.1328 50.8786 66.591 50.5121 66.6827L36.858 70.0733C36.4914 70.1649 36.1249 69.9816 36.0332 69.6151C35.3001 68.0572 34.0172 66.7743 31.2681 66.7743C28.7022 66.7743 26.0447 68.5154 26.0447 71.5395C26.0447 74.2886 27.6942 75.0217 38.7824 80.1535ZM108.357 53.8533C108.724 53.8533 109.09 54.2199 109.09 54.6781V117.267C109.09 117.725 108.724 118 108.357 118H95.3446C95.0696 118 94.8864 117.908 94.7031 117.725L72.8932 87.2096C72.5267 86.5681 71.5187 86.9347 71.5187 87.6678L71.7936 117.267C71.7936 117.725 71.5187 118 71.0605 118H56.9482C56.49 118 56.2151 117.725 56.2151 117.267V54.6781C56.2151 54.2199 56.49 53.8533 56.9482 53.8533H69.7775C70.0524 53.8533 70.3274 54.0366 70.419 54.2199L92.3205 87.0263C92.7787 87.6678 93.7867 87.3929 93.6951 86.6598L93.4202 54.6781C93.4202 54.2199 93.7867 53.8533 94.2449 53.8533H108.357ZM173.23 117.267C173.414 117.725 173.047 118.275 172.497 118.275H156.644C156.186 118.275 155.819 118 155.728 117.633L152.337 107.462C152.245 107.187 151.97 106.912 151.604 106.912H131.993C131.627 106.912 131.352 107.187 131.26 107.462L127.87 117.725C127.778 118.092 127.411 118.275 127.137 118.275H111.1C110.55 118.275 110.183 117.725 110.367 117.175L133.918 54.6781C134.101 54.2199 134.468 53.945 134.926 53.945H148.763C149.13 53.945 149.496 54.2199 149.68 54.5864L173.23 117.267ZM146.747 93.8075C147.297 93.8075 147.663 93.2577 147.48 92.7079L142.623 77.7709C142.348 77.0378 141.249 77.0378 141.066 77.7709L136.117 92.7995C135.934 93.2577 136.3 93.8075 136.85 93.8075H146.747ZM226.679 105.629C227.046 105.904 227.137 106.454 226.862 106.82C220.631 114.976 211.009 119.833 200.837 119.833C182.693 119.833 167.939 104.712 167.939 86.1099C167.939 67.5074 182.693 52.3871 200.837 52.3871C206.244 52.3871 211.284 53.5784 216.049 56.1443C220.081 58.252 223.655 61.276 226.587 64.9415C226.862 65.3081 226.771 65.7663 226.404 66.0412L215.499 74.0137C215.133 74.2886 214.675 74.2886 214.4 73.9221C211.009 69.89 206.152 67.6907 200.837 67.6907C190.94 67.6907 182.784 75.9381 182.784 86.1099C182.784 96.2818 190.94 104.529 200.837 104.529C206.244 104.529 211.376 102.055 214.766 97.8396C215.041 97.4731 215.499 97.4731 215.866 97.6563L226.679 105.629ZM281.255 116.992C281.621 117.45 281.255 118.183 280.613 118.183H262.56C262.286 118.183 262.011 118 261.919 117.817L246.799 92.7995C246.341 92.0664 245.332 92.3413 245.332 93.1661V117.359C245.332 117.817 244.966 118.183 244.508 118.183H229.754C229.296 118.183 229.021 117.817 229.021 117.359V54.7697C229.021 54.4032 229.296 54.0366 229.754 54.0366H244.508C244.966 54.0366 245.332 54.4032 245.332 54.7697V78.504C245.332 79.3287 246.341 79.6036 246.799 78.9622L262.469 54.4032C262.652 54.1282 262.927 54.0366 263.202 54.0366H278.414C279.055 54.0366 279.422 54.6781 279.055 55.2279L259.536 84.6437C259.353 84.9186 259.353 85.2852 259.536 85.5601L281.255 116.992Z" fill="#FF54F6"/>
<defs>
<clipPath id="clip0_3130_2">
<rect width="211" height="200" fill="white" transform="translate(93)"/>
</clipPath>
</defs>
</svg>
