<svg width="397" height="150" viewBox="0 0 397 150" fill="none" xmlns="http://www.w3.org/2000/svg">
<g clip-path="url(#clip0_3419_923)">
<rect width="397.403" height="153" fill="#FF29D2"/>
<path d="M384.487 42.51L402.882 22.1406L401.5 49.552L428.911 48.1699L408.542 66.5649L428.911 84.9598L401.5 83.5777L402.882 110.989L384.487 90.6198L366.092 110.989L367.474 83.5777L340.062 84.9598L360.432 66.5649L340.062 48.1699L367.474 49.552L366.092 22.1406L384.487 42.51Z" stroke="#0D2CFF" stroke-width="0.993506" stroke-miterlimit="10"/>
<path d="M18.4579 157.704C-26.9016 182.402 -52.5688 201.243 -71.5267 250.189C-76.9788 243.885 -82.045 237.556 -86.9121 231.287C-87.883 230.026 -88.9286 228.826 -89.8124 227.529C-91.8414 224.57 -98.4387 215.901 -100.542 222.752C-104.015 234.064 -112.33 250.82 -126.62 245.255C-141.097 239.617 -133.355 181.614 -141.172 170.58C-142.18 169.162 -150.271 161.596 -151.727 160.493C-153.184 159.39 -154.839 158.395 -156.918 157.607C-158.86 156.407 -160.864 155.231 -162.93 154.103C-167.051 151.848 -171.395 149.739 -176 147.799C-153.034 127.757 -128.5 111.219 -103.505 93.7965C-87.0615 82.339 -67.4688 69.475 -62.5644 49.0332C-41.341 67.0258 -21.9599 85.4913 -8.16781 109.583C0.956378 125.526 6.32135 143.47 18.4579 157.704Z" stroke="#0D2CFF" stroke-width="0.993506" stroke-miterlimit="10"/>
<path d="M3.38383 133.043C-26.2418 149.035 -52.3447 160.602 -75.2485 179.686C-77.0161 181.153 -78.7587 182.668 -80.4765 184.232C-82.1943 185.651 -83.8001 187.154 -85.3062 188.742C-94.2562 200.406 -96.31 206.674 -100.629 221.369" stroke="#0D2CFF" stroke-width="0.993506" stroke-miterlimit="10"/>
<path d="M7.57884 141.699C-28.9926 160.892 -58.4315 174.762 -82.468 204.504C-83.8871 206.25 -85.2812 208.056 -86.6505 209.923C-90.5217 213.742 -93.9448 222.787 -93.9448 222.787" stroke="#0D2CFF" stroke-width="0.993506" stroke-miterlimit="10"/>
<path d="M12.5698 149.787C-31.6943 173.308 -60.7099 190.064 -84.3979 235.398" stroke="#0D2CFF" stroke-width="0.993506" stroke-miterlimit="10"/>
<path d="M7.0185 163.973C-4.43341 149.872 -8.81502 131.977 -17.1674 116.227C-29.1795 93.5544 -46.9922 76.2165 -66.4106 59.4121" stroke="#0D2CFF" stroke-width="0.993506" stroke-miterlimit="10"/>
<path d="M108.804 138.023C85.8383 157.98 61.4905 174.324 36.5702 191.65C20.7865 202.622 -0.486697 216.202 -4.27081 236.365C-26.9257 240.147 -49.2196 244.803 -71.5259 250.186C-52.568 201.24 -26.9008 182.399 18.4587 157.701C49.8395 156.234 79.3032 148.099 108.817 138.023H108.804Z" stroke="#0D2CFF" stroke-width="0.993506" stroke-miterlimit="10"/>
<path d="M71.5483 149.602C32.4749 178.167 -10.9428 193.286 -28.2202 240.522" stroke="#0D2CFF" stroke-width="0.993506" stroke-miterlimit="10"/>
<path d="M80.3119 147.262C42.4709 176.142 -5.11679 193.007 -22.2075 239.395" stroke="#0D2CFF" stroke-width="0.993506" stroke-miterlimit="10"/>
<path d="M89.4354 144.57C56.6356 170.832 -4.98065 194.208 -16.2085 238.34" stroke="#0D2CFF" stroke-width="0.993506" stroke-miterlimit="10"/>
<path d="M98.921 141.49C76.54 160.174 52.6901 175.39 28.7905 191.964C11.8616 203.701 -5.45323 216.334 -10.2456 237.322" stroke="#0D2CFF" stroke-width="0.993506" stroke-miterlimit="10"/>
<path d="M108.904 137.93C79.3777 148.03 49.8766 156.201 18.4461 157.693C6.30954 143.471 0.944574 125.514 -8.17961 109.571C-21.9592 85.4797 -41.3528 67.0142 -62.5762 49.0216C-39.9089 45.2024 -17.6025 40.4981 4.70379 35.0664C9.91939 41.0801 14.7989 47.1302 19.4792 53.156C20.4128 54.3563 21.3464 55.5567 22.28 56.757C25.2301 60.952 27.7196 64.5893 30.2092 64.5893C43.9017 64.5893 43.9017 43.9778 53.8599 41.553C68.7971 35.4908 66.3076 67.0142 67.8013 78.9204C67.9382 81.0664 68.0627 83.1761 68.1996 85.2857C68.5855 91.6025 68.9216 97.9315 70.0419 103.387C71.2867 109.45 73.7762 115.512 78.581 120.071C80.1992 121.647 82.0664 123.053 84.2323 124.29C86.0746 125.563 87.9666 126.812 89.9209 128.024C95.7465 131.662 102.045 134.972 108.904 137.918V137.93Z" stroke="#0D2CFF" stroke-width="0.993506" stroke-miterlimit="10"/>
<path d="M17.0019 49.9805C-4.98081 54.5029 -26.2415 58.019 -48.5479 60.7348" stroke="#0D2CFF" stroke-width="0.993506" stroke-miterlimit="10"/>
<path d="M27.3219 63.1348C25.1062 63.7289 22.9652 64.2138 20.8366 64.6624C1.67959 68.5907 -16.8053 70.5792 -36.5723 72.1311" stroke="#0D2CFF" stroke-width="0.993506" stroke-miterlimit="10"/>
<path d="M36.6073 62.6973C37.6155 70.9904 32.0888 76.2281 29.9975 76.7373C27.9188 77.2466 25.84 77.7073 23.7737 78.1316C7.2182 81.5507 -9.08831 82.6783 -26.4902 83.2118" stroke="#0D2CFF" stroke-width="0.993506" stroke-miterlimit="10"/>
<path d="M50.1254 43.627C44.3372 49.9923 43.9015 69.4519 34.5657 80.764C33.4081 82.3644 32.126 83.8679 30.6945 85.2137C27.8315 87.9053 24.3337 90.0149 19.8899 91.2153C17.8111 91.6032 15.7572 91.8942 13.6909 92.1488C3.39665 93.4583 -7.02211 94.0281 -18.1006 94.016" stroke="#0D2CFF" stroke-width="0.993506" stroke-miterlimit="10"/>
<path d="M59.0135 41.0332C53.0511 43.6278 50.1383 65.8155 41.1635 80.4375C40.2424 82.3411 39.2839 84.1476 38.2756 85.8814C33.2219 94.5018 26.4627 101.34 14.8863 103.316C13.4797 103.474 12.0607 103.619 10.6417 103.753C3.53401 104.395 -3.68566 104.65 -11.1543 104.504" stroke="#0D2CFF" stroke-width="0.993506" stroke-miterlimit="10"/>
<path d="M66.1579 55.3646C59.0129 49.9813 50.2871 76.1337 45.4449 86.3424C40.2044 97.3999 26.848 111.088 14.7613 113.925C13.0933 114.083 11.4253 114.216 9.74482 114.313C4.71594 114.629 -0.337838 114.738 -5.44141 114.58" stroke="#0D2CFF" stroke-width="0.993506" stroke-miterlimit="10"/>
<path d="M69.7434 102.346C65.0755 97.339 66.5195 90.3553 59.0135 91.3374C47.3002 92.8651 49.3292 121.297 16.9402 123.479C15.4589 123.576 13.9901 123.734 12.5212 123.831C8.10229 124.122 3.6709 124.219 -0.748047 124.073" stroke="#0D2CFF" stroke-width="0.993506" stroke-miterlimit="10"/>
<path d="M77.0248 118.432C56.3616 110.672 42.6691 128.859 22.8149 132.278C21.1345 132.46 19.454 132.617 17.7985 132.739C12.8194 133.115 7.9648 133.236 3.39648 133.042" stroke="#0D2CFF" stroke-width="0.993506" stroke-miterlimit="10"/>
<path d="M86.8091 126.047C84.7179 126.738 82.6143 127.417 80.4981 128.096C78.5687 128.642 76.6393 129.187 74.6975 129.684C58.8515 132.509 43.9143 138.571 27.6824 140.366C26.002 140.572 24.3215 140.754 22.6411 140.924C17.5998 141.409 12.5833 141.687 7.5918 141.712" stroke="#0D2CFF" stroke-width="0.993506" stroke-miterlimit="10"/>
<path d="M96.9669 132.146C88.9132 134.862 80.735 137.469 72.4449 139.797C70.7893 140.27 69.1338 140.718 67.4658 141.167C60.0843 142.198 52.6156 145.835 43.2923 146.599C41.5994 146.902 39.9065 147.181 38.2012 147.447C29.7118 148.769 21.1602 149.594 12.5713 149.8" stroke="#0D2CFF" stroke-width="0.993506" stroke-miterlimit="10"/>
<path d="M25.2796 157.281C12.4584 143.29 6.39639 125.83 -2.75269 109.693C-16.5323 85.3955 -35.4778 66.5057 -56.6016 48.0645" stroke="#0D2CFF" stroke-width="0.993506" stroke-miterlimit="10"/>
<path d="M32.3374 156.652C18.7071 143.109 11.9107 125.977 2.71179 109.706C-11.1176 85.2509 -29.6274 65.9367 -50.6143 47.0469" stroke="#0D2CFF" stroke-width="0.993506" stroke-miterlimit="10"/>
<path d="M39.6317 155.789C32.3996 149.278 26.8852 141.834 22.0182 133.965C21.0472 132.389 20.0888 130.801 19.1552 129.2C18.2216 127.6 17.3129 125.975 16.4042 124.351C13.6782 119.477 11.0393 114.518 8.2261 109.607C-5.76515 85.0555 -23.777 65.3291 -44.627 45.9785" stroke="#0D2CFF" stroke-width="0.993506" stroke-miterlimit="10"/>
<path d="M47.1879 154.662C43.7399 151.861 40.6404 148.854 37.8023 145.702C36.8563 144.647 35.9476 143.58 35.0514 142.489C28.9644 133.698 21.4958 123.999 16.6785 114.299C15.7325 112.651 14.7865 111.002 13.828 109.353C-0.399731 84.7765 -17.9137 64.6136 -38.6143 44.8145" stroke="#0D2CFF" stroke-width="0.993506" stroke-miterlimit="10"/>
<path d="M55.0304 153.268C53.238 151.729 51.5202 150.165 49.8522 148.576C36.446 136.137 27.7326 120.375 17.4632 106.408C16.3554 104.686 15.26 102.964 14.1521 101.218C1.99069 82.1102 -11.0047 62.1898 -32.5518 43.6152" stroke="#0D2CFF" stroke-width="0.993506" stroke-miterlimit="10"/>
<path d="M63.1578 151.57C61.2782 150.115 59.4484 148.624 57.6559 147.084C41.4241 132.486 39.4324 120.483 25.2794 104.479C23.9724 103 20.0389 102.672 13.3794 93.8944C0.222116 76.5565 -11.18 57.8606 -26.4658 42.3535" stroke="#0D2CFF" stroke-width="0.993506" stroke-miterlimit="10"/>
<path d="M71.5973 149.559C69.5808 148.322 67.6265 147.025 65.7096 145.667C63.7926 144.309 61.9255 142.879 60.133 141.351C47.6355 126.426 44.3368 109.949 36.6068 100.868C30.5945 93.799 25.7648 100.868 18.4331 92.526C16.9892 90.8892 15.956 88.925 14.7237 87.1185C3.63277 70.8354 -7.32123 54.5281 -20.3291 41.0215" stroke="#0D2CFF" stroke-width="0.993506" stroke-miterlimit="10"/>
<path d="M80.3857 147.217C78.282 145.919 76.2406 144.586 74.2365 143.191C72.2449 141.797 70.2906 140.354 68.411 138.851C53.872 127.648 56.3616 107.036 50.1377 91.2746C45.1586 81.575 33.9557 91.2746 25.2423 90.0621C23.9975 88.8497 22.7527 86.4248 21.3337 85.2487C20.1885 83.7453 19.0682 82.1691 17.9604 80.6051C7.90259 66.4923 -2.22986 52.3431 -14.1299 39.6367" stroke="#0D2CFF" stroke-width="0.993506" stroke-miterlimit="10"/>
<path d="M89.5097 144.5C87.2815 143.275 85.1156 142.002 82.9995 140.681C80.8834 139.359 78.842 137.989 76.8379 136.57C61.6268 126.071 61.4774 106.563 60.7554 92.3891C60.6434 90.1219 59.8716 68.9284 54.183 66.4672C42.4697 61.4113 37.9512 80.0222 32.2252 82.726C28.2046 84.6174 20.8107 74.5541 19.3792 72.59C10.8276 60.8414 2.07683 49.0929 -7.90625 38.1445" stroke="#0D2CFF" stroke-width="0.993506" stroke-miterlimit="10"/>
<path d="M99.0205 141.423C92.5601 138.283 86.6101 134.767 81.0833 130.924C79.2411 129.638 77.4361 128.305 75.6934 126.765C65.5859 116.386 64.3038 94.8049 63.7063 82.8745C63.1088 70.7501 65.3369 52.6483 53.8601 52.4907C43.2796 52.3452 40.205 76.1939 32.3131 75.2604C30.6078 75.0542 21.6703 65.8033 20.6745 64.4696C13.6664 55.1096 6.43429 45.7132 -1.63184 36.6562" stroke="#0D2CFF" stroke-width="0.993506" stroke-miterlimit="10"/>
</g>
<defs>
<clipPath id="clip0_3419_923">
<rect width="397" height="150" fill="white"/>
</clipPath>
</defs>
</svg>
