<svg width="345" height="252" viewBox="0 0 345 252" fill="none" xmlns="http://www.w3.org/2000/svg">
<g clip-path="url(#clip0_3441_1028)">
<rect width="345" height="252" fill="#0D2CFF"/>
<path d="M17.4584 44.6379C-27.9011 69.3353 -53.5683 88.1766 -72.5262 137.123C-77.9783 130.818 -83.0446 124.489 -87.9116 118.221C-88.8825 116.96 -89.9282 115.76 -90.8119 114.462C-92.8409 111.504 -99.4382 102.835 -101.542 109.685C-105.015 120.997 -113.33 137.753 -127.62 132.188C-142.097 126.55 -134.354 68.5472 -142.171 57.514C-143.18 56.0954 -151.271 48.5298 -152.727 47.4265C-154.183 46.3232 -155.839 45.329 -157.918 44.5409C-159.859 43.3406 -161.864 42.1645 -163.93 41.0369C-168.05 38.7818 -172.394 36.6721 -177 34.7322C-154.034 14.6906 -129.499 -1.84711 -104.504 -19.2699C-88.061 -30.7275 -68.4683 -43.5914 -63.5639 -64.0332C-42.3405 -46.0406 -22.9594 -27.5751 -9.16732 -3.4839C-0.0431337 12.4597 5.32184 30.4038 17.4584 44.6379Z" stroke="#FF29D2" stroke-width="0.993506" stroke-miterlimit="10"/>
<path d="M2.38431 19.9766C-27.2413 35.9687 -53.3442 47.5353 -76.248 66.6192C-78.0156 68.0862 -79.7583 69.6018 -81.476 71.1658C-83.1938 72.5844 -84.7996 74.0878 -86.3058 75.6761C-95.2557 87.3398 -97.3095 93.6081 -101.629 108.303" stroke="#FF29D2" stroke-width="0.993506" stroke-miterlimit="10"/>
<path d="M6.57835 28.6328C-29.9931 47.8258 -59.4319 61.6961 -83.4685 91.4373C-84.8875 93.1832 -86.2817 94.9897 -87.6509 96.8569C-91.5222 100.676 -94.9453 109.721 -94.9453 109.721" stroke="#FF29D2" stroke-width="0.993506" stroke-miterlimit="10"/>
<path d="M11.5693 36.7207C-32.6948 60.2421 -61.7104 76.998 -85.3984 122.331" stroke="#FF29D2" stroke-width="0.993506" stroke-miterlimit="10"/>
<path d="M6.01899 50.9066C-5.43292 36.8059 -9.81453 18.9103 -18.167 3.16068C-30.179 -19.512 -47.9917 -36.8499 -67.4102 -53.6543" stroke="#FF29D2" stroke-width="0.993506" stroke-miterlimit="10"/>
<path d="M107.805 24.957C84.8388 44.9138 60.491 61.2575 35.5707 78.5833C19.787 89.5559 -1.48621 103.135 -5.27032 123.298C-27.9252 127.081 -50.2191 131.737 -72.5254 137.12C-53.5675 88.1737 -27.9003 69.3324 17.4592 44.6349C48.8399 43.1679 78.3037 35.0324 107.817 24.957H107.805Z" stroke="#FF29D2" stroke-width="0.993506" stroke-miterlimit="10"/>
<path d="M24.2806 44.2246C-20.4814 69.5404 -47.4307 86.4539 -66.1895 135.558" stroke="#FF29D2" stroke-width="0.993506" stroke-miterlimit="10"/>
<path d="M31.327 43.5918C-12.7503 69.5502 -41.3552 84.8997 -59.9023 134.052" stroke="#FF29D2" stroke-width="0.993506" stroke-miterlimit="10"/>
<path d="M38.6078 42.7324C-4.68543 69.3213 -35.3691 83.5068 -53.6797 132.611" stroke="#FF29D2" stroke-width="0.993506" stroke-miterlimit="10"/>
<path d="M46.1645 41.6133C3.78001 68.7841 -29.443 82.3392 -47.4922 131.225" stroke="#FF29D2" stroke-width="0.993506" stroke-miterlimit="10"/>
<path d="M53.9804 40.2207C12.5918 67.9492 -23.5813 81.3831 -41.3691 129.905" stroke="#FF29D2" stroke-width="0.993506" stroke-miterlimit="10"/>
<path d="M62.109 38.5352C21.8282 66.7244 -17.7556 80.6796 -35.2695 128.644" stroke="#FF29D2" stroke-width="0.993506" stroke-miterlimit="10"/>
<path d="M70.5498 36.5352C31.4764 65.1003 -11.9413 80.2194 -29.2188 127.456" stroke="#FF29D2" stroke-width="0.993506" stroke-miterlimit="10"/>
<path d="M79.3124 34.1953C41.4713 63.0757 -6.1163 79.9407 -23.207 126.329" stroke="#FF29D2" stroke-width="0.993506" stroke-miterlimit="10"/>
<path d="M88.4368 31.5039C55.6371 57.7654 -5.97918 81.1412 -17.207 125.274" stroke="#FF29D2" stroke-width="0.993506" stroke-miterlimit="10"/>
<path d="M97.9205 28.4238C75.5395 47.1075 51.6896 62.3237 27.79 78.8977C10.8611 90.6342 -6.45372 103.268 -11.2461 124.255" stroke="#FF29D2" stroke-width="0.993506" stroke-miterlimit="10"/>
<path d="M4.6995 104.104C-17.445 105.158 -39.3032 107.232 -61.2734 110.238" stroke="#FF29D2" stroke-width="0.993506" stroke-miterlimit="10"/>
<path d="M12.2566 96.3203C-10.224 96.4416 -32.5179 97.3751 -54.9238 99.218" stroke="#FF29D2" stroke-width="0.993506" stroke-miterlimit="10"/>
<path d="M20.8955 89.1315C-2.10793 89.1315 -25.0989 88.792 -48.0898 89.6407" stroke="#FF29D2" stroke-width="0.993506" stroke-miterlimit="10"/>
<path d="M30.4166 82.1487C6.65385 82.476 -17.0342 81.6152 -40.7969 81.3242" stroke="#FF29D2" stroke-width="0.993506" stroke-miterlimit="10"/>
<path d="M40.7484 74.9933C16.0646 76.1573 -8.28319 75.3449 -32.9297 74.084" stroke="#FF29D2" stroke-width="0.993506" stroke-miterlimit="10"/>
<path d="M52.0406 67.1641C26.1244 69.6374 1.50283 69.7951 -24.4258 67.7339" stroke="#FF29D2" stroke-width="0.993506" stroke-miterlimit="10"/>
<path d="M64.6247 58.3359C37.638 62.3612 12.1824 64.58 -15.0781 62.0218" stroke="#FF29D2" stroke-width="0.993506" stroke-miterlimit="10"/>
<path d="M78.1931 48.5273C50.1732 54.3592 23.7716 58.2632 -4.94531 56.6264" stroke="#FF29D2" stroke-width="0.993506" stroke-miterlimit="10"/>
<path d="M92.3819 37.5156C63.4782 45.4692 36.1679 51.0707 6.01953 50.901" stroke="#FF29D2" stroke-width="0.993506" stroke-miterlimit="10"/>
<path d="M107.904 24.8635C78.3777 34.9631 48.8766 43.135 17.4461 44.6263C5.30954 30.4043 -0.0554263 12.4481 -9.17961 -3.49551C-22.9592 -27.5867 -42.3528 -46.0522 -63.5762 -64.0448C-40.9089 -67.864 -18.6025 -72.5683 3.70379 -78C8.91939 -71.9863 13.7989 -65.9362 18.4792 -59.9104C19.4128 -58.7101 20.3464 -57.5098 21.28 -56.3094C24.2301 -52.1144 26.7196 -48.4771 29.2092 -48.4771C42.9017 -48.4771 42.9017 -69.0886 52.8599 -71.5134C67.7971 -77.5756 65.3076 -46.0522 66.8013 -34.146C66.9382 -32 67.0627 -29.8903 67.1996 -27.7807C67.5855 -21.4639 67.9216 -15.1349 69.0419 -9.67896C70.2867 -3.61676 72.7762 2.44545 77.581 7.00423C79.1992 8.5804 81.0664 9.98684 83.2323 11.2235C85.0746 12.4966 86.9666 13.7454 88.9209 14.9578C94.7465 18.5952 101.045 21.9051 107.904 24.8514V24.8635Z" stroke="#FF29D2" stroke-width="0.993506" stroke-miterlimit="10"/>
<path d="M65.1579 -57.7018C58.0129 -63.0851 49.2871 -36.9327 44.4449 -26.724C39.2044 -15.6665 25.848 -1.97805 13.7613 0.859064C12.0933 1.01668 10.4253 1.15005 8.74482 1.24705C3.71594 1.56228 -1.33784 1.6714 -6.44141 1.51378" stroke="#FF29D2" stroke-width="0.993506" stroke-miterlimit="10"/>
<path d="M68.7434 -10.72C64.0755 -15.7274 65.5195 -22.7111 58.0135 -21.729C46.3002 -20.2013 48.3292 8.23043 15.9402 10.4128C14.4589 10.5098 12.9901 10.6674 11.5212 10.7644C7.10229 11.0554 2.6709 11.1524 -1.74805 11.0069" stroke="#FF29D2" stroke-width="0.993506" stroke-miterlimit="10"/>
<path d="M76.0248 5.36544C55.3616 -2.39418 41.6691 15.7924 21.8149 19.2115C20.1345 19.3934 18.454 19.551 16.7985 19.6723C11.8194 20.0481 6.9648 20.1694 2.39648 19.9754" stroke="#FF29D2" stroke-width="0.993506" stroke-miterlimit="10"/>
<path d="M85.8091 12.9805C83.7179 13.6716 81.6143 14.3505 79.4981 15.0295C77.5687 15.5751 75.6393 16.1207 73.6975 16.6178C57.8515 19.4428 42.9143 25.505 26.6824 27.2994C25.002 27.5055 23.3215 27.6874 21.6411 27.8571C16.5998 28.3421 11.5833 28.621 6.5918 28.6452" stroke="#FF29D2" stroke-width="0.993506" stroke-miterlimit="10"/>
<path d="M95.9659 19.0801C87.9122 21.7959 79.7341 24.4027 71.4439 26.7306C69.7883 27.2034 68.1328 27.652 66.4648 28.1006C59.0833 29.1312 51.6147 32.7685 42.2913 33.5324C40.5984 33.8355 38.9055 34.1143 37.2002 34.3811C28.7108 35.7026 20.1592 36.5271 11.5703 36.7332" stroke="#FF29D2" stroke-width="0.993506" stroke-miterlimit="10"/>
<path d="M24.2796 44.2147C11.4584 30.2232 5.39639 12.764 -3.75269 -3.37358C-17.5323 -27.6709 -36.4778 -46.5607 -57.6016 -65.002" stroke="#FF29D2" stroke-width="0.993506" stroke-miterlimit="10"/>
<path d="M31.3384 43.5851C17.7081 30.0422 10.9116 12.9104 1.71277 -3.36058C-12.1167 -27.8155 -30.6264 -47.1297 -51.6133 -66.0195" stroke="#FF29D2" stroke-width="0.993506" stroke-miterlimit="10"/>
<path d="M38.6317 42.7229C31.3996 36.2121 25.8852 28.7677 21.0182 20.8989C20.0472 19.3228 19.0888 17.7345 18.1552 16.134C17.2216 14.5336 16.3129 12.909 15.4042 11.2843C12.6782 6.41027 10.0393 1.45139 7.2261 -3.459C-6.76515 -28.0109 -24.777 -47.7373 -45.627 -67.0879" stroke="#FF29D2" stroke-width="0.993506" stroke-miterlimit="10"/>
<path d="M46.1889 41.5952C42.7409 38.7945 39.6414 35.7876 36.8033 32.6352C35.8573 31.5804 34.9486 30.5135 34.0524 29.4223C27.9654 20.6321 20.4968 10.9326 15.6795 1.23303C14.7335 -0.415886 13.7875 -2.06481 12.829 -3.71373C-1.39875 -28.2899 -18.9127 -48.4528 -39.6133 -68.252" stroke="#FF29D2" stroke-width="0.993506" stroke-miterlimit="10"/>
<path d="M54.0314 40.202C52.2389 38.6622 50.5212 37.0981 48.8532 35.5098C35.447 23.0702 26.7336 7.30847 16.4642 -6.65885C15.3563 -8.38052 14.2609 -10.1022 13.1531 -11.8481C0.991662 -30.9562 -12.0038 -50.8766 -33.5508 -69.4512" stroke="#FF29D2" stroke-width="0.993506" stroke-miterlimit="10"/>
<path d="M62.1588 38.5038C60.2792 37.0489 58.4494 35.5576 56.6569 34.0178C40.4251 19.42 38.4334 7.4168 24.2804 -8.58742C22.9733 -10.0666 19.0399 -10.394 12.3803 -19.172C-0.776908 -36.5099 -12.179 -55.2058 -27.4648 -70.7129" stroke="#FF29D2" stroke-width="0.993506" stroke-miterlimit="10"/>
<path d="M70.5983 36.4928C68.5818 35.2561 66.6275 33.9588 64.7106 32.6008C62.7936 31.2429 60.9265 29.8122 59.134 28.2846C46.6365 13.3594 43.3378 -3.11766 35.6078 -12.1988C29.5955 -19.2674 24.7658 -12.1988 17.4341 -20.5404C15.9902 -22.1772 14.957 -24.1414 13.7247 -25.9479C2.63374 -42.231 -8.32025 -58.5383 -21.3281 -72.0449" stroke="#FF29D2" stroke-width="0.993506" stroke-miterlimit="10"/>
<path d="M79.3867 34.1502C77.283 32.8529 75.2416 31.5192 73.2375 30.1249C71.2459 28.7306 69.2916 27.2878 67.412 25.7843C52.873 14.5814 55.3626 -6.0301 49.1387 -21.7918C44.1596 -31.4914 32.9567 -21.7918 24.2433 -23.0043C22.9985 -24.2167 21.7537 -26.6416 20.3347 -27.8177C19.1895 -29.3211 18.0692 -30.8973 16.9613 -32.4613C6.90357 -46.5741 -3.22888 -60.7233 -15.1289 -73.4297" stroke="#FF29D2" stroke-width="0.993506" stroke-miterlimit="10"/>
<path d="M88.5097 31.4334C86.2815 30.2089 84.1156 28.9358 81.9995 27.6142C79.8834 26.2927 77.842 24.9226 75.8379 23.5041C60.6268 13.0043 60.4774 -6.50384 59.7554 -20.6773C59.6434 -22.9445 58.8716 -44.138 53.183 -46.5993C41.4697 -51.6551 36.9512 -33.0442 31.2252 -30.3404C27.2046 -28.449 19.8107 -38.5123 18.3792 -40.4764C9.82758 -52.225 1.07683 -63.9735 -8.90625 -74.9219" stroke="#FF29D2" stroke-width="0.993506" stroke-miterlimit="10"/>
<path d="M98.0195 28.3569C91.5591 25.2166 85.6091 21.7006 80.0823 17.8571C78.2401 16.5719 76.4352 15.2382 74.6925 13.6984C64.5849 3.31995 63.3028 -18.2615 62.7053 -30.1919C62.1078 -42.3163 64.336 -60.4181 52.8592 -60.5757C42.2786 -60.7212 39.204 -36.8725 31.3121 -37.806C29.6068 -38.0122 20.6693 -47.2631 19.6735 -48.5968C12.6655 -57.9568 5.43331 -67.3532 -2.63281 -76.4102" stroke="#FF29D2" stroke-width="0.993506" stroke-miterlimit="10"/>
<path d="M333.696 183.639L352.091 163.27L350.709 190.681L378.12 189.299L357.751 207.694L378.12 226.089L350.709 224.707L352.091 252.118L333.696 231.749L315.301 252.118L316.683 224.707L289.271 226.089L309.641 207.694L289.271 189.299L316.683 190.681L315.301 163.27L333.696 183.639Z" stroke="#FF29D2" stroke-width="0.993506" stroke-miterlimit="10"/>
<g clip-path="url(#clip1_3441_1028)">
<path d="M230.2 17.1002C229.54 17.1002 229 16.5602 229 15.9002C229 15.2402 229.54 14.7002 230.2 14.7002C230.86 14.7002 231.4 15.2402 231.4 15.9002C231.4 16.5602 230.86 17.1002 230.2 17.1002Z" fill="white"/>
<path d="M230.2 36.17C229.54 36.17 229 35.63 229 34.97C229 34.31 229.54 33.77 230.2 33.77C230.86 33.77 231.4 34.31 231.4 34.97C231.4 35.63 230.86 36.17 230.2 36.17Z" fill="white"/>
<path d="M230.2 55.2301C229.54 55.2301 229 54.6901 229 54.0301C229 53.3701 229.54 52.8301 230.2 52.8301C230.86 52.8301 231.4 53.3701 231.4 54.0301C231.4 54.6901 230.86 55.2301 230.2 55.2301Z" fill="white"/>
<path d="M230.2 74.2999C229.54 74.2999 229 73.7599 229 73.0999C229 72.4399 229.54 71.8999 230.2 71.8999C230.86 71.8999 231.4 72.4399 231.4 73.0999C231.4 73.7599 230.86 74.2999 230.2 74.2999Z" fill="white"/>
<path d="M249.261 17.1002C248.601 17.1002 248.061 16.5602 248.061 15.9002C248.061 15.2402 248.601 14.7002 249.261 14.7002C249.921 14.7002 250.461 15.2402 250.461 15.9002C250.461 16.5602 249.921 17.1002 249.261 17.1002Z" fill="white"/>
<path d="M249.261 36.17C248.601 36.17 248.061 35.63 248.061 34.97C248.061 34.31 248.601 33.77 249.261 33.77C249.921 33.77 250.461 34.31 250.461 34.97C250.461 35.63 249.921 36.17 249.261 36.17Z" fill="white"/>
<path d="M249.261 55.2301C248.601 55.2301 248.061 54.6901 248.061 54.0301C248.061 53.3701 248.601 52.8301 249.261 52.8301C249.921 52.8301 250.461 53.3701 250.461 54.0301C250.461 54.6901 249.921 55.2301 249.261 55.2301Z" fill="white"/>
<path d="M249.261 74.2999C248.601 74.2999 248.061 73.7599 248.061 73.0999C248.061 72.4399 248.601 71.8999 249.261 71.8999C249.921 71.8999 250.461 72.4399 250.461 73.0999C250.461 73.7599 249.921 74.2999 249.261 74.2999Z" fill="white"/>
<path d="M268.331 17.1002C267.671 17.1002 267.131 16.5602 267.131 15.9002C267.131 15.2402 267.671 14.7002 268.331 14.7002C268.991 14.7002 269.531 15.2402 269.531 15.9002C269.531 16.5602 268.991 17.1002 268.331 17.1002Z" fill="white"/>
<path d="M268.331 36.17C267.671 36.17 267.131 35.63 267.131 34.97C267.131 34.31 267.671 33.77 268.331 33.77C268.991 33.77 269.531 34.31 269.531 34.97C269.531 35.63 268.991 36.17 268.331 36.17Z" fill="white"/>
<path d="M268.331 55.2301C267.671 55.2301 267.131 54.6901 267.131 54.0301C267.131 53.3701 267.671 52.8301 268.331 52.8301C268.991 52.8301 269.531 53.3701 269.531 54.0301C269.531 54.6901 268.991 55.2301 268.331 55.2301Z" fill="white"/>
<path d="M268.331 74.2999C267.671 74.2999 267.131 73.7599 267.131 73.0999C267.131 72.4399 267.671 71.8999 268.331 71.8999C268.991 71.8999 269.531 72.4399 269.531 73.0999C269.531 73.7599 268.991 74.2999 268.331 74.2999Z" fill="white"/>
<path d="M287.389 17.1002C286.729 17.1002 286.189 16.5602 286.189 15.9002C286.189 15.2402 286.729 14.7002 287.389 14.7002C288.049 14.7002 288.589 15.2402 288.589 15.9002C288.589 16.5602 288.049 17.1002 287.389 17.1002Z" fill="white"/>
<path d="M287.389 36.17C286.729 36.17 286.189 35.63 286.189 34.97C286.189 34.31 286.729 33.77 287.389 33.77C288.049 33.77 288.589 34.31 288.589 34.97C288.589 35.63 288.049 36.17 287.389 36.17Z" fill="white"/>
<path d="M287.389 55.2301C286.729 55.2301 286.189 54.6901 286.189 54.0301C286.189 53.3701 286.729 52.8301 287.389 52.8301C288.049 52.8301 288.589 53.3701 288.589 54.0301C288.589 54.6901 288.049 55.2301 287.389 55.2301Z" fill="white"/>
<path d="M287.389 74.2999C286.729 74.2999 286.189 73.7599 286.189 73.0999C286.189 72.4399 286.729 71.8999 287.389 71.8999C288.049 71.8999 288.589 72.4399 288.589 73.0999C288.589 73.7599 288.049 74.2999 287.389 74.2999Z" fill="white"/>
<path d="M306.46 17.1002C305.8 17.1002 305.26 16.5602 305.26 15.9002C305.26 15.2402 305.8 14.7002 306.46 14.7002C307.12 14.7002 307.66 15.2402 307.66 15.9002C307.66 16.5602 307.12 17.1002 306.46 17.1002Z" fill="white"/>
<path d="M306.46 36.17C305.8 36.17 305.26 35.63 305.26 34.97C305.26 34.31 305.8 33.77 306.46 33.77C307.12 33.77 307.66 34.31 307.66 34.97C307.66 35.63 307.12 36.17 306.46 36.17Z" fill="white"/>
<path d="M306.46 55.2301C305.8 55.2301 305.26 54.6901 305.26 54.0301C305.26 53.3701 305.8 52.8301 306.46 52.8301C307.12 52.8301 307.66 53.3701 307.66 54.0301C307.66 54.6901 307.12 55.2301 306.46 55.2301Z" fill="white"/>
<path d="M306.46 74.2999C305.8 74.2999 305.26 73.7599 305.26 73.0999C305.26 72.4399 305.8 71.8999 306.46 71.8999C307.12 71.8999 307.66 72.4399 307.66 73.0999C307.66 73.7599 307.12 74.2999 306.46 74.2999Z" fill="white"/>
<path d="M325.52 17.1002C324.86 17.1002 324.32 16.5602 324.32 15.9002C324.32 15.2402 324.86 14.7002 325.52 14.7002C326.18 14.7002 326.72 15.2402 326.72 15.9002C326.72 16.5602 326.18 17.1002 325.52 17.1002Z" fill="white"/>
<path d="M325.52 36.17C324.86 36.17 324.32 35.63 324.32 34.97C324.32 34.31 324.86 33.77 325.52 33.77C326.18 33.77 326.72 34.31 326.72 34.97C326.72 35.63 326.18 36.17 325.52 36.17Z" fill="white"/>
<path d="M325.52 55.2301C324.86 55.2301 324.32 54.6901 324.32 54.0301C324.32 53.3701 324.86 52.8301 325.52 52.8301C326.18 52.8301 326.72 53.3701 326.72 54.0301C326.72 54.6901 326.18 55.2301 325.52 55.2301Z" fill="white"/>
<path d="M325.52 74.2999C324.86 74.2999 324.32 73.7599 324.32 73.0999C324.32 72.4399 324.86 71.8999 325.52 71.8999C326.18 71.8999 326.72 72.4399 326.72 73.0999C326.72 73.7599 326.18 74.2999 325.52 74.2999Z" fill="white"/>
<path d="M344.581 17.1002C343.921 17.1002 343.381 16.5602 343.381 15.9002C343.381 15.2402 343.921 14.7002 344.581 14.7002C345.241 14.7002 345.781 15.2402 345.781 15.9002C345.781 16.5602 345.241 17.1002 344.581 17.1002Z" fill="white"/>
<path d="M344.581 36.17C343.921 36.17 343.381 35.63 343.381 34.97C343.381 34.31 343.921 33.77 344.581 33.77C345.241 33.77 345.781 34.31 345.781 34.97C345.781 35.63 345.241 36.17 344.581 36.17Z" fill="white"/>
<path d="M344.581 55.2301C343.921 55.2301 343.381 54.6901 343.381 54.0301C343.381 53.3701 343.921 52.8301 344.581 52.8301C345.241 52.8301 345.781 53.3701 345.781 54.0301C345.781 54.6901 345.241 55.2301 344.581 55.2301Z" fill="white"/>
<path d="M344.581 74.2999C343.921 74.2999 343.381 73.7599 343.381 73.0999C343.381 72.4399 343.921 71.8999 344.581 71.8999C345.241 71.8999 345.781 72.4399 345.781 73.0999C345.781 73.7599 345.241 74.2999 344.581 74.2999Z" fill="white"/>
</g>
<g clip-path="url(#clip2_3441_1028)">
<path d="M93.4495 245.55C93.4495 249.1 78.8395 250.96 78.0795 254.28C77.2995 257.71 89.6395 265.72 88.1495 268.81C86.6295 271.96 72.6695 267.29 70.5095 269.99C68.3395 272.7 75.9895 285.29 73.2795 287.45C70.5795 289.61 60.0095 279.36 56.8695 280.88C53.7795 282.37 55.2095 297.03 51.7795 297.81C48.4595 298.57 43.4095 284.75 39.8595 284.75C36.3095 284.75 31.2595 298.57 27.9395 297.81C24.5095 297.03 25.9495 282.37 22.8495 280.88C19.6995 279.36 9.13953 289.61 6.43953 287.45C3.72953 285.28 11.3695 272.7 9.20953 269.99C7.04953 267.29 -6.91047 271.96 -8.43047 268.81C-9.92047 265.72 2.41953 257.71 1.63953 254.28C0.889531 250.96 -13.7305 249.1 -13.7305 245.55C-13.7305 242 0.879531 240.14 1.63953 236.82C2.41953 233.39 -9.92047 225.38 -8.43047 222.29C-6.91047 219.14 7.04953 223.81 9.20953 221.11C11.3795 218.4 3.72953 205.81 6.43953 203.65C9.13953 201.49 19.7095 211.74 22.8495 210.22C25.9395 208.73 24.5095 194.07 27.9395 193.29C31.2595 192.54 36.3095 206.35 39.8595 206.35C43.4095 206.35 48.4495 192.52 51.7795 193.28C55.2095 194.06 53.7695 208.72 56.8695 210.21C60.0195 211.73 70.5795 201.48 73.2795 203.64C75.9895 205.81 68.3495 218.39 70.5095 221.1C72.6695 223.8 86.6295 219.13 88.1495 222.28C89.6395 225.37 77.2995 233.38 78.0795 236.81C78.8295 240.13 93.4495 241.99 93.4495 245.54V245.55Z" stroke="white" stroke-width="0.5" stroke-miterlimit="10"/>
</g>
</g>
<defs>
<clipPath id="clip0_3441_1028">
<rect width="345" height="252" fill="white"/>
</clipPath>
<clipPath id="clip1_3441_1028">
<rect width="231.17" height="269.3" fill="white" transform="translate(229 -195)"/>
</clipPath>
<clipPath id="clip2_3441_1028">
<rect width="107.7" height="105.1" fill="white" transform="translate(-14 193)"/>
</clipPath>
</defs>
</svg>
