<?xml version="1.0" encoding="UTF-8"?><svg id="b" xmlns="http://www.w3.org/2000/svg" viewBox="0 0 162.66 101.02"><g id="c"><g><g><path d="M133.88,59.21c.03,.29,.29,.49,.57,.46,.44-.05,.87-.13,1.29-.23,.24-.06,.41-.29,.39-.53,0-.03,0-.07-.01-.1-.07-.28-.35-.45-.63-.38-.38,.09-.77,.16-1.16,.21-.28,.03-.49,.29-.46,.58Z" fill="#fa73f3"/><path d="M120.67,71.28c.42,.06,.85,.11,1.27,.14,.28,.02,.53-.19,.55-.48,0-.02,0-.04,0-.06-.01-.26-.22-.48-.48-.5-.4-.03-.8-.07-1.2-.13-.28-.04-.55,.16-.59,.44-.04,.29,.16,.55,.44,.59Z" fill="#fa73f3"/><path d="M105.86,62.16c.18,.22,.51,.26,.73,.08,.13-.11,.2-.27,.19-.43,0-.11-.04-.21-.11-.3-.25-.31-.51-.64-.75-.97-.17-.23-.5-.28-.72-.1-.23,.17-.27,.5-.1,.73,.25,.34,.52,.68,.78,1Z" fill="#fa73f3"/><path d="M118.82,70.39c.02-.06,.02-.11,.02-.16,0-.22-.16-.42-.38-.48-.38-.11-.77-.23-1.15-.37-.27-.1-.56,.05-.66,.32-.09,.27,.05,.57,.32,.66,.4,.14,.81,.27,1.21,.39,.27,.08,.56-.08,.64-.36Z" fill="#fa73f3"/><path d="M107.53,64.07c.29,.31,.59,.61,.89,.9,.21,.2,.53,.19,.73-.01,.1-.11,.15-.25,.14-.38,0-.13-.06-.26-.16-.35-.29-.28-.58-.57-.86-.87-.2-.21-.52-.22-.73-.02-.21,.2-.21,.53-.02,.74Z" fill="#fa73f3"/><path d="M124.59,52.21c-.04-.37-.05-.76-.03-1.16,0-.02,0-.04,0-.06-.01-.26-.22-.48-.49-.5-.29-.02-.53,.2-.55,.49-.03,.45-.02,.91,.04,1.34,.03,.29,.29,.49,.57,.46,.28-.03,.49-.29,.45-.58Z" fill="#fa73f3"/><path d="M125.07,48.79c.14-.36,.31-.72,.51-1.05,.05-.09,.07-.19,.07-.29,0-.17-.1-.33-.26-.43-.25-.15-.56-.06-.71,.19-.22,.38-.42,.78-.58,1.19-.11,.27,.02,.57,.29,.68,.27,.11,.57-.02,.67-.29Z" fill="#fa73f3"/><path d="M136.73,47.24c-.17-.23-.49-.29-.72-.12s-.29,.49-.12,.73c.23,.32,.44,.66,.63,1.01,.14,.25,.45,.34,.7,.2,.18-.1,.27-.29,.26-.48,0-.08-.02-.16-.07-.23-.21-.38-.45-.76-.69-1.11Z" fill="#fa73f3"/><path d="M144.85,48.69c-.09,.27-.19,.55-.29,.82-.1,.27,.03,.57,.29,.67,.27,.1,.57-.03,.67-.3,.11-.29,.22-.58,.31-.87,.04-.11,.08-.23,.11-.35,.02-.06,.03-.12,.02-.18,0-.21-.15-.41-.36-.47-.27-.09-.56,.07-.65,.34-.03,.11-.07,.22-.11,.33Z" fill="#fa73f3"/><path d="M101.01,52.2c0-.07-.02-.13-.05-.2-.17-.36-.34-.74-.51-1.13-.12-.26-.42-.38-.68-.26-.26,.12-.38,.43-.26,.69,.17,.39,.35,.78,.52,1.15,.12,.26,.43,.37,.69,.25,.2-.09,.31-.29,.3-.5Z" fill="#fa73f3"/><path d="M154.29,18.97c.14,.25,.45,.34,.7,.2,.35-.19,.71-.37,1.07-.53,.2-.09,.32-.29,.31-.5,0-.06-.02-.13-.04-.19-.12-.26-.42-.38-.68-.27-.39,.17-.78,.37-1.15,.58-.25,.14-.34,.46-.2,.71Z" fill="#fa73f3"/><path d="M126.32,45.89c.19,.22,.51,.24,.73,.05,.29-.26,.61-.48,.93-.67,.17-.1,.27-.29,.26-.48,0-.08-.03-.16-.07-.24-.14-.25-.46-.34-.71-.19-.38,.22-.75,.48-1.09,.78-.22,.19-.24,.52-.05,.73Z" fill="#fa73f3"/><path d="M151.41,21.33c.2,.2,.53,.2,.73,0,.27-.28,.57-.55,.88-.81,.13-.11,.2-.27,.19-.43,0-.11-.04-.22-.12-.31-.18-.22-.51-.25-.73-.07-.34,.28-.66,.57-.96,.88-.2,.2-.2,.53,0,.74Z" fill="#fa73f3"/><path d="M127.02,57.82c.35,.25,.73,.48,1.12,.68,.25,.13,.57,.03,.7-.22,.04-.08,.06-.18,.06-.26,0-.18-.11-.35-.28-.44-.35-.18-.69-.39-1-.61-.23-.17-.56-.11-.72,.13-.16,.24-.11,.56,.13,.73Z" fill="#fa73f3"/><path d="M102.97,58.01c.22,.36,.45,.72,.67,1.07,.16,.24,.48,.31,.72,.15,.16-.1,.24-.28,.23-.46,0-.09-.03-.18-.08-.26-.22-.34-.44-.69-.66-1.04-.15-.25-.47-.32-.71-.17-.24,.15-.32,.47-.17,.72Z" fill="#fa73f3"/><path d="M126.03,55.66c0-.1-.04-.21-.11-.3-.24-.31-.45-.64-.63-.97-.14-.25-.45-.35-.7-.21-.25,.14-.34,.45-.21,.71,.21,.39,.45,.76,.73,1.12,.18,.23,.5,.27,.73,.09,.14-.11,.21-.27,.2-.44Z" fill="#fa73f3"/><path d="M138.37,52.62c.25-.05,.42-.28,.41-.53,0-.03,0-.06-.01-.08-.08-.4-.18-.79-.3-1.18,0-.03-.02-.05-.02-.08-.09-.27-.38-.43-.65-.34-.27,.09-.42,.38-.34,.65l.02,.07c.11,.36,.2,.73,.28,1.09,.06,.28,.33,.46,.61,.4Z" fill="#fa73f3"/><path d="M130.57,59.42c.42,.1,.85,.18,1.28,.23,.28,.04,.54-.17,.58-.45,0-.03,0-.06,0-.09-.01-.25-.2-.46-.45-.49-.39-.05-.78-.12-1.16-.21-.28-.07-.56,.1-.62,.38-.07,.28,.1,.56,.38,.63Z" fill="#fa73f3"/><path d="M142.91,52.74c-.16,.24-.09,.56,.15,.72,.24,.16,.56,.09,.72-.15,.23-.35,.45-.73,.66-1.1,.05-.09,.07-.18,.06-.28,0-.17-.1-.34-.27-.43-.25-.14-.56-.05-.7,.2-.2,.35-.41,.7-.62,1.04Z" fill="#fa73f3"/><path d="M101.13,54.71c.19,.38,.39,.75,.59,1.12,.14,.25,.45,.35,.7,.21,.18-.1,.28-.29,.27-.48,0-.08-.02-.15-.06-.23-.19-.35-.39-.72-.58-1.09-.13-.26-.44-.36-.7-.22-.25,.13-.35,.45-.22,.7Z" fill="#fa73f3"/><path d="M135.52,65.02c0-.15-.07-.29-.2-.39-.23-.18-.55-.14-.73,.09-.25,.32-.51,.63-.77,.93-.19,.21-.18,.54,.04,.74,.21,.19,.54,.18,.73-.04,.28-.32,.56-.65,.82-.99,.08-.1,.11-.22,.11-.34Z" fill="#fa73f3"/><path d="M146.45,37.37l-.02,.44c-.01,.27-.03,.54-.05,.81-.02,.29,.2,.53,.49,.55,.29,.02,.53-.2,.55-.49,.02-.27,.03-.54,.05-.81l.02-.44s0-.04,0-.05c-.01-.26-.22-.48-.49-.5-.29-.02-.53,.2-.55,.49Z" fill="#fa73f3"/><path d="M146.21,41.1c-.03,.44-.07,.84-.11,1.23-.03,.29,.18,.54,.46,.57,.28,.03,.54-.18,.57-.47,.04-.4,.08-.81,.11-1.26,0-.02,0-.04,0-.07-.01-.26-.21-.47-.48-.5-.28-.02-.53,.19-.56,.48Z" fill="#fa73f3"/><path d="M130.19,43.56c-.05,0-.11,0-.16,0-.28,.02-.5,.27-.48,.56,.02,.29,.27,.5,.55,.48,.04,0,.09,0,.13,0,.16,0,.33,0,.49,0,.17,0,.34,.03,.5,.05,.28,.04,.55-.15,.59-.44,0-.03,0-.07,0-.1-.01-.24-.19-.45-.44-.49-.2-.03-.4-.05-.6-.06-.2-.01-.4-.01-.59,0Z" fill="#fa73f3"/><path d="M148.17,26.14c-.14,.39-.27,.8-.38,1.22-.08,.28,.08,.57,.35,.64,.27,.08,.56-.08,.64-.36,.11-.4,.24-.79,.37-1.16,.02-.06,.03-.13,.03-.2,0-.21-.14-.4-.35-.47-.27-.1-.56,.05-.66,.32Z" fill="#fa73f3"/><path d="M133.17,44.72c-.15,.25-.06,.57,.18,.71,.32,.19,.64,.42,.95,.67,.22,.18,.55,.15,.73-.07,.09-.1,.12-.23,.12-.36,0-.14-.07-.28-.19-.38-.35-.29-.71-.55-1.08-.77-.25-.15-.56-.06-.71,.18Z" fill="#fa73f3"/><path d="M137.18,61.38c-.26-.12-.57-.01-.69,.25-.17,.36-.36,.73-.56,1.08-.14,.25-.05,.57,.19,.71s.56,.06,.71-.2c.21-.37,.41-.76,.59-1.14,.04-.08,.05-.16,.05-.25,0-.19-.12-.36-.29-.45Z" fill="#fa73f3"/><path d="M146.7,33.61c-.04,.4-.07,.81-.1,1.26-.02,.29,.19,.54,.48,.56s.53-.19,.55-.48c.03-.44,.06-.84,.1-1.24,0-.02,0-.05,0-.07-.01-.26-.21-.47-.47-.49-.28-.03-.54,.18-.56,.47Z" fill="#fa73f3"/><path d="M113.29,68.07c-.14,.25-.05,.57,.2,.71,.37,.21,.75,.41,1.13,.59,.26,.13,.57,.02,.69-.24,.04-.08,.06-.17,.05-.25,0-.18-.11-.36-.29-.45-.36-.18-.72-.37-1.08-.56-.25-.14-.56-.05-.7,.2Z" fill="#fa73f3"/><path d="M149.8,22.65c-.22,.36-.43,.74-.63,1.12-.13,.26-.03,.57,.22,.7s.57,.03,.7-.23c.18-.36,.38-.72,.59-1.05,.06-.09,.08-.2,.08-.3,0-.17-.09-.33-.25-.42-.24-.15-.56-.07-.71,.17Z" fill="#fa73f3"/><path d="M110.33,66.65c.33,.26,.67,.52,1.02,.77,.23,.17,.56,.11,.72-.12,.07-.1,.1-.21,.09-.32,0-.16-.08-.31-.22-.4-.33-.23-.66-.48-.97-.73-.22-.18-.55-.14-.73,.09-.18,.23-.14,.55,.09,.73Z" fill="#fa73f3"/><path d="M145.79,44.78c-.07,.41-.14,.82-.22,1.21-.06,.28,.12,.56,.4,.62,.28,.06,.55-.12,.61-.4,.08-.4,.16-.82,.23-1.25,0-.04,0-.07,0-.11-.01-.24-.19-.45-.43-.49-.28-.05-.55,.15-.59,.43Z" fill="#fa73f3"/><path d="M139.53,57.42c0-.09-.03-.18-.08-.26-.15-.24-.47-.31-.71-.16-.34,.22-.68,.42-1.03,.59-.25,.13-.36,.44-.23,.7,.03,.07,.08,.13,.14,.17-.07,.3-.15,.61-.25,.9-.08,.28,.07,.57,.34,.65,.27,.08,.56-.07,.65-.35,.12-.41,.23-.83,.33-1.25,.01-.06,.02-.13,0-.19,.2-.12,.4-.24,.6-.36,.16-.1,.25-.28,.24-.46Z" fill="#fa73f3"/><path d="M138.03,54.61c.01,.4,0,.8-.02,1.21-.02,.29,.2,.53,.49,.55,.29,.02,.53-.2,.55-.49,.03-.43,.03-.87,.02-1.29,0,0,0,0,0-.01-.01-.28-.25-.5-.53-.5-.29,0-.51,.25-.5,.53Z" fill="#fa73f3"/><path d="M140.61,55.52c-.21,.2-.22,.53-.02,.74,.2,.21,.52,.22,.73,.02,.31-.29,.61-.6,.9-.92,.09-.11,.14-.24,.13-.37s-.06-.27-.17-.36c-.21-.19-.54-.18-.73,.04-.27,.3-.55,.59-.84,.86Z" fill="#fa73f3"/><path d="M147.21,29.84c-.07,.4-.14,.82-.21,1.25-.04,.28,.15,.55,.44,.59,.28,.04,.55-.15,.59-.44,.06-.42,.13-.83,.2-1.21,0-.04,.01-.08,0-.12-.01-.24-.18-.44-.42-.49-.28-.05-.55,.13-.6,.42Z" fill="#fa73f3"/><path d="M131.12,68.03c-.24,.16-.3,.49-.14,.72,.16,.24,.48,.3,.72,.14,.35-.24,.7-.5,1.03-.77,.13-.11,.2-.27,.19-.43,0-.11-.04-.21-.11-.3-.18-.22-.51-.26-.73-.08-.31,.25-.64,.5-.96,.72Z" fill="#fa73f3"/><path d="M126.2,70.67c-.05-.28-.31-.48-.59-.43-.39,.06-.79,.11-1.19,.14-.28,.02-.5,.27-.47,.56,.02,.29,.27,.5,.56,.48,.43-.03,.85-.08,1.27-.15,.26-.04,.45-.28,.43-.54,0-.02,0-.04,0-.06Z" fill="#fa73f3"/><path d="M129.04,69.21c-.36,.17-.74,.32-1.11,.45-.27,.09-.41,.39-.32,.66,.09,.27,.39,.42,.66,.32,.4-.14,.8-.3,1.19-.48,.2-.09,.31-.29,.3-.5,0-.06-.02-.13-.05-.19-.12-.26-.42-.38-.68-.26Z" fill="#fa73f3"/><path d="M155.77,21.69c1.73-1.67,4.58-3.3,6.89-4.28-2.39-.77-5.37-2.13-7.25-3.64l1.6,3.9-1.24,4.03Z" fill="#fa73f3"/></g><g><path d="M10.78,85.56c.09,0,.19-.02,.27-.07,.27-.15,.37-.49,.22-.76-.21-.38-.41-.77-.59-1.16-.13-.28-.46-.4-.74-.27-.28,.13-.4,.46-.27,.74,.19,.42,.41,.83,.63,1.23,.1,.18,.29,.29,.49,.29Z" fill="#fa73f3"/><path d="M13.1,88.85c.13,0,.26-.05,.37-.14,.23-.2,.25-.56,.05-.79l-.08-.09c-.26-.3-.51-.6-.75-.92-.19-.25-.54-.29-.78-.11-.25,.19-.29,.54-.11,.78,.25,.33,.52,.66,.79,.98l.08,.1c.11,.13,.26,.19,.42,.19Z" fill="#fa73f3"/><path d="M56.56,75.12c.06,.02,.12,.03,.18,.03,.23,0,.45-.15,.53-.38,.14-.43,.28-.86,.4-1.3,.09-.3-.09-.61-.38-.69-.3-.09-.61,.09-.69,.38-.12,.43-.25,.85-.39,1.26-.1,.29,.06,.61,.36,.71Z" fill="#fa73f3"/><path d="M17.95,61.55c.08,0,.17-.02,.25-.06,.39-.19,.79-.37,1.19-.53,.29-.11,.43-.44,.31-.73-.11-.29-.44-.43-.73-.31-.43,.17-.85,.36-1.27,.56-.28,.14-.39,.47-.26,.75,.1,.2,.3,.31,.5,.31Z" fill="#fa73f3"/><path d="M18.57,92.01c-.27-.15-.61-.06-.76,.21-.15,.27-.06,.61,.21,.76,.39,.23,.8,.44,1.22,.65,.08,.04,.16,.06,.25,.06,.21,0,.4-.11,.5-.31,.14-.28,.02-.61-.25-.75-.39-.19-.78-.4-1.15-.61Z" fill="#fa73f3"/><path d="M59.21,61.83c0-.16,0-.32,0-.48,0-.31-.25-.55-.56-.55h0c-.31,0-.56,.26-.55,.56,0,.16,0,.31,0,.47,0,.29,0,.58,0,.86,0,.31,.24,.56,.55,.57,0,0,0,0,.01,0,.3,0,.55-.24,.56-.55,0-.29,0-.59,0-.88Z" fill="#fa73f3"/><path d="M14.58,89.81c-.2,.23-.18,.59,.06,.79,.34,.3,.71,.59,1.07,.87,.1,.08,.22,.11,.34,.11,.17,0,.34-.08,.45-.22,.19-.25,.14-.6-.11-.78-.35-.26-.69-.54-1.02-.82-.23-.2-.59-.18-.79,.06Z" fill="#fa73f3"/><path d="M41.71,93.05c.4-.21,.81-.43,1.2-.65,.27-.15,.36-.5,.21-.76-.15-.27-.5-.36-.76-.21-.38,.22-.77,.43-1.16,.63-.27,.14-.38,.48-.24,.75,.1,.19,.3,.3,.5,.3,.09,0,.17-.02,.26-.06Z" fill="#fa73f3"/><path d="M14.56,63.72c.12,0,.25-.04,.35-.12,.34-.27,.69-.53,1.04-.78,.25-.18,.32-.52,.14-.78s-.52-.32-.78-.14c-.38,.26-.75,.54-1.11,.83-.24,.19-.28,.55-.08,.79,.11,.14,.27,.21,.44,.21Z" fill="#fa73f3"/><path d="M21.74,60.21s.08,0,.13-.01c.42-.1,.85-.18,1.27-.24,.31-.04,.52-.33,.47-.63-.04-.31-.33-.52-.63-.47-.45,.07-.91,.15-1.37,.25-.3,.07-.49,.37-.42,.67,.06,.26,.29,.44,.55,.44Z" fill="#fa73f3"/><path d="M58.95,66.78c.05-.45,.09-.9,.12-1.35,.02-.31-.21-.58-.52-.6-.31-.02-.58,.21-.6,.52-.03,.44-.07,.89-.12,1.32-.03,.31,.19,.58,.5,.62,.02,0,.04,0,.06,0,.28,0,.53-.21,.56-.5Z" fill="#fa73f3"/><path d="M22.14,93.64c-.29-.1-.61,.05-.71,.34-.1,.29,.05,.61,.34,.71,.43,.15,.87,.29,1.31,.42,.05,.02,.1,.02,.16,.02,.24,0,.47-.16,.54-.4,.09-.3-.08-.61-.38-.69-.42-.12-.84-.26-1.25-.4Z" fill="#fa73f3"/><path d="M29.85,96.07h0c.46,0,.92-.02,1.37-.05,.31-.02,.54-.29,.52-.59-.02-.31-.28-.54-.59-.52-.44,.03-.88,.04-1.31,.05-.31,0-.56,.25-.56,.56,0,.31,.25,.56,.56,.56Z" fill="#fa73f3"/><path d="M33.86,95.7s.06,0,.1,0c.45-.08,.9-.17,1.35-.27,.3-.07,.49-.37,.42-.67-.07-.3-.37-.49-.67-.42-.43,.1-.86,.19-1.29,.26-.3,.05-.51,.34-.45,.65,.05,.27,.28,.46,.55,.46Z" fill="#fa73f3"/><path d="M27.11,95.92s.04,0,.06,0c.28,0,.52-.21,.56-.5,.03-.31-.19-.58-.49-.62-.43-.05-.87-.11-1.3-.18-.3-.05-.59,.15-.65,.46-.05,.3,.15,.59,.46,.65,.45,.08,.91,.14,1.36,.19Z" fill="#fa73f3"/><path d="M44.9,91.03c.11,0,.22-.03,.32-.1,.37-.26,.74-.53,1.1-.81,.25-.19,.29-.54,.1-.78-.19-.25-.54-.29-.78-.1-.35,.27-.71,.53-1.06,.78-.25,.18-.31,.53-.14,.78,.11,.16,.28,.24,.46,.24Z" fill="#fa73f3"/><path d="M25.72,59.81c.43,.01,.86,.04,1.29,.1,.02,0,.05,0,.07,0,.28,0,.52-.21,.55-.49,.04-.31-.18-.59-.49-.62-.46-.05-.92-.09-1.39-.1-.31-.01-.57,.23-.58,.54,0,.31,.23,.57,.54,.58Z" fill="#fa73f3"/><path d="M7.83,76.02c0,.46,.02,.92,.06,1.38,.02,.29,.27,.51,.56,.51,.02,0,.03,0,.05,0,.31-.03,.54-.3,.51-.6-.04-.43-.05-.87-.06-1.3,0-.31-.25-.56-.56-.56h0c-.31,0-.56,.25-.56,.56Z" fill="#fa73f3"/><path d="M53.72,82.14c.25-.38,.49-.77,.72-1.16,.16-.27,.07-.61-.19-.77-.27-.16-.61-.07-.77,.19-.22,.38-.46,.75-.7,1.12-.17,.26-.1,.61,.16,.77,.09,.06,.2,.09,.31,.09,.18,0,.36-.09,.47-.25Z" fill="#fa73f3"/><path d="M56.01,76.59c-.28-.12-.61,.01-.73,.29-.17,.4-.36,.81-.55,1.2-.13,.28-.02,.61,.26,.75,.08,.04,.16,.06,.24,.06,.21,0,.41-.12,.5-.32,.2-.41,.39-.82,.57-1.24,.12-.28-.01-.61-.29-.73Z" fill="#fa73f3"/><path d="M58.33,70.82c.09-.44,.18-.89,.25-1.34,.05-.3-.15-.59-.46-.65-.3-.05-.59,.15-.65,.46-.08,.44-.16,.87-.25,1.3-.06,.3,.13,.6,.43,.66,.04,0,.08,.01,.11,.01,.26,0,.49-.18,.55-.45Z" fill="#fa73f3"/><path d="M58.52,53.25c-.05-.31-.33-.51-.64-.47-.31,.05-.51,.33-.47,.64,.07,.43,.13,.88,.19,1.32,.04,.28,.28,.49,.55,.49,.02,0,.05,0,.07,0,.31-.04,.52-.32,.48-.63-.06-.45-.12-.9-.19-1.34Z" fill="#fa73f3"/><path d="M52.03,83.57c-.24-.19-.6-.15-.79,.1-.27,.34-.55,.69-.83,1.02-.2,.24-.17,.59,.06,.79,.11,.09,.23,.13,.36,.13,.16,0,.32-.07,.43-.2,.29-.35,.59-.7,.86-1.06,.19-.24,.15-.6-.1-.79Z" fill="#fa73f3"/><path d="M48.62,86.63c-.31,.31-.63,.61-.96,.91-.23,.21-.24,.56-.04,.79,.11,.12,.26,.18,.41,.18,.13,0,.27-.05,.38-.15,.34-.31,.67-.62,.99-.94,.22-.22,.22-.57,0-.79-.22-.22-.57-.22-.79,0Z" fill="#fa73f3"/><path d="M10.2,69.7c.17-.39,.36-.78,.57-1.16,.15-.27,.05-.61-.23-.76-.27-.15-.61-.05-.76,.23-.22,.41-.43,.83-.61,1.25-.12,.28,0,.61,.29,.74,.07,.03,.15,.05,.22,.05,.22,0,.42-.13,.51-.34Z" fill="#fa73f3"/><path d="M8.58,73.9c.27,0,.51-.2,.55-.47,.07-.43,.15-.86,.25-1.27,.07-.3-.11-.6-.41-.67-.3-.07-.6,.11-.67,.41-.11,.45-.2,.9-.27,1.36-.05,.31,.16,.59,.47,.64,.03,0,.06,0,.09,0Z" fill="#fa73f3"/><path d="M57.9,57.39c.04,.44,.07,.89,.1,1.33,.02,.3,.26,.53,.56,.53,.01,0,.02,0,.03,0,.31-.02,.54-.28,.52-.59-.03-.45-.06-.9-.1-1.35-.03-.31-.3-.54-.61-.51-.31,.03-.54,.3-.51,.61Z" fill="#fa73f3"/><path d="M11.4,66.47c.1,.08,.22,.12,.34,.12,.17,0,.33-.07,.44-.22,.26-.34,.55-.67,.84-.99,.21-.23,.19-.58-.04-.79-.23-.21-.58-.19-.79,.04-.31,.34-.61,.7-.89,1.06-.19,.24-.15,.6,.1,.79Z" fill="#fa73f3"/><path d="M38.81,93.15c-.41,.16-.82,.32-1.23,.46-.29,.1-.45,.42-.35,.71,.08,.23,.3,.38,.53,.38,.06,0,.12,0,.18-.03,.43-.15,.86-.31,1.28-.48,.29-.11,.43-.44,.31-.73-.11-.29-.44-.43-.73-.31Z" fill="#fa73f3"/><path d="M8.67,81.47c.07,.24,.3,.4,.53,.4,.05,0,.11,0,.16-.02,.3-.09,.46-.4,.37-.7-.13-.41-.24-.84-.34-1.26-.07-.3-.37-.49-.67-.42-.3,.07-.49,.37-.42,.67,.1,.45,.22,.9,.36,1.34Z" fill="#fa73f3"/><path d="M62.14,51.88c-2.12-1.5-4.43-4.18-5.94-6.43-.32,2.69-1.14,6.14-2.33,8.44l3.77-2.5,4.5,.49Z" fill="#fa73f3"/></g><path d="M120.06,38.61c-8.18,0-16.85,2.19-23.9,4.59,6.76-3.33,14.52-7.93,20.18-13.59,4.19-4.19,4.19-10.98,0-15.17-4.19-4.19-10.98-4.19-15.17,0-5.78,5.78-10.37,13.47-13.65,20.15,2.43-7.14,4.66-15.87,4.66-23.87,0-5.92-4.8-10.72-10.72-10.72s-10.72,4.8-10.72,10.72c0,8.18,2.19,16.85,4.59,23.9-3.33-6.76-7.93-14.52-13.59-20.18-4.19-4.19-10.98-4.19-15.17,0-4.19,4.19-4.19,10.98,0,15.17,5.78,5.78,13.47,10.37,20.15,13.65-7.14-2.43-15.87-4.66-23.87-4.66-5.92,0-10.72,4.8-10.72,10.72s4.8,10.72,10.72,10.72c8.18,0,16.85-2.19,23.9-4.59-6.76,3.33-14.52,7.93-20.18,13.59-4.19,4.19-4.19,10.98,0,15.17,4.19,4.19,10.98,4.19,15.17,0,5.78-5.78,10.37-13.47,13.65-20.15-2.43,7.14-4.66,15.87-4.66,23.87,0,5.92,4.8,10.72,10.72,10.72s10.72-4.8,10.72-10.72c0-8.18-2.19-16.85-4.59-23.9,3.33,6.76,7.93,14.52,13.59,20.18,4.19,4.19,10.98,4.19,15.17,0,4.19-4.19,4.19-10.98,0-15.17-5.78-5.78-13.47-10.37-20.15-13.65,7.14,2.43,15.87,4.66,23.87,4.66,5.92,0,10.72-4.8,10.72-10.72s-4.8-10.72-10.72-10.72Z" fill="#fa73f3"/><g><path d="M8.88,15.97c-1.45,.83-2.54,1.9-3.3,3.21-.75,1.31-1.13,2.64-1.13,3.99,0,1.47,.42,2.73,1.27,3.79,.85,1.06,2.08,1.71,3.7,1.94,3.78,.58,6.69,1.29,8.73,2.14,2.04,.85,3.45,2.2,4.22,4.05,.27,.66,.41,1.25,.41,1.79,0,.58-.14,1.05-.43,1.42-.29,.37-.72,.55-1.3,.55s-1.13-.19-1.65-.58c-.52-.38-1.17-.98-1.94-1.79-.66-.73-1.29-1.35-1.91-1.85-1.47-1.19-3.03-1.79-4.69-1.79-1.39,0-2.47,.44-3.24,1.33-.5,.62-.85,1.73-1.04,3.33-.19,1.6-.27,4.14-.23,7.61v5.9c0,.73,.05,1.31,.14,1.74,.1,.42,.35,.78,.75,1.07,.41,.29,1.07,.47,2,.55v.58H0v-.58c.93-.08,1.59-.26,2-.55,.41-.29,.66-.65,.75-1.07,.1-.42,.14-1,.14-1.74v-5.9l-.06-5.03c0-2.47,.25-4.38,.75-5.73,.5-1.35,1.52-2.27,3.07-2.78,.81-.27,1.7-.41,2.66-.41,2.35,0,4.59,.81,6.71,2.43,.5,.39,1.35,1.18,2.54,2.37,.77,.93,1.33,1.45,1.68,1.56,.15,.08,.35,.12,.58,.12,.35,0,.63-.14,.84-.43,.21-.29,.32-.65,.32-1.07,0-.31-.06-.6-.17-.87-.69-1.7-2.19-2.98-4.48-3.85-2.29-.87-5.35-1.3-9.17-1.3-2.28,0-4.01-.57-5.21-1.71-1.2-1.14-1.79-2.57-1.79-4.31,0-1.58,.48-3.14,1.45-4.69,.96-1.54,2.36-2.81,4.19-3.79s3.98-1.48,6.45-1.48c2.08,0,3.65,.23,4.71,.69,1.06,.46,2.07,1.12,3.04,1.97,.62,.54,1.14,.93,1.56,1.16,.42,.23,.98,.35,1.68,.35l-.64,3.47c-1-.35-1.76-.81-2.28-1.39-.52-.58-1.07-1.33-1.65-2.26-.69-1.12-1.41-1.96-2.14-2.52-.73-.56-1.91-.86-3.53-.9-1.97,0-3.67,.41-5.12,1.24Z" fill="#0030f4"/><path d="M34.22,52.73c.1,.42,.35,.78,.75,1.07,.41,.29,1.07,.47,2,.55v.58h-9.26v-.58c.93-.08,1.59-.26,2-.55,.41-.29,.66-.65,.75-1.07,.1-.42,.14-1,.14-1.74V18.95c0-1-.06-1.66-.17-1.97-.12-.31-.46-.46-1.04-.46-.46,0-1.02,.08-1.68,.23v-.58l6.36-2.31V50.99c0,.73,.05,1.31,.14,1.74Z" fill="#0030f4"/><path d="M65.28,52.73c.1,.42,.35,.78,.75,1.07,.4,.29,1.07,.47,2,.55v.58h-6.36v-8.73c-2.85,4.97-6.36,7.89-10.53,8.73-.73,.15-1.58,.23-2.55,.23-2.51,0-4.69-.63-6.54-1.88-1.85-1.25-2.78-2.88-2.78-4.89,0-1.43,.7-2.81,2.11-4.14,1.41-1.33,3.44-2.88,6.1-4.66,2.2-1.54,3.83-2.78,4.89-3.7,1.06-.93,1.59-1.83,1.59-2.72,0-.39-.15-.69-.46-.93s-.71-.35-1.21-.35c-.89,0-1.83,.31-2.83,.93-1.93,1.2-3.61,1.79-5.03,1.79-.89,0-1.57-.22-2.05-.67-.48-.44-.72-1.07-.72-1.88,0-1.16,.55-2.27,1.65-3.33,1.1-1.06,2.48-1.94,4.14-2.63,1.66-.69,3.28-1.1,4.86-1.21,.42-.04,1.04-.06,1.85-.06,3.59,0,6.31,1.02,8.19,3.07,1.87,2.04,2.81,5.5,2.81,10.35v12.73c0,.73,.05,1.31,.14,1.74Zm-8.94-1.3c1.62-1.48,2.91-3.15,3.88-5,.96-1.85,1.45-3.47,1.45-4.86v-4.57c0-4.28-.61-7.23-1.82-8.85-1.21-1.62-3.08-2.43-5.58-2.43-.39,0-1.04,.04-1.97,.12-1.16,.12-2.3,.47-3.44,1.07-1.14,.6-2.06,1.35-2.78,2.26-.71,.91-1.07,1.82-1.07,2.75,0,.39,.13,.74,.4,1.07,.27,.33,.64,.49,1.1,.49,.73,0,1.66-.42,2.78-1.27,1.39-1.12,2.83-1.68,4.34-1.68,.77,0,1.4,.18,1.88,.55,.48,.37,.72,.92,.72,1.65,0,1.12-.48,2.1-1.45,2.95-.96,.85-2.45,1.91-4.45,3.18-1.66,1-3,1.89-4.02,2.66-1.02,.77-1.88,1.7-2.57,2.78-.69,1.08-1.02,2.28-.98,3.59,.08,1.89,.71,3.44,1.91,4.66,1.2,1.21,2.76,1.82,4.69,1.82,.58,0,1.18-.06,1.79-.17,1.85-.35,3.59-1.26,5.21-2.75Z" fill="#0030f4"/><path d="M95.62,26.58c-1.12,.08-1.98,.32-2.57,.72-.6,.4-1.05,.97-1.36,1.71-1.35,3.66-2.43,6.69-3.24,9.08-.62,1.81-1.17,3.12-1.65,3.93-.48,.81-1.07,1.12-1.76,.93-.58-.15-.87-.71-.87-1.68,0-.89,.25-2.27,.75-4.17,.08-.31,.12-.52,.12-.64,0-.31-.07-.53-.2-.67-.14-.13-.3-.2-.49-.2-.58,0-1.06,.77-1.45,2.31-.31,1.27-.59,3.7-.84,7.29-.25,3.59-.38,6.83-.38,9.72h-3.59l-6.71-24.99c-.27-1.08-.66-1.88-1.16-2.4-.5-.52-1.43-.84-2.78-.95v-.58h9.43v.58c-.85,.04-1.45,.2-1.79,.49-.35,.29-.52,.69-.52,1.19,0,.15,.04,.46,.12,.93l5.9,22.1c.27-5.75,.87-10.51,1.79-14.29,.27-1.08,.57-1.85,.9-2.31,.33-.46,.72-.69,1.19-.69,.38,0,.71,.16,.98,.49,.27,.33,.41,.78,.41,1.36,0,.5-.08,.98-.23,1.45-.46,1.54-.69,2.64-.69,3.3,0,.54,.12,.81,.35,.81,.54,.08,.98-.23,1.33-.93,.35-.69,.67-1.68,.98-2.95,.58-2.31,1.04-5.21,1.39-8.68,0-.66-.2-1.18-.61-1.56-.4-.39-1.13-.62-2.17-.69v-.58h9.43v.58Z" fill="#0030f4"/><path d="M101.38,52.9c-2.14-1.35-3.83-3.17-5.06-5.47-1.23-2.29-1.85-4.81-1.85-7.55s.63-5.2,1.88-7.49c1.25-2.29,2.94-4.12,5.06-5.47,2.12-1.35,4.45-2.02,7-2.02s4.89,.67,7.03,2.02c2.14,1.35,3.84,3.17,5.09,5.47,1.25,2.29,1.88,4.79,1.88,7.49s-.63,5.25-1.88,7.55c-1.25,2.29-2.95,4.12-5.09,5.47-2.14,1.35-4.48,2.02-7.03,2.02s-4.89-.67-7.03-2.02Zm12.26-.75c1.6-1.23,2.87-2.93,3.82-5.09,.94-2.16,1.42-4.55,1.42-7.17,0-2.43-.47-4.72-1.42-6.88-.95-2.16-2.22-3.89-3.82-5.21-1.6-1.31-3.35-1.97-5.23-1.97s-3.64,.66-5.24,1.97c-1.6,1.31-2.87,3.05-3.82,5.21-.95,2.16-1.42,4.45-1.42,6.88,0,2.62,.47,5.01,1.42,7.17,.94,2.16,2.22,3.86,3.82,5.09,1.6,1.23,3.34,1.85,5.24,1.85s3.63-.62,5.23-1.85Z" fill="#0030f4"/><path d="M135.71,28.84c2.31-2.31,5.4-3.47,9.26-3.47v3.47c-1.04-.19-1.91-.29-2.6-.29-3.59,0-6.36,1.57-8.33,4.71-1.97,3.14-2.95,7.49-2.95,13.04v4.69c0,.73,.05,1.31,.14,1.74,.1,.42,.35,.78,.75,1.07,.41,.29,1.07,.47,2,.55v.58h-9.26v-.58c.93-.08,1.59-.26,2-.55,.41-.29,.66-.65,.75-1.07,.1-.42,.14-1,.14-1.74V30.51c0-1-.06-1.66-.17-1.97-.12-.31-.46-.46-1.04-.46-.46,0-1.02,.08-1.68,.23v-.58l6.36-2.31v13.48c.77-4.4,2.31-7.75,4.63-10.07Z" fill="#0030f4"/></g><g><path d="M87.81,63.99c-.82-.77-2.11-1.37-3.86-1.81-1.76-.44-3.55-.66-5.39-.66h-6.09v35.37c0,.73,.05,1.3,.15,1.72,.1,.42,.35,.78,.76,1.06,.41,.29,1.08,.47,2.02,.55v.58h-9.37v-.58c.94-.08,1.61-.26,2.02-.55,.41-.29,.66-.64,.76-1.06,.1-.42,.15-1,.15-1.72V61.51h-6.09c-1.83,0-3.63,.22-5.39,.66-1.76,.44-3.04,1.04-3.86,1.81v-3.45h34.19v3.45Z" fill="#0030f4"/><path d="M93.67,74.86c2.34-2.3,5.46-3.45,9.37-3.45v3.45c-1.05-.19-1.93-.29-2.63-.29-3.63,0-6.44,1.56-8.43,4.69-1.99,3.12-2.99,7.45-2.99,12.97v4.66c0,.73,.05,1.3,.15,1.72,.1,.42,.35,.78,.76,1.06,.41,.29,1.08,.47,2.02,.55v.58h-9.37v-.58c.94-.08,1.61-.26,2.02-.55,.41-.29,.66-.64,.76-1.06,.1-.42,.15-1,.15-1.72v-20.36c0-1-.06-1.65-.17-1.96-.12-.31-.47-.46-1.05-.46-.47,0-1.03,.08-1.7,.23v-.58l6.44-2.3v13.4c.78-4.37,2.34-7.71,4.68-10.01Z" fill="#0030f4"/><path d="M130.52,98.61c.1,.42,.35,.78,.76,1.06,.41,.29,1.08,.47,2.02,.55v.58h-6.44v-8.68c-2.89,4.95-6.44,7.84-10.66,8.68-.74,.15-1.6,.23-2.58,.23-2.54,0-4.74-.62-6.62-1.87-1.87-1.25-2.81-2.87-2.81-4.86,0-1.42,.71-2.79,2.14-4.11,1.42-1.32,3.48-2.87,6.18-4.63,2.22-1.53,3.87-2.76,4.95-3.68,1.07-.92,1.61-1.82,1.61-2.7,0-.38-.16-.69-.47-.92-.31-.23-.72-.34-1.23-.34-.9,0-1.85,.31-2.87,.92-1.95,1.19-3.65,1.78-5.09,1.78-.9,0-1.59-.22-2.08-.66-.49-.44-.73-1.06-.73-1.87,0-1.15,.56-2.25,1.67-3.31,1.11-1.05,2.51-1.93,4.19-2.62,1.68-.69,3.32-1.09,4.92-1.21,.43-.04,1.05-.06,1.87-.06,3.63,0,6.39,1.02,8.28,3.05s2.84,5.46,2.84,10.29v12.65c0,.73,.05,1.3,.15,1.72Zm-9.05-1.29c1.64-1.48,2.95-3.13,3.92-4.97,.98-1.84,1.46-3.45,1.46-4.83v-4.54c0-4.26-.62-7.19-1.84-8.8s-3.11-2.42-5.65-2.42c-.39,0-1.05,.04-1.99,.12-1.17,.11-2.33,.47-3.48,1.06-1.15,.59-2.09,1.34-2.81,2.24-.72,.9-1.08,1.81-1.08,2.73,0,.38,.14,.74,.41,1.06,.27,.33,.64,.49,1.11,.49,.74,0,1.68-.42,2.81-1.27,1.41-1.11,2.87-1.67,4.39-1.67,.78,0,1.41,.18,1.9,.55,.49,.37,.73,.91,.73,1.64,0,1.11-.49,2.09-1.46,2.93-.98,.84-2.48,1.9-4.51,3.16-1.68,1-3.04,1.88-4.07,2.65-1.04,.77-1.9,1.69-2.61,2.76-.7,1.07-1.04,2.26-1,3.57,.08,1.88,.72,3.42,1.93,4.63,1.21,1.21,2.79,1.81,4.74,1.81,.59,0,1.19-.06,1.82-.17,1.87-.34,3.63-1.25,5.27-2.73Z" fill="#0030f4"/><path d="M143.4,98.61c.1,.42,.35,.78,.76,1.06,.41,.29,1.08,.47,2.02,.55v.58h-9.37v-.58c.94-.08,1.61-.26,2.02-.55,.41-.29,.66-.64,.76-1.06,.1-.42,.15-1,.15-1.72v-20.36c0-1-.06-1.65-.18-1.96-.12-.31-.47-.46-1.05-.46-.47,0-1.03,.08-1.7,.23v-.58l6.44-2.3v25.42c0,.73,.05,1.3,.15,1.72Zm-3.92-31.26c-.29-.36-.44-.81-.44-1.35,0-.84,.32-1.63,.97-2.36,.64-.73,1.34-1.09,2.08-1.09,.47,0,.85,.17,1.14,.52,.29,.35,.44,.79,.44,1.32,0,.88-.32,1.69-.96,2.42-.64,.73-1.32,1.09-2.02,1.09-.51,0-.91-.18-1.2-.55Z" fill="#0030f4"/><path d="M156.28,98.61c.1,.42,.35,.78,.76,1.06,.41,.29,1.08,.47,2.02,.55v.58h-9.37v-.58c.94-.08,1.61-.26,2.02-.55,.41-.29,.66-.64,.76-1.06,.1-.42,.15-1,.15-1.72v-31.86c0-1-.06-1.65-.18-1.96-.12-.31-.47-.46-1.05-.46-.47,0-1.03,.08-1.7,.23v-.58l6.44-2.3v36.92c0,.73,.05,1.3,.15,1.72Z" fill="#0030f4"/></g></g></g></svg>