<?xml version="1.0" encoding="UTF-8"?>
<svg id="b" xmlns="http://www.w3.org/2000/svg" fill="currentColor" color="white" viewBox="0 0 349.47 349.47">
    <g id="c">
        <path
            d="M311.48,136.75c-28.97,0-59.69,7.76-84.67,16.27,23.96-11.79,51.44-28.08,71.47-48.12,14.83-14.83,14.83-38.89,0-53.72-14.83-14.83-38.89-14.83-53.72,0-20.48,20.48-36.72,47.7-48.36,71.37,8.6-25.28,16.51-56.23,16.51-84.57,0-20.98-17.01-37.99-37.99-37.99s-37.99,17.01-37.99,37.99c0,28.97,7.76,59.69,16.27,84.67-11.79-23.96-28.08-51.44-48.12-71.47-14.83-14.83-38.89-14.83-53.72,0-14.83,14.83-14.83,38.89,0,53.72,20.48,20.48,47.7,36.72,71.37,48.36-25.28-8.6-56.23-16.51-84.57-16.51-20.98,0-37.99,17.01-37.99,37.99s17.01,37.99,37.99,37.99c28.97,0,59.69-7.76,84.67-16.27-23.96,11.79-51.44,28.08-71.47,48.12-14.83,14.83-14.83,38.89,0,53.72,14.83,14.83,38.89,14.83,53.72,0,20.48-20.48,36.72-47.7,48.36-71.37-8.6,25.28-16.51,56.23-16.51,84.57,0,20.98,17.01,37.99,37.99,37.99s37.99-17.01,37.99-37.99c0-28.97-7.76-59.69-16.27-84.67,11.79,23.96,28.08,51.44,48.12,71.47,14.83,14.83,38.89,14.83,53.72,0,14.83-14.83,14.83-38.89,0-53.72-20.48-20.48-47.7-36.72-71.37-48.36,25.28,8.6,56.23,16.51,84.57,16.51,20.98,0,37.99-17.01,37.99-37.99s-17.01-37.99-37.99-37.99Z" />
    </g>
</svg>