<svg class='size-3/5 text-white' fill='currentColor' viewBox="0 0 100 100">
    <path
        d="M25.4,61.1c0,1.5-1.2,2.6-2.6,2.6c-1.5,0-2.6-1.2-2.6-2.6V39.2L2.5,29.8v41.8c0,0.6,0.3,1.2,0.9,1.4l35.5,18.8V49.1   L25.4,42V61.1z" />
    <path
        d="M42.3,6.5c-0.2-0.1-0.5-0.2-0.8-0.2c-0.3,0-0.5,0.1-0.8,0.2L5.2,25.3l17.3,9.1l19.4-10.3c0.4-0.2,0.8-0.3,1.2-0.3   c1,0,1.9,0.5,2.3,1.4c0.7,1.3,0.2,2.9-1.1,3.6l-16.3,8.6l13.4,7.1l36.3-19.2L42.3,6.5z" />
    <path
        d="M59.8,57.3c1.3-1.8,3.5-2.8,5.7-2.8c0.6,0,1.3,0.1,1.9,0.3l13.2,3.6V29.8L44.1,49.1v42.8l19.4-10.3l-5-18.1   C58,61.4,58.4,59.1,59.8,57.3z" />
    <path
        d="M97,84.8l-10-10l6.9-4.1c1.4-0.8,1.1-2.9-0.4-3.4l-27.5-7.6c-1.4-0.4-2.6,0.9-2.3,2.3l7.6,27.5c0.4,1.6,2.6,1.9,3.4,0.4   l4.1-6.9l10,10c0.7,0.7,1.9,0.7,2.6,0l5.7-5.7C97.7,86.7,97.7,85.5,97,84.8z" />
</svg>