<svg xmlns="http://www.w3.org/2000/svg" version="1.1" viewBox="-5.0 -10.0 110.0 135.0">
    <path
        d="m30.066 27.461c1.2031 0 2.3555 0.69141 2.8789 1.8633l2.4297 5.4141-2.4336 0.33594c-1.9258 0.26953-3.5312 1.6133-4.1289 3.4648-0.59766 1.8516-0.089844 3.8789 1.3164 5.2266l6.2891 6.0352-1.3945 8.8398c-0.003907 0-0.015626-0.003906-4.9609-2.6484l-6.8555 3.6719c-0.46484 0.25-0.97656 0.375-1.4883 0.375-0.64453 0-1.2812-0.19922-1.8281-0.58594-0.97656-0.69141-1.4727-1.8789-1.2891-3.0625l1.2578-7.9648-5.6797-5.4531c-0.87109-0.83594-1.1875-2.0977-0.81641-3.2461 0.37109-1.1484 1.3672-1.9844 2.5664-2.1523l8.0469-1.1211 3.1992-7.1289c0.52344-1.1719 1.6719-1.8633 2.875-1.8633zm39.875 0c1.2031 0 2.3555 0.69141 2.8789 1.8633l3.2031 7.1289 0.050781 0.007813h0.007812v0.003906l7.9844 1.1094c1.1992 0.16797 2.1953 1.0039 2.5664 2.1523 0.37109 1.1484 0.054688 2.4102-0.81641 3.2461l-5.6797 5.4531 1.2578 7.9648c0.1875 1.1836-0.3125 2.3711-1.2891 3.0625-0.54297 0.38672-1.1836 0.58594-1.8281 0.58594-0.50781 0-1.0195-0.125-1.4883-0.375l-6.8516-3.6719-4.9609 2.6562v-0.007813l-1.3945-8.8359 6.2891-6.0352v-0.003906c1.4023-1.3477 1.9141-3.375 1.3125-5.2266-0.59766-1.8516-2.2031-3.1953-4.1289-3.4609v-0.003906l-2.4336-0.33594 2.4297-5.4141c0.52344-1.1719 1.6719-1.8633 2.875-1.8633zm-19.938-2.5c1.1875 0 2.3164 0.67969 2.832 1.832l3.9727 8.8516v-0.003906l0.054687 0.007813h0.007813v0.003906l9.9102 1.3789c1.1797 0.16406 2.1602 0.98438 2.5234 2.1172 0.36719 1.1289 0.054687 2.3711-0.80078 3.1914v0.003906l-7.0352 6.75 1.5547 9.8555c0.18359 1.1641-0.30469 2.3281-1.2656 3.0117-0.53516 0.37891-1.1641 0.57422-1.7969 0.57422-0.50391 0-1.0078-0.12109-1.4648-0.36719l-8.4961-4.5547-8.5 4.5547c-0.45703 0.24609-0.96094 0.36719-1.4648 0.36719-0.63281 0-1.2617-0.19531-1.7969-0.57422-0.95703-0.68359-1.4492-1.8477-1.2656-3.0117l1.5547-9.8555v-0.003906l-7.0312-6.7461v-0.003906c-0.85938-0.82031-1.1719-2.0625-0.80469-3.1914 0.36719-1.1328 1.3477-1.9531 2.5234-2.1172l9.9727-1.3867v-0.003906l3.9727-8.8477c0.51562-1.1523 1.6445-1.832 2.8281-1.832zm36.098-15.676v0.007813-0.003907h-72.207c-5.8516 0.007813-10.59 4.7539-10.59 10.609v0.12109 48.266l0.007812 0.003906h-0.007812v0.11719c0 5.8555 4.7383 10.602 10.59 10.613v-0.003906h23.129v0.003906l10.727 10.723h-0.003906c0.015625 0.015624 0.03125 0.03125 0.046875 0.046874 0.60938 0.60938 1.4062 0.91406 2.2031 0.91406s1.5938-0.30469 2.2031-0.91406l10.77-10.77h23.133v-0.003906 0.003906c5.8516-0.011719 10.59-4.7578 10.59-10.613v-0.12109l-0.003906 0.003906 0.003906-0.003906v-48.266-0.12109c0-5.8555-4.7383-10.602-10.59-10.613v0.003906z" />

</svg>